<?xml version="1.0" encoding="utf-8"?>
<!-- Generator: Adobe Illustrator 16.0.0, SVG Export Plug-In . SVG Version: 6.00 Build 0)  -->
<!DOCTYPE svg PUBLIC "-//W3C//DTD SVG 1.1//EN" "http://www.w3.org/Graphics/SVG/1.1/DTD/svg11.dtd">
<svg version="1.1" id="Layer_1" xmlns="http://www.w3.org/2000/svg" xmlns:xlink="http://www.w3.org/1999/xlink" x="0px" y="0px"
	 width="864px" height="864px" viewBox="0 0 864 864" enable-background="new 0 0 864 864" xml:space="preserve">
<path fill="#4EC3C7" d="M524.906,294.979c-0.1,0-0.197-0.031-0.281-0.094l-32.719-24.539l-32.719,24.539
	c-0.084,0.063-0.184,0.094-0.281,0.094c-0.1,0-0.197-0.031-0.281-0.094l-32.719-24.539l-32.719,24.539
	c-0.083,0.063-0.182,0.094-0.281,0.094s-0.198-0.031-0.281-0.094l-32.719-24.539l-32.719,24.539
	c-0.083,0.063-0.182,0.094-0.281,0.094s-0.198-0.031-0.281-0.094l-32.719-24.539l-32.719,24.539
	c-0.083,0.063-0.182,0.094-0.281,0.094s-0.198-0.031-0.281-0.094l-32.719-24.539l-32.719,24.539
	c-0.083,0.063-0.181,0.094-0.281,0.094c-0.071,0-0.143-0.016-0.209-0.049c-0.158-0.08-0.258-0.241-0.258-0.419v-33
	c0-0.147,0.069-0.286,0.187-0.374l33-24.75c0.083-0.063,0.182-0.094,0.281-0.094s0.198,0.031,0.281,0.094l32.719,24.539
	l32.719-24.539c0.083-0.063,0.182-0.094,0.281-0.094s0.198,0.031,0.281,0.094l32.719,24.539l32.719-24.539
	c0.083-0.063,0.182-0.094,0.281-0.094s0.198,0.031,0.281,0.094l32.719,24.539l32.719-24.539c0.083-0.063,0.182-0.094,0.281-0.094
	s0.198,0.031,0.281,0.094l32.72,24.539l32.719-24.539c0.084-0.063,0.182-0.094,0.281-0.094c0.098,0,0.197,0.031,0.281,0.094
	l32.719,24.539l32.719-24.539c0.084-0.063,0.182-0.094,0.281-0.094c0.098,0,0.197,0.031,0.281,0.094l33,24.75
	c0.117,0.088,0.186,0.227,0.186,0.374v33c0,0.178-0.1,0.339-0.258,0.419c-0.066,0.033-0.139,0.049-0.209,0.049
	c-0.1,0-0.199-0.031-0.281-0.094l-32.719-24.539l-32.719,24.539C525.104,294.947,525.004,294.979,524.906,294.979z"/>
</svg>
