<?xml version="1.0" encoding="utf-8"?>
<!-- Generator: Adobe Illustrator 16.0.0, SVG Export Plug-In . SVG Version: 6.00 Build 0)  -->
<!DOCTYPE svg PUBLIC "-//W3C//DTD SVG 1.1//EN" "http://www.w3.org/Graphics/SVG/1.1/DTD/svg11.dtd">
<svg version="1.1" id="Layer_1" xmlns="http://www.w3.org/2000/svg" xmlns:xlink="http://www.w3.org/1999/xlink" x="0px" y="0px"
	 width="864px" height="864px" viewBox="0 0 864 864" enable-background="new 0 0 864 864" xml:space="preserve">
<path fill="#81D0D3" d="M579.188,271.276c-0.084-0.063-0.184-0.094-0.281-0.094c-0.1,0-0.197,0.031-0.281,0.094l-32.719,24.539
	l-32.719-24.539c-0.084-0.063-0.184-0.094-0.281-0.094c-0.1,0-0.197,0.031-0.281,0.094l-32.719,24.539l-32.72-24.539
	c-0.083-0.063-0.183-0.094-0.28-0.094c-0.1,0-0.198,0.031-0.281,0.094l-32.719,24.539l-32.719-24.539
	c-0.083-0.063-0.182-0.094-0.281-0.094s-0.198,0.031-0.281,0.094l-32.719,24.539l-32.719-24.539
	c-0.083-0.063-0.182-0.094-0.281-0.094s-0.198,0.031-0.281,0.094l-32.719,24.539l-32.719-24.539
	c-0.083-0.063-0.182-0.094-0.281-0.094s-0.198,0.031-0.281,0.094l-32.719,24.539l0-16.5l33-24.75l32.719,24.539
	c0.083,0.063,0.182,0.094,0.281,0.094s0.198-0.031,0.281-0.094l32.719-24.539l32.719,24.539c0.083,0.063,0.182,0.094,0.281,0.094
	s0.198-0.031,0.281-0.094l32.719-24.539l32.719,24.539c0.083,0.063,0.182,0.094,0.281,0.094s0.198-0.031,0.281-0.094l32.72-24.539
	l32.719,24.539c0.084,0.063,0.182,0.094,0.281,0.094c0.098,0,0.197-0.031,0.281-0.094l32.719-24.539l32.719,24.539
	c0.084,0.063,0.182,0.094,0.281,0.094c0.098,0,0.197-0.031,0.281-0.094l32.719-24.539l33,24.75v16.5L579.188,271.276z"/>
</svg>
