<svg width="505" height="503" viewBox="0 0 505 503" fill="none" xmlns="http://www.w3.org/2000/svg">
<path d="M252.5 285.23C270.491 285.23 285.157 270.638 285.157 252.69C285.157 234.764 270.512 220.15 252.5 220.15C234.488 220.15 219.822 234.743 219.822 252.69C219.843 270.638 234.488 285.23 252.5 285.23ZM252.5 236.923C261.211 236.923 268.302 243.989 268.302 252.69C268.302 261.391 261.211 268.457 252.5 268.457C243.768 268.457 236.677 261.391 236.677 252.69C236.698 243.989 243.768 236.923 252.5 236.923Z" fill="black"/>
<path d="M28.4693 268.583C38.6535 268.583 47.1754 265.04 51.9729 260.008C53.1512 260.616 54.4137 261.056 55.8445 261.056H64.177V265.543C64.177 270.176 67.9645 273.929 72.5937 273.929C77.2229 273.929 81.0104 270.176 81.0104 265.543V261.056H93.6354C95.6554 299.152 111.142 333.684 135.529 360.04L127.176 368.363L121.347 362.535C118.065 359.264 112.72 359.264 109.438 362.535C106.155 365.805 106.155 371.11 109.438 374.381L115.287 380.209L108.28 387.191L108.259 387.233C100.895 385.325 90.5002 388.994 82.0414 397.423C71.247 408.179 67.8804 422.29 74.5295 428.915C81.1787 435.54 95.3398 432.186 106.134 421.43C112.573 415.014 115.982 407.55 116.571 401.05C117.896 400.673 119.159 400.086 120.19 399.038L127.176 392.077L129.238 394.131C130.879 395.767 133.046 396.584 135.193 396.584C137.339 396.584 139.506 395.767 141.147 394.131C144.43 390.861 144.43 385.556 141.147 382.285L139.085 380.23L147.565 371.76C173.636 394.593 207.176 408.997 244.062 410.947V422.457H238.465C233.815 422.457 230.048 426.21 230.048 430.844C230.048 435.478 233.836 439.231 238.465 439.231H244.083V451.307L244.104 451.37C239.033 456.151 235.477 464.663 235.477 474.832C235.477 490.054 243.094 502.382 252.521 502.382C261.927 502.382 269.565 490.054 269.565 474.832C269.565 464.684 266.009 456.172 260.938 451.391L260.959 451.328V439.252H266.535C271.185 439.252 274.951 435.499 274.951 430.865C274.951 426.231 271.164 422.478 266.535 422.478H260.959V410.968C299.191 408.955 333.826 393.523 360.275 369.244L368.629 377.568L363.873 382.306C360.591 385.577 360.591 390.902 363.873 394.152C365.515 395.788 367.682 396.605 369.828 396.605C371.975 396.605 374.142 395.788 375.783 394.152L380.538 389.414L388.282 397.13C387.398 404.3 391.122 413.693 398.908 421.451C409.702 432.207 423.863 435.561 430.512 428.936C437.162 422.311 433.795 408.2 423.001 397.444C416.351 390.819 408.608 387.422 401.938 387.024L392.448 377.568L395.604 374.423C398.887 371.152 398.887 365.826 395.604 362.576C392.322 359.306 386.977 359.306 383.695 362.576L380.538 365.721L372.059 357.272C394.973 331.294 409.45 297.852 411.386 261.098H423.99V265.585C423.99 270.218 427.777 273.971 432.406 273.971C437.035 273.971 440.823 270.218 440.823 265.585V261.098H454.205C459.192 265.522 467.125 268.604 476.552 268.604C491.828 268.604 504.2 261.014 504.2 251.621C504.2 242.249 491.828 234.638 476.552 234.638C465.589 234.638 456.31 238.643 451.828 244.304H440.823V237.657C440.823 233.023 437.035 229.27 432.406 229.27C427.777 229.27 423.99 233.023 423.99 237.657V244.304H411.364C409.429 207.549 394.952 174.128 372.038 148.129L381.591 138.59L383.653 140.644C385.294 142.28 387.461 143.097 389.607 143.097C391.754 143.097 393.921 142.28 395.562 140.644C398.845 137.374 398.845 132.069 395.562 128.798L393.5 126.743L402.106 118.168C402.716 117.56 403.095 116.847 403.474 116.113C409.765 115.233 416.856 111.857 422.979 105.756C433.774 94.9999 437.141 80.8893 430.491 74.2639C423.842 67.6384 409.681 70.9931 398.887 81.749C390.428 90.1776 386.746 100.535 388.639 107.852L381.612 114.855L375.783 109.048C372.501 105.777 367.156 105.777 363.873 109.048C360.591 112.318 360.591 117.623 363.873 120.894L369.723 126.722L360.275 136.136C333.826 111.836 299.191 96.4046 260.959 94.4128V80.7216H266.535C271.185 80.7216 274.951 76.9686 274.951 72.3349C274.951 67.7013 271.164 63.9483 266.535 63.9483H260.959V54.052C260.959 53.402 260.727 52.815 260.58 52.2069C265.84 47.5104 269.565 38.7883 269.565 28.3678C269.565 13.146 261.948 0.817627 252.521 0.817627C243.115 0.817627 235.477 13.146 235.477 28.3678C235.477 38.7883 239.202 47.5314 244.462 52.2279C244.315 52.8359 244.083 53.402 244.083 54.052V63.9692H238.486C233.836 63.9692 230.07 67.7223 230.07 72.3559C230.07 76.9895 233.857 80.7426 238.486 80.7426H244.083V94.4128C207.197 96.3417 173.657 110.767 147.586 133.6L138.012 124.039L141.169 120.894C144.451 117.623 144.451 112.297 141.169 109.048C137.886 105.777 132.541 105.777 129.259 109.048L126.103 112.172L120.211 106.301C119.18 105.295 117.96 104.707 116.676 104.309C116.823 97.3901 113.309 88.8986 106.134 81.749C95.3398 70.9931 81.1787 67.6384 74.5295 74.2639C67.8804 80.8893 71.226 94.9999 82.0414 105.756C90.0372 113.723 99.8216 117.56 107.081 116.365C107.439 116.994 107.754 117.623 108.28 118.168L114.193 124.06L109.438 128.798C106.155 132.069 106.155 137.394 109.438 140.644C111.079 142.28 113.246 143.097 115.392 143.097C117.539 143.097 119.706 142.28 121.347 140.644L126.103 135.906L135.55 145.32C111.142 171.675 95.6554 206.186 93.6354 244.304H81.0314V237.657C81.0314 233.023 77.2439 229.27 72.6147 229.27C67.9856 229.27 64.1981 233.023 64.1981 237.657V244.304H55.8445C55.066 244.304 54.3716 244.555 53.6772 244.744C49.3637 238.81 39.7477 234.638 28.4693 234.638C13.1931 234.638 0.820583 242.228 0.820583 251.621C0.799542 260.972 13.1931 268.583 28.4693 268.583ZM110.49 261.056H182.957C184.62 274.747 190.153 287.117 198.591 297.202L147.439 348.172C126.082 324.878 112.468 294.54 110.49 261.056ZM252.5 199.33C266.808 199.33 280.233 204.886 290.354 214.95C300.454 225.014 306.009 238.391 306.03 252.606L306.009 252.669L306.03 252.732C305.988 282.127 282.021 306.029 252.5 306.029C222.978 306.029 198.949 282.085 198.949 252.669C198.97 223.274 222.978 199.33 252.5 199.33ZM159.475 359.935L210.753 308.839C220.306 315.926 231.69 320.475 244.083 321.985V394.215C211.826 392.307 182.473 379.748 159.475 359.935ZM260.938 394.194V321.964C274.657 320.308 287.071 314.793 297.192 306.407L348.345 357.377C324.967 378.658 294.52 392.223 260.938 394.194ZM360.128 345.384L308.85 294.288C315.962 284.769 320.549 273.426 322.043 261.077H394.51C392.616 293.198 380.012 322.467 360.128 345.384ZM394.51 244.304H322.064C320.612 232.206 316.13 220.863 308.85 211.092L360.128 159.997C380.012 182.892 392.616 212.162 394.51 244.304ZM348.345 148.004L297.213 198.974C286.798 190.335 274.341 184.989 260.938 183.395V111.165C294.52 113.136 324.967 126.722 348.345 148.004ZM244.083 111.165V183.395C231.69 184.884 220.327 189.455 210.753 196.52L159.475 145.446C182.452 125.611 211.826 113.073 244.083 111.165ZM147.439 157.187L198.591 208.157C190.175 218.263 184.62 230.633 182.957 244.304H110.49C112.468 210.82 126.082 180.481 147.439 157.187Z" fill="#00426B"/>
<circle cx="253.5" cy="254.5" r="143.5" fill="white"/>
<path d="M191.854 204H177.646V198.944H182.894C185.838 191.904 188.782 184.949 191.726 178.08C194.713 171.168 197.678 164.192 200.622 157.152C203.566 164.192 206.51 171.168 209.454 178.08C212.441 184.949 215.406 191.904 218.35 198.944H223.598V204H209.39V198.944H212.974C212.078 196.811 211.182 194.699 210.286 192.608C209.433 190.517 208.558 188.405 207.662 186.272H193.582C192.388 189.088 191.492 191.2 190.894 192.608C190.297 194.016 189.401 196.128 188.206 198.944H191.854V204ZM199.918 171.04C199.15 172.704 198.404 174.453 197.678 176.288C196.996 178.08 196.356 179.723 195.758 181.216H205.486L201.198 171.04L200.558 168.928C200.388 169.611 200.238 170.101 200.11 170.4C200.025 170.699 199.961 170.912 199.918 171.04ZM242.292 204H228.084V198.944H232.948V161.056H228.084V156H238.26V183.264L238.068 186.144C239.006 184.053 240.372 182.453 242.164 181.344C243.956 180.192 246.068 179.552 248.5 179.424C251.017 179.424 253.001 180.085 254.452 181.408C255.902 182.731 256.67 184.459 256.756 186.592V198.944H260.724V204H246.516V198.944H251.444V189.024C251.358 187.872 250.932 186.891 250.164 186.08C249.438 185.227 248.265 184.757 246.644 184.672C245.534 184.672 244.468 184.864 243.444 185.248C242.462 185.632 241.588 186.165 240.82 186.848C240.052 187.531 239.433 188.341 238.964 189.28C238.494 190.219 238.26 191.243 238.26 192.352V198.944H242.292V204ZM287.161 200.864C286.009 202.016 284.643 202.933 283.065 203.616C281.486 204.256 279.801 204.576 278.009 204.576C276.217 204.576 274.531 204.256 272.953 203.616C271.417 202.933 270.073 202.016 268.921 200.864C267.769 199.712 266.851 198.389 266.169 196.896C265.529 195.403 265.209 193.76 265.209 191.968C265.209 190.261 265.529 188.64 266.169 187.104C266.851 185.568 267.769 184.224 268.921 183.072C270.073 181.963 271.417 181.088 272.953 180.448C274.531 179.765 276.217 179.424 278.009 179.424C279.801 179.424 281.486 179.765 283.065 180.448C284.643 181.088 286.009 181.963 287.161 183.072C288.313 184.224 289.209 185.568 289.849 187.104C290.531 188.64 290.873 190.261 290.873 191.968C290.873 193.717 290.531 195.36 289.849 196.896C289.209 198.389 288.313 199.712 287.161 200.864ZM272.697 197.216C273.337 197.899 274.105 198.432 275.001 198.816C275.897 199.2 276.857 199.392 277.881 199.392C278.905 199.392 279.865 199.2 280.761 198.816C281.657 198.432 282.446 197.899 283.129 197.216C283.811 196.576 284.345 195.808 284.729 194.912C285.113 194.016 285.305 193.056 285.305 192.032C285.305 191.008 285.113 190.048 284.729 189.152C284.345 188.256 283.811 187.467 283.129 186.784C282.446 186.101 281.657 185.568 280.761 185.184C279.865 184.8 278.905 184.608 277.881 184.608C276.857 184.608 275.897 184.8 275.001 185.184C274.105 185.568 273.337 186.101 272.697 186.784C272.014 187.467 271.481 188.256 271.097 189.152C270.713 190.048 270.521 191.008 270.521 192.032C270.521 193.056 270.713 194.016 271.097 194.912C271.481 195.808 272.014 196.576 272.697 197.216ZM313.19 220H298.982V214.944H304.742C305.638 213.109 306.534 211.275 307.43 209.44C308.368 207.605 309.307 205.792 310.246 204C308.624 200.8 307.024 197.643 305.446 194.528C303.91 191.413 302.331 188.256 300.71 185.056H295.334V180H309.542V185.056H306.15C307.387 187.403 308.624 189.771 309.862 192.16C311.099 194.507 312.123 196.875 312.934 199.264C313.744 196.875 314.747 194.507 315.942 192.16C317.179 189.771 318.416 187.403 319.654 185.056H315.686V180H330.342V185.056H325.094C322.576 190.091 320.059 195.083 317.542 200.032C315.067 204.939 312.571 209.909 310.054 214.944H313.19V220ZM161.291 268H145.803V262.944H149.387V228.256H145.803V223.2H176.971V233.056H171.915V228.256H154.699V242.912H174.475V247.968H154.699V262.944H161.291V268ZM211.956 268H202.42V266.72C202.42 266.421 202.42 266.208 202.42 266.08C202.42 265.952 202.42 265.739 202.42 265.44C202.377 265.568 202.164 265.803 201.78 266.144C201.396 266.485 200.862 266.827 200.18 267.168C199.454 267.552 198.601 267.872 197.62 268.128C196.638 268.427 195.529 268.576 194.292 268.576C192.5 268.576 190.814 268.256 189.236 267.616C187.657 266.933 186.292 266.016 185.14 264.864C183.988 263.712 183.07 262.389 182.388 260.896C181.748 259.36 181.428 257.739 181.428 256.032C181.428 254.368 181.748 252.768 182.388 251.232C183.07 249.696 183.988 248.352 185.14 247.2C186.292 246.048 187.657 245.131 189.236 244.448C190.814 243.765 192.5 243.424 194.292 243.424C196.638 243.424 198.494 243.851 199.86 244.704C201.225 245.515 202.078 246.283 202.42 247.008C202.462 246.581 202.505 246.112 202.548 245.6C202.633 245.045 202.676 244.512 202.676 244H207.092V262.944H211.956V268ZM194.292 248.608C193.14 248.608 192.073 248.821 191.092 249.248C190.11 249.632 189.3 250.187 188.66 250.912C188.062 251.552 187.593 252.299 187.252 253.152C186.953 254.005 186.804 254.944 186.804 255.968C186.804 257.163 187.038 258.272 187.508 259.296C188.02 260.32 188.702 261.173 189.556 261.856C190.153 262.325 190.857 262.709 191.668 263.008C192.478 263.264 193.353 263.392 194.292 263.392C195.358 263.392 196.318 263.221 197.172 262.88C198.068 262.539 198.836 262.069 199.476 261.472C200.201 260.789 200.756 259.979 201.14 259.04C201.566 258.101 201.78 257.077 201.78 255.968C201.78 254.859 201.566 253.835 201.14 252.896C200.756 251.957 200.222 251.168 199.54 250.528C198.857 249.931 198.068 249.461 197.172 249.12C196.318 248.779 195.358 248.608 194.292 248.608ZM241.388 252.64L232.492 269.472C230.742 266.059 229.014 262.667 227.308 259.296C225.601 255.883 223.873 252.469 222.124 249.056H216.428V244H229.676V249.056H227.436C228.374 250.933 229.398 252.96 230.508 255.136C231.617 257.312 232.385 259.04 232.812 260.32C234.092 257.931 235.158 255.947 236.012 254.368C236.865 252.747 237.782 251.061 238.764 249.312L238.572 249.056H234.284V244H248.492V249.056H244.844C245.782 250.933 246.7 252.811 247.596 254.688C248.492 256.523 249.26 258.4 249.9 260.32C250.54 258.4 251.286 256.523 252.14 254.688C253.036 252.811 253.974 250.933 254.956 249.056H251.372V244H265.068V249.056H260.204C258.497 252.512 256.769 255.925 255.02 259.296C253.313 262.667 251.606 266.059 249.9 269.472L241.388 252.64ZM290.353 265.824C289.243 266.677 288.006 267.36 286.641 267.872C285.318 268.341 283.889 268.576 282.353 268.576C280.561 268.576 278.875 268.256 277.297 267.616C275.761 266.933 274.417 266.016 273.265 264.864C272.113 263.712 271.195 262.389 270.513 260.896C269.873 259.403 269.553 257.76 269.553 255.968C269.553 254.261 269.873 252.64 270.513 251.104C271.195 249.568 272.113 248.245 273.265 247.136C274.417 245.984 275.761 245.088 277.297 244.448C278.875 243.765 280.561 243.424 282.353 243.424C283.931 243.424 285.403 243.68 286.769 244.192C288.134 244.661 289.371 245.323 290.481 246.176V253.6H285.745V249.312C285.233 249.056 284.678 248.885 284.081 248.8C283.526 248.672 282.95 248.608 282.353 248.608C281.329 248.608 280.369 248.779 279.473 249.12C278.619 249.419 277.873 249.845 277.233 250.4C276.465 251.083 275.867 251.893 275.441 252.832C275.057 253.771 274.865 254.816 274.865 255.968C274.865 257.035 275.057 258.037 275.441 258.976C275.825 259.915 276.358 260.725 277.041 261.408C277.723 262.005 278.513 262.496 279.409 262.88C280.305 263.221 281.286 263.392 282.353 263.392C283.291 263.392 284.145 263.264 284.913 263.008C285.723 262.752 286.47 262.347 287.153 261.792L290.353 265.824ZM307.79 248.608C306.595 248.608 305.507 248.821 304.526 249.248C303.587 249.632 302.777 250.187 302.094 250.912C301.582 251.509 301.155 252.192 300.814 252.96C300.515 253.728 300.345 254.56 300.302 255.456C302.307 254.731 304.291 254.005 306.254 253.28C308.259 252.512 310.265 251.765 312.27 251.04C311.673 250.315 310.99 249.739 310.222 249.312C309.497 248.843 308.686 248.608 307.79 248.608ZM315.918 265.184C314.851 266.251 313.635 267.083 312.27 267.68C310.905 268.277 309.411 268.576 307.79 268.576C305.998 268.576 304.313 268.256 302.734 267.616C301.198 266.933 299.854 266.016 298.702 264.864C297.55 263.712 296.633 262.389 295.95 260.896C295.31 259.36 294.99 257.717 294.99 255.968C294.99 254.261 295.31 252.64 295.95 251.104C296.633 249.568 297.55 248.224 298.702 247.072C299.854 245.963 301.198 245.088 302.734 244.448C304.313 243.765 305.998 243.424 307.79 243.424C309.113 243.424 310.371 243.701 311.566 244.256C312.803 244.768 313.913 245.493 314.894 246.432C315.833 247.371 316.665 248.501 317.39 249.824C318.115 251.104 318.67 252.512 319.054 254.048C316.153 255.115 313.251 256.181 310.35 257.248C307.491 258.315 304.611 259.381 301.71 260.448C302.35 261.344 303.182 262.069 304.206 262.624C305.273 263.136 306.467 263.392 307.79 263.392C308.771 263.392 309.667 263.221 310.478 262.88C311.289 262.539 312.014 262.027 312.654 261.344L315.918 265.184ZM339.291 268H329.179V249.184H323.803V244H329.179V228.384H334.491V244H340.763V249.184H334.491V262.944H339.291V268ZM360.728 268H350.616V249.184H345.24V244H350.616V228.384H355.928V244H362.2V249.184H355.928V262.944H360.728V268ZM213.39 332H197.646V326.944H200.526V292.256H197.646V287.2H212.238C214.329 287.2 216.228 287.413 217.934 287.84C219.684 288.267 221.177 288.928 222.414 289.824C223.609 290.72 224.548 291.893 225.23 293.344C225.913 294.752 226.254 296.437 226.254 298.4C226.254 301.045 225.614 303.371 224.334 305.376C223.097 307.381 221.198 308.747 218.638 309.472C219.833 309.728 220.985 310.155 222.094 310.752C223.246 311.349 224.249 312.117 225.102 313.056C225.913 313.995 226.574 315.083 227.086 316.32C227.598 317.557 227.854 318.944 227.854 320.48C227.854 322.4 227.449 324.085 226.638 325.536C225.828 326.944 224.761 328.117 223.438 329.056C222.073 330.037 220.516 330.784 218.766 331.296C217.017 331.765 215.225 332 213.39 332ZM205.838 311.968V326.944H212.942C214.265 326.944 215.502 326.795 216.654 326.496C217.806 326.197 218.83 325.728 219.726 325.088C220.58 324.491 221.262 323.744 221.774 322.848C222.286 321.952 222.542 320.885 222.542 319.648C222.542 318.325 222.244 317.173 221.646 316.192C221.049 315.211 220.281 314.4 219.342 313.76C218.361 313.163 217.23 312.715 215.95 312.416C214.67 312.117 213.369 311.968 212.046 311.968H205.838ZM205.838 292.256V306.912H212.75C215.268 306.912 217.252 306.208 218.702 304.8C220.196 303.392 220.942 301.536 220.942 299.232C220.942 297.909 220.708 296.8 220.238 295.904C219.812 294.965 219.193 294.219 218.382 293.664C217.657 293.195 216.804 292.853 215.822 292.64C214.841 292.384 213.774 292.256 212.622 292.256H205.838ZM254.286 328.864C253.134 330.016 251.768 330.933 250.19 331.616C248.611 332.256 246.926 332.576 245.134 332.576C243.342 332.576 241.656 332.256 240.078 331.616C238.542 330.933 237.198 330.016 236.046 328.864C234.894 327.712 233.976 326.389 233.294 324.896C232.654 323.403 232.334 321.76 232.334 319.968C232.334 318.261 232.654 316.64 233.294 315.104C233.976 313.568 234.894 312.224 236.046 311.072C237.198 309.963 238.542 309.088 240.078 308.448C241.656 307.765 243.342 307.424 245.134 307.424C246.926 307.424 248.611 307.765 250.19 308.448C251.768 309.088 253.134 309.963 254.286 311.072C255.438 312.224 256.334 313.568 256.974 315.104C257.656 316.64 257.998 318.261 257.998 319.968C257.998 321.717 257.656 323.36 256.974 324.896C256.334 326.389 255.438 327.712 254.286 328.864ZM239.822 325.216C240.462 325.899 241.23 326.432 242.126 326.816C243.022 327.2 243.982 327.392 245.006 327.392C246.03 327.392 246.99 327.2 247.886 326.816C248.782 326.432 249.571 325.899 250.254 325.216C250.936 324.576 251.47 323.808 251.854 322.912C252.238 322.016 252.43 321.056 252.43 320.032C252.43 319.008 252.238 318.048 251.854 317.152C251.47 316.256 250.936 315.467 250.254 314.784C249.571 314.101 248.782 313.568 247.886 313.184C246.99 312.8 246.03 312.608 245.006 312.608C243.982 312.608 243.022 312.8 242.126 313.184C241.23 313.568 240.462 314.101 239.822 314.784C239.139 315.467 238.606 316.256 238.222 317.152C237.838 318.048 237.646 319.008 237.646 320.032C237.646 321.056 237.838 322.016 238.222 322.912C238.606 323.808 239.139 324.576 239.822 325.216ZM280.315 348H266.107V342.944H271.867C272.763 341.109 273.659 339.275 274.555 337.44C275.493 335.605 276.432 333.792 277.371 332C275.749 328.8 274.149 325.643 272.571 322.528C271.035 319.413 269.456 316.256 267.835 313.056H262.459V308H276.667V313.056H273.275C274.512 315.403 275.749 317.771 276.987 320.16C278.224 322.507 279.248 324.875 280.059 327.264C280.869 324.875 281.872 322.507 283.067 320.16C284.304 317.771 285.541 315.403 286.779 313.056H282.811V308H297.467V313.056H292.219C289.701 318.091 287.184 323.083 284.667 328.032C282.192 332.939 279.696 337.909 277.179 342.944H280.315V348ZM309.383 328.608C309.383 329.589 309.041 330.4 308.359 331.04C307.676 331.68 306.929 332 306.119 332C305.265 332 304.497 331.68 303.815 331.04C303.132 330.4 302.791 329.589 302.791 328.608C302.791 327.627 303.132 326.837 303.815 326.24C304.497 325.6 305.265 325.28 306.119 325.28C306.929 325.28 307.676 325.6 308.359 326.24C309.041 326.837 309.383 327.627 309.383 328.608ZM308.743 321.376H303.431V284H308.743V321.376Z" fill="#00426B"/>
</svg>
