<?xml version="1.0" encoding="utf-8"?>
<!-- Generator: Adobe Illustrator 16.0.0, SVG Export Plug-In . SVG Version: 6.00 Build 0)  -->
<!DOCTYPE svg PUBLIC "-//W3C//DTD SVG 1.1//EN" "http://www.w3.org/Graphics/SVG/1.1/DTD/svg11.dtd">
<svg version="1.1" id="Layer_1" xmlns="http://www.w3.org/2000/svg" xmlns:xlink="http://www.w3.org/1999/xlink" x="0px" y="0px"
	 width="864px" height="864px" viewBox="0 0 864 864" enable-background="new 0 0 864 864" xml:space="preserve">
<path fill="#C0E5E7" d="M211.066,315.04l-0.16-17.038c0.001-4.499,2.569-8.511,6.704-10.467c0.14-0.066,0.238-0.197,0.262-0.35
	c0.024-0.153-0.029-0.309-0.142-0.414c-3.333-3.134-4.537-7.738-3.142-12.016c1.393-4.278,5.076-7.297,9.612-7.879
	c0.153-0.02,0.288-0.113,0.357-0.252c0.07-0.138,0.068-0.302-0.007-0.438c-2.201-4.011-1.926-8.76,0.716-12.394
	c2.183-3.005,5.6-4.728,9.374-4.728c0.738,0,1.481,0.069,2.21,0.205c0.028,0.005,0.057,0.008,0.086,0.008
	c0.123,0,0.243-0.049,0.331-0.138c0.109-0.109,0.158-0.266,0.129-0.417c-0.852-4.498,0.88-8.936,4.521-11.581
	c1.959-1.425,4.28-2.179,6.713-2.179c1.975,0,3.942,0.505,5.688,1.462c0.07,0.038,0.147,0.057,0.225,0.057
	c0.073,0,0.146-0.017,0.212-0.051c0.138-0.07,0.232-0.204,0.252-0.357c0.583-4.539,3.602-8.221,7.878-9.609
	c1.146-0.373,2.332-0.562,3.524-0.562c3.175,0,6.272,1.349,8.495,3.702c0.089,0.094,0.213,0.146,0.34,0.146
	c0.024,0,0.049-0.001,0.074-0.005c0.153-0.024,0.283-0.123,0.35-0.263c1.953-4.135,5.962-6.705,10.464-6.705
	c4.495,0,8.501,2.569,10.455,6.704c0.066,0.14,0.197,0.238,0.35,0.263c0.024,0.003,0.049,0.005,0.073,0.005
	c0.128,0,0.251-0.052,0.34-0.146c2.218-2.353,5.316-3.701,8.5-3.701c1.195,0,2.382,0.189,3.528,0.562
	c4.279,1.392,7.295,5.073,7.87,9.606c0.02,0.153,0.114,0.288,0.252,0.358c0.067,0.034,0.14,0.051,0.212,0.051
	c0.078,0,0.155-0.02,0.225-0.058c1.74-0.954,3.705-1.458,5.681-1.458c2.437,0,4.763,0.753,6.728,2.179
	c3.637,2.652,5.368,7.089,4.516,11.579c-0.029,0.152,0.02,0.309,0.128,0.418c0.089,0.089,0.208,0.137,0.332,0.137
	c0.029,0,0.058-0.002,0.086-0.008c0.725-0.136,1.465-0.205,2.201-0.205c3.724,0,7.226,1.768,9.368,4.729l0.138,0.179
	c0.088,0.119,0.228,0.189,0.376,0.189c0,0,0.001,0,0.001,0c0.149,0,0.289-0.072,0.376-0.192l0.136-0.177
	c2.147-2.966,5.644-4.727,9.366-4.727c0.738,0,1.479,0.069,2.202,0.205c0.029,0.005,0.058,0.008,0.086,0.008
	c0.123,0,0.243-0.048,0.331-0.137c0.109-0.109,0.158-0.266,0.129-0.418c-0.854-4.49,0.876-8.927,4.515-11.58
	c1.965-1.425,4.292-2.179,6.728-2.179c1.977,0,3.941,0.505,5.682,1.46c0.07,0.039,0.147,0.058,0.225,0.058
	c0.073,0,0.146-0.017,0.212-0.051c0.138-0.07,0.232-0.205,0.252-0.358c0.575-4.534,3.591-8.215,7.87-9.607
	c1.146-0.374,2.334-0.563,3.529-0.563c3.184,0,6.281,1.349,8.499,3.701c0.089,0.095,0.212,0.147,0.34,0.147
	c0.024,0,0.049-0.001,0.073-0.005c0.153-0.024,0.284-0.123,0.35-0.262c1.956-4.135,5.962-6.705,10.455-6.705
	c4.502,0,8.511,2.569,10.464,6.705c0.066,0.14,0.197,0.238,0.35,0.262c0.024,0.004,0.049,0.006,0.074,0.006
	c0.127,0,0.251-0.052,0.34-0.146c2.223-2.353,5.319-3.702,8.495-3.702c1.193,0,2.378,0.189,3.524,0.562
	c4.278,1.388,7.296,5.069,7.878,9.608c0.021,0.153,0.115,0.287,0.252,0.357c0.067,0.034,0.141,0.051,0.213,0.051
	c0.078,0,0.154-0.019,0.225-0.057c1.746-0.956,3.712-1.46,5.686-1.46c2.434,0,4.755,0.753,6.715,2.179
	c3.641,2.645,5.372,7.082,4.521,11.58c-0.029,0.152,0.02,0.308,0.129,0.417c0.088,0.089,0.207,0.138,0.33,0.138
	c0.029,0,0.058-0.003,0.086-0.008c0.728-0.136,1.471-0.205,2.209-0.205c3.773,0,7.191,1.724,9.377,4.729l0.088,0.123
	c0.088,0.123,0.248,0.22,0.398,0.22l0,0c0.152,0,0.311-0.049,0.398-0.173l0.123-0.169c2.154-2.963,5.658-4.728,9.377-4.728
	c0.74,0,1.48,0.069,2.205,0.205c0.029,0.005,0.059,0.008,0.086,0.008c0.123,0,0.242-0.048,0.332-0.137
	c0.109-0.109,0.156-0.266,0.129-0.418c-0.85-4.5,0.883-8.938,4.521-11.581c1.961-1.425,4.283-2.179,6.719-2.179
	c1.977,0,3.943,0.505,5.686,1.46c0.07,0.038,0.148,0.057,0.225,0.057c0.074,0,0.146-0.017,0.213-0.051
	c0.139-0.071,0.232-0.205,0.252-0.358c0.572-4.538,3.59-8.219,7.877-9.607c1.145-0.373,2.328-0.562,3.521-0.562
	c3.182,0,6.277,1.349,8.492,3.701c0.09,0.095,0.213,0.147,0.342,0.147c0.023,0,0.049-0.001,0.072-0.005
	c0.152-0.024,0.283-0.123,0.35-0.262c1.959-4.135,5.969-6.705,10.467-6.705c4.482,0,8.492,2.569,10.463,6.705
	c0.066,0.14,0.197,0.237,0.35,0.261c0.025,0.004,0.049,0.006,0.072,0.006c0.129,0,0.252-0.053,0.342-0.148
	c2.205-2.352,5.297-3.7,8.484-3.7c1.195,0,2.383,0.189,3.533,0.562c4.271,1.389,7.287,5.07,7.867,9.607
	c0.02,0.153,0.113,0.287,0.252,0.357c0.066,0.034,0.141,0.051,0.213,0.051c0.076,0,0.154-0.019,0.225-0.058
	c1.74-0.955,3.703-1.459,5.68-1.459c2.436,0,4.766,0.753,6.734,2.179c3.639,2.651,5.365,7.088,4.506,11.579
	c-0.029,0.152,0.02,0.309,0.127,0.418c0.09,0.089,0.209,0.138,0.332,0.138c0.029,0,0.059-0.003,0.086-0.008
	c0.727-0.136,1.469-0.205,2.205-0.205c3.725,0,7.232,1.768,9.383,4.729c2.641,3.648,2.912,8.398,0.709,12.394
	c-0.074,0.136-0.076,0.299-0.006,0.438c0.068,0.138,0.203,0.232,0.357,0.252c4.553,0.585,8.24,3.604,9.623,7.88
	c1.387,4.279,0.182,8.883-3.143,12.014c-0.113,0.106-0.166,0.261-0.141,0.413c0.023,0.153,0.121,0.284,0.26,0.351
	c4.129,1.96,6.691,5.971,6.691,10.468l0.111,17.038H211.066z M594.928,289.849c-0.135,0-0.262,0.057-0.35,0.157
	c-0.09,0.1-0.131,0.233-0.115,0.366c0.285,2.399,0.439,4.81,0.457,7.165c0.002,0.257,0.211,0.464,0.469,0.464h7.4
	c0.129,0,0.254-0.053,0.342-0.147c0.088-0.094,0.135-0.221,0.125-0.35C602.99,293.214,599.332,289.852,594.928,289.849
	L594.928,289.849z M576.332,292.582c-0.125,0-0.244,0.049-0.332,0.138l-4.471,4.484c-0.133,0.134-0.174,0.335-0.102,0.51
	c0.074,0.175,0.244,0.288,0.434,0.288h8.93c0.189,0,0.359-0.113,0.434-0.288c0.072-0.175,0.031-0.376-0.102-0.51l-4.459-4.484
	C576.576,292.631,576.457,292.582,576.332,292.582L576.332,292.582z M561.395,292.581c-0.125,0-0.244,0.05-0.332,0.138l-4.473,4.485
	c-0.135,0.134-0.174,0.335-0.102,0.51s0.242,0.288,0.432,0.288h8.957c0.189,0,0.359-0.114,0.432-0.289s0.033-0.376-0.102-0.51
	l-4.482-4.485C561.637,292.629,561.518,292.581,561.395,292.581z M546.467,292.582c-0.125,0-0.244,0.05-0.332,0.138l-4.459,4.484
	c-0.133,0.134-0.174,0.335-0.102,0.51c0.074,0.175,0.244,0.288,0.434,0.288h8.922c0.189,0,0.359-0.113,0.434-0.288
	c0.072-0.175,0.031-0.376-0.102-0.51l-4.463-4.484C546.711,292.631,546.592,292.582,546.467,292.582z M531.549,292.581
	c-0.125,0-0.244,0.049-0.332,0.137l-4.482,4.485c-0.133,0.134-0.174,0.335-0.102,0.51s0.244,0.289,0.434,0.289h8.953
	c0.189,0,0.359-0.113,0.432-0.288s0.033-0.376-0.102-0.51l-4.471-4.485C531.793,292.63,531.674,292.581,531.549,292.581
	L531.549,292.581z M516.607,292.582c-0.125,0-0.244,0.05-0.332,0.138l-4.461,4.484c-0.133,0.134-0.174,0.335-0.102,0.51
	c0.074,0.175,0.244,0.288,0.434,0.288h8.938c0.189,0,0.359-0.113,0.432-0.288s0.033-0.376-0.102-0.511l-4.475-4.484
	C516.852,292.63,516.732,292.582,516.607,292.582z M501.695,292.582c-0.125,0-0.244,0.049-0.332,0.137l-4.479,4.484
	c-0.133,0.134-0.174,0.336-0.102,0.511c0.074,0.175,0.244,0.288,0.434,0.288h8.939c0.189,0,0.359-0.113,0.432-0.288
	s0.033-0.376-0.1-0.51l-4.461-4.484C501.939,292.631,501.82,292.582,501.695,292.582L501.695,292.582z M486.752,292.582
	c-0.125,0-0.244,0.05-0.33,0.138l-4.469,4.484c-0.135,0.134-0.174,0.335-0.102,0.51s0.242,0.288,0.432,0.288h8.949
	c0.189,0,0.359-0.113,0.432-0.288s0.033-0.377-0.102-0.511l-4.479-4.484C486.996,292.63,486.877,292.582,486.752,292.582z
	 M453.603,292.582c-0.124,0-0.243,0.049-0.331,0.137l-4.479,4.484c-0.135,0.134-0.174,0.336-0.102,0.511s0.242,0.288,0.432,0.288
	h8.94c0.188,0,0.359-0.113,0.433-0.288c0.072-0.175,0.033-0.376-0.101-0.51l-4.461-4.484
	C453.847,292.631,453.728,292.582,453.603,292.582L453.603,292.582z M438.67,292.582c-0.123,0-0.243,0.049-0.331,0.138l-4.475,4.484
	c-0.134,0.134-0.173,0.335-0.101,0.51s0.243,0.288,0.432,0.288h8.946c0.188,0,0.36-0.113,0.433-0.288s0.032-0.376-0.102-0.51
	l-4.471-4.484C438.914,292.63,438.795,292.582,438.67,292.582z M423.74,292.582c-0.125,0-0.244,0.05-0.332,0.138l-4.467,4.484
	c-0.133,0.134-0.173,0.335-0.101,0.51c0.072,0.175,0.243,0.288,0.432,0.288h8.944c0.189,0,0.36-0.113,0.432-0.288
	c0.073-0.175,0.033-0.376-0.101-0.511l-4.477-4.484C423.983,292.63,423.864,292.582,423.74,292.582z M408.807,292.582
	c-0.125,0-0.244,0.05-0.332,0.138l-4.46,4.484c-0.134,0.134-0.173,0.335-0.101,0.51s0.243,0.288,0.432,0.288h8.94
	c0.189,0,0.36-0.113,0.432-0.288c0.073-0.175,0.033-0.377-0.101-0.511l-4.479-4.484C409.051,292.63,408.932,292.582,408.807,292.582
	L408.807,292.582z M393.883,292.582c-0.125,0-0.244,0.05-0.332,0.138l-4.466,4.484c-0.133,0.134-0.173,0.335-0.101,0.51
	c0.072,0.175,0.243,0.288,0.432,0.288h8.938c0.189,0,0.36-0.113,0.432-0.288c0.073-0.175,0.033-0.376-0.101-0.51l-4.472-4.484
	C394.127,292.63,394.007,292.582,393.883,292.582z M378.96,292.582c-0.125,0-0.244,0.049-0.332,0.138l-4.474,4.484
	c-0.134,0.134-0.174,0.335-0.101,0.51c0.072,0.175,0.243,0.288,0.432,0.288h8.94c0.189,0,0.36-0.113,0.432-0.288
	c0.073-0.175,0.033-0.376-0.101-0.51l-4.466-4.484C379.204,292.631,379.084,292.582,378.96,292.582L378.96,292.582z
	 M364.033,292.582c-0.125,0-0.244,0.049-0.331,0.137l-4.475,4.484c-0.134,0.135-0.174,0.336-0.101,0.511
	c0.072,0.175,0.243,0.288,0.432,0.288h8.938c0.189,0,0.359-0.113,0.432-0.288s0.033-0.376-0.101-0.51l-4.463-4.484
	C364.277,292.631,364.158,292.582,364.033,292.582C364.033,292.582,364.033,292.582,364.033,292.582z M330.862,292.582
	c-0.125,0-0.244,0.05-0.332,0.138l-4.461,4.484c-0.133,0.134-0.173,0.335-0.1,0.51s0.243,0.288,0.432,0.288h8.939
	c0.189,0,0.36-0.113,0.432-0.288c0.073-0.175,0.033-0.377-0.101-0.511l-4.479-4.484C331.106,292.63,330.987,292.582,330.862,292.582
	z M315.941,292.582c-0.125,0-0.244,0.05-0.332,0.138l-4.469,4.484c-0.133,0.134-0.173,0.335-0.101,0.51
	c0.072,0.175,0.243,0.288,0.432,0.288h8.938c0.189,0,0.36-0.113,0.432-0.288c0.073-0.175,0.033-0.376-0.101-0.51l-4.47-4.484
	C316.185,292.63,316.065,292.582,315.941,292.582z M301.018,292.582c-0.125,0-0.244,0.049-0.331,0.137l-4.476,4.484
	c-0.134,0.135-0.174,0.336-0.101,0.511c0.072,0.175,0.243,0.288,0.432,0.288h8.939c0.189,0,0.359-0.113,0.432-0.288
	s0.033-0.376-0.101-0.51l-4.463-4.484C301.262,292.631,301.142,292.582,301.018,292.582L301.018,292.582z M286.088,292.582
	c-0.124,0-0.243,0.049-0.331,0.137l-4.478,4.484c-0.134,0.134-0.174,0.336-0.101,0.511c0.072,0.175,0.243,0.288,0.432,0.288h8.943
	c0.189,0,0.359-0.113,0.432-0.288s0.033-0.376-0.101-0.51l-4.465-4.484C286.333,292.631,286.213,292.582,286.088,292.582
	L286.088,292.582z M271.158,292.582c-0.124,0-0.244,0.049-0.332,0.138l-4.473,4.484c-0.134,0.134-0.174,0.335-0.101,0.51
	c0.072,0.175,0.243,0.288,0.432,0.288h8.945c0.189,0,0.36-0.113,0.432-0.288c0.073-0.175,0.033-0.376-0.101-0.51l-4.471-4.484
	C271.401,292.63,271.282,292.582,271.158,292.582z M256.226,292.582c-0.124,0-0.243,0.05-0.331,0.138l-4.467,4.484
	c-0.133,0.134-0.173,0.335-0.101,0.51c0.072,0.175,0.243,0.288,0.432,0.288h8.945c0.189,0,0.36-0.113,0.432-0.288
	c0.073-0.175,0.033-0.377-0.101-0.511l-4.479-4.484C256.469,292.63,256.35,292.582,256.226,292.582z M241.294,292.582
	c-0.125,0-0.244,0.05-0.332,0.138l-4.46,4.484c-0.134,0.134-0.173,0.335-0.101,0.51s0.243,0.288,0.432,0.288h8.938
	c0.189,0,0.36-0.113,0.432-0.288c0.073-0.175,0.033-0.376-0.101-0.511l-4.478-4.484C241.538,292.63,241.419,292.582,241.294,292.582
	z M222.781,289.849c-4.401,0.008-8.058,3.371-8.326,7.655c-0.008,0.129,0.038,0.256,0.126,0.35c0.089,0.095,0.212,0.147,0.341,0.147
	h7.408c0.257,0,0.466-0.207,0.468-0.465c0.017-2.417,0.168-4.827,0.449-7.164c0.016-0.133-0.026-0.267-0.115-0.366
	C223.043,289.906,222.916,289.849,222.781,289.849C222.781,289.849,222.781,289.849,222.781,289.849z M509.148,285.132
	c-0.121,0-0.24,0.045-0.332,0.137l-4.941,4.937c-0.088,0.088-0.137,0.207-0.137,0.331c0,0.125,0.051,0.244,0.139,0.331l4.941,4.926
	c0.09,0.092,0.211,0.137,0.33,0.137s0.238-0.045,0.33-0.136l4.947-4.926c0.088-0.088,0.137-0.207,0.137-0.332
	c0-0.124-0.049-0.243-0.137-0.331l-4.947-4.937C509.387,285.177,509.268,285.132,509.148,285.132z M583.795,285.132
	c-0.119,0-0.24,0.045-0.33,0.137l-4.953,4.937c-0.09,0.088-0.139,0.207-0.139,0.331c0,0.125,0.051,0.244,0.139,0.332l4.953,4.926
	c0.092,0.091,0.211,0.136,0.33,0.136s0.24-0.045,0.33-0.137l3.391-3.379c0.102-0.101,0.15-0.242,0.135-0.384
	c-0.125-1.099-0.287-2.249-0.51-3.622c-0.016-0.097-0.063-0.187-0.131-0.256l-2.885-2.884
	C584.033,285.178,583.914,285.132,583.795,285.132z M479.299,285.132c-0.119,0-0.24,0.045-0.33,0.137l-2.789,2.78
	c-0.068,0.067-0.113,0.155-0.131,0.25c-0.203,1.166-0.377,2.414-0.529,3.817c-0.016,0.142,0.033,0.282,0.135,0.383l3.313,3.295
	c0.092,0.091,0.211,0.136,0.33,0.136s0.24-0.045,0.33-0.137l4.938-4.926c0.088-0.088,0.139-0.206,0.139-0.331
	c0-0.124-0.049-0.243-0.137-0.331l-4.938-4.937C479.537,285.178,479.418,285.132,479.299,285.132z M248.771,285.133
	c-0.124,0-0.243,0.049-0.331,0.137l-4.945,4.936c-0.088,0.088-0.138,0.207-0.137,0.331c0,0.125,0.049,0.244,0.138,0.332l4.945,4.925
	c0.091,0.091,0.21,0.136,0.33,0.136s0.24-0.046,0.331-0.137l4.925-4.925c0.183-0.183,0.183-0.479,0-0.661l-4.925-4.936
	C249.014,285.183,248.895,285.133,248.771,285.133L248.771,285.133z M416.283,285.133c-0.124,0-0.243,0.049-0.331,0.137
	l-4.943,4.936c-0.088,0.088-0.138,0.207-0.137,0.331c0,0.125,0.049,0.244,0.138,0.332l4.943,4.925
	c0.091,0.091,0.21,0.136,0.33,0.136s0.24-0.046,0.331-0.137l4.925-4.925c0.183-0.183,0.183-0.479,0-0.662l-4.925-4.936
	C416.526,285.183,416.407,285.133,416.283,285.133L416.283,285.133z M494.219,285.133c-0.123,0-0.242,0.049-0.33,0.137l-4.928,4.936
	c-0.182,0.184-0.182,0.479,0,0.662l4.928,4.925c0.092,0.091,0.211,0.137,0.33,0.137c0.121,0,0.24-0.045,0.332-0.137l4.934-4.925
	c0.088-0.088,0.137-0.207,0.137-0.331s-0.049-0.243-0.137-0.331l-4.934-4.936C494.463,285.182,494.344,285.133,494.219,285.133z
	 M446.129,285.133c-0.124,0-0.243,0.049-0.33,0.137l-4.928,4.936c-0.183,0.184-0.183,0.479,0,0.662l4.928,4.925
	c0.092,0.091,0.212,0.137,0.332,0.137c0.119,0,0.238-0.045,0.33-0.137l4.939-4.925c0.088-0.087,0.138-0.206,0.138-0.331
	c0.001-0.124-0.05-0.243-0.138-0.331l-4.94-4.936C446.372,285.182,446.254,285.133,446.129,285.133z M263.695,285.133
	c-0.124,0-0.243,0.049-0.331,0.137l-4.938,4.936c-0.088,0.088-0.137,0.207-0.137,0.331c0,0.125,0.05,0.243,0.138,0.331l4.938,4.925
	c0.091,0.092,0.211,0.137,0.331,0.137s0.239-0.045,0.331-0.137l4.931-4.925c0.088-0.088,0.137-0.207,0.138-0.331
	c0-0.124-0.049-0.243-0.137-0.331l-4.931-4.936C263.938,285.182,263.819,285.133,263.695,285.133L263.695,285.133z M338.338,285.133
	c-0.124,0-0.243,0.049-0.331,0.137l-4.943,4.936c-0.088,0.088-0.138,0.207-0.137,0.331c0,0.125,0.049,0.244,0.138,0.332l4.944,4.925
	c0.091,0.091,0.21,0.136,0.33,0.136s0.24-0.046,0.331-0.137l3.38-3.38c0.1-0.1,0.149-0.239,0.134-0.379
	c-0.121-1.174-0.292-2.396-0.51-3.629c-0.017-0.095-0.062-0.182-0.129-0.249l-2.875-2.885
	C338.582,285.183,338.463,285.133,338.338,285.133L338.338,285.133z M233.838,285.132c-0.12,0-0.239,0.045-0.331,0.137l-2.786,2.779
	c-0.069,0.068-0.115,0.157-0.131,0.253c-0.218,1.29-0.391,2.538-0.531,3.815c-0.015,0.142,0.035,0.282,0.135,0.383l3.313,3.294
	c0.091,0.091,0.211,0.136,0.33,0.136c0.12,0,0.239-0.045,0.331-0.137l4.933-4.925c0.088-0.088,0.137-0.207,0.137-0.331
	c0-0.124-0.049-0.243-0.137-0.331l-4.933-4.937C234.078,285.178,233.958,285.132,233.838,285.132z M308.476,285.133
	c-0.12,0-0.24,0.046-0.331,0.137l-4.934,4.936c-0.088,0.088-0.137,0.207-0.137,0.331c0,0.124,0.049,0.243,0.137,0.331l4.934,4.925
	c0.091,0.092,0.211,0.137,0.331,0.137s0.239-0.045,0.331-0.137l4.941-4.925c0.088-0.087,0.137-0.206,0.137-0.331
	c0-0.124-0.049-0.243-0.137-0.331l-4.941-4.936C308.715,285.179,308.595,285.133,308.476,285.133z M524.084,285.133
	c-0.123,0-0.242,0.049-0.33,0.137l-4.938,4.936c-0.088,0.088-0.137,0.207-0.137,0.331c0,0.125,0.049,0.243,0.139,0.331l4.936,4.925
	c0.092,0.092,0.211,0.137,0.33,0.137c0.121,0,0.24-0.046,0.332-0.137l4.924-4.925c0.184-0.183,0.184-0.479,0-0.661l-4.924-4.936
	C524.328,285.182,524.209,285.133,524.084,285.133L524.084,285.133z M401.353,285.133c-0.12,0-0.239,0.045-0.331,0.137l-4.945,4.936
	c-0.088,0.088-0.138,0.207-0.137,0.331c0,0.125,0.049,0.244,0.138,0.332l4.945,4.925c0.091,0.091,0.21,0.136,0.33,0.136
	s0.239-0.045,0.331-0.137l4.931-4.925c0.088-0.088,0.137-0.207,0.137-0.331c0-0.124-0.049-0.243-0.137-0.331l-4.931-4.936
	C401.592,285.179,401.472,285.133,401.353,285.133z M386.42,285.133c-0.12,0-0.24,0.046-0.331,0.137l-4.937,4.936
	c-0.088,0.088-0.137,0.207-0.137,0.331c0,0.125,0.049,0.243,0.137,0.331l4.937,4.925c0.091,0.092,0.211,0.137,0.331,0.137
	s0.239-0.045,0.331-0.137l4.939-4.925c0.088-0.087,0.137-0.206,0.138-0.331c0-0.124-0.049-0.243-0.137-0.331l-4.939-4.936
	C386.66,285.179,386.54,285.133,386.42,285.133z M356.561,285.133c-0.12,0-0.24,0.046-0.331,0.137l-2.78,2.779
	c-0.068,0.068-0.113,0.156-0.13,0.251c-0.234,1.346-0.406,2.596-0.523,3.82c-0.014,0.14,0.036,0.277,0.135,0.376l3.298,3.296
	c0.091,0.091,0.211,0.137,0.331,0.137s0.239-0.045,0.331-0.137l4.942-4.925c0.088-0.087,0.137-0.206,0.138-0.331
	c0-0.124-0.05-0.243-0.138-0.331l-4.942-4.936C356.8,285.179,356.68,285.133,356.561,285.133z M278.619,285.133
	c-0.125,0-0.243,0.049-0.331,0.137l-4.931,4.936c-0.088,0.088-0.137,0.207-0.137,0.331c0,0.124,0.049,0.243,0.137,0.331l4.93,4.925
	c0.091,0.092,0.211,0.137,0.331,0.137s0.239-0.045,0.331-0.137l4.94-4.925c0.088-0.087,0.137-0.206,0.137-0.331
	c0-0.124-0.049-0.243-0.137-0.331l-4.939-4.936C278.862,285.182,278.743,285.133,278.619,285.133z M568.855,285.133
	c-0.125,0-0.244,0.05-0.332,0.138l-4.924,4.936c-0.184,0.183-0.184,0.479,0,0.661l4.926,4.925c0.092,0.091,0.211,0.137,0.33,0.137
	s0.24-0.045,0.33-0.137l4.939-4.925c0.088-0.087,0.139-0.206,0.139-0.331c0-0.124-0.049-0.243-0.137-0.331l-4.941-4.936
	C569.098,285.182,568.979,285.133,568.855,285.133z M461.059,285.132c-0.121,0-0.24,0.046-0.332,0.137l-4.929,4.937
	c-0.183,0.184-0.183,0.479,0.001,0.662l4.928,4.925c0.092,0.091,0.211,0.137,0.33,0.137s0.24-0.045,0.332-0.137l3.387-3.38
	c0.1-0.1,0.15-0.24,0.135-0.381c-0.131-1.23-0.299-2.45-0.496-3.625c-0.018-0.096-0.063-0.185-0.133-0.253l-2.893-2.885
	C461.297,285.177,461.178,285.132,461.059,285.132z M431.207,285.133c-0.124,0-0.243,0.049-0.331,0.137l-4.937,4.936
	c-0.088,0.088-0.137,0.207-0.137,0.331c0,0.125,0.05,0.243,0.138,0.331l4.937,4.925c0.091,0.092,0.211,0.137,0.331,0.137
	s0.239-0.045,0.331-0.137l4.934-4.925c0.088-0.088,0.137-0.207,0.137-0.331c0.001-0.124-0.049-0.243-0.137-0.331l-4.933-4.936
	C431.45,285.182,431.331,285.133,431.207,285.133z M293.544,285.133c-0.124,0-0.243,0.05-0.331,0.137l-4.926,4.936
	c-0.183,0.184-0.183,0.479,0,0.662l4.926,4.925c0.091,0.091,0.211,0.137,0.331,0.137s0.239-0.045,0.33-0.136l4.944-4.925
	c0.088-0.088,0.138-0.207,0.138-0.332c0-0.124-0.049-0.243-0.137-0.331l-4.944-4.936
	C293.788,285.182,293.668,285.133,293.544,285.133z M538.994,285.132c-0.119,0-0.24,0.046-0.33,0.137l-4.928,4.937
	c-0.182,0.184-0.182,0.479,0,0.662l4.928,4.925c0.092,0.091,0.211,0.137,0.33,0.137s0.238-0.045,0.33-0.136l4.955-4.925
	c0.088-0.088,0.137-0.207,0.137-0.332c0-0.124-0.049-0.243-0.137-0.331l-4.955-4.937
	C539.234,285.177,539.113,285.132,538.994,285.132z M553.943,285.133c-0.119,0-0.24,0.045-0.332,0.137l-4.945,4.936
	c-0.088,0.088-0.137,0.207-0.137,0.331c0,0.125,0.049,0.244,0.137,0.332l4.947,4.925c0.09,0.091,0.211,0.136,0.33,0.136
	s0.238-0.046,0.33-0.137l4.926-4.925c0.184-0.183,0.184-0.479,0-0.662l-4.926-4.936
	C554.184,285.179,554.063,285.133,553.943,285.133z M371.49,285.133c-0.12,0-0.24,0.046-0.331,0.137l-4.929,4.936
	c-0.183,0.184-0.183,0.479,0,0.662l4.929,4.925c0.091,0.091,0.211,0.137,0.331,0.137s0.239-0.045,0.33-0.136l4.943-4.925
	c0.088-0.088,0.138-0.207,0.138-0.332c0-0.124-0.049-0.243-0.137-0.331l-4.943-4.936C371.729,285.178,371.61,285.133,371.49,285.133
	z M323.407,285.133c-0.12,0-0.239,0.045-0.331,0.137l-4.943,4.936c-0.088,0.088-0.138,0.207-0.137,0.331
	c0,0.125,0.049,0.244,0.138,0.332l4.943,4.925c0.091,0.091,0.21,0.136,0.33,0.136s0.239-0.045,0.331-0.137l4.933-4.925
	c0.088-0.088,0.137-0.207,0.138-0.331c0-0.124-0.049-0.243-0.137-0.331l-4.933-4.936
	C323.647,285.179,323.527,285.133,323.407,285.133z M576.332,277.663c-0.125,0-0.244,0.049-0.332,0.137l-4.936,4.932
	c-0.088,0.088-0.137,0.207-0.137,0.331s0.049,0.243,0.137,0.331l4.936,4.939c0.088,0.088,0.207,0.137,0.332,0.137
	s0.244-0.05,0.33-0.138l4.926-4.939c0.182-0.183,0.182-0.479,0-0.661l-4.926-4.932C576.574,277.711,576.455,277.663,576.332,277.663
	L576.332,277.663z M501.695,277.663c-0.119,0-0.24,0.045-0.33,0.137l-4.945,4.932c-0.09,0.087-0.139,0.207-0.139,0.331
	s0.049,0.243,0.137,0.331l4.945,4.939c0.088,0.088,0.207,0.137,0.332,0.137s0.244-0.05,0.33-0.138l4.926-4.939
	c0.184-0.183,0.184-0.479,0-0.661l-4.926-4.932C501.934,277.708,501.814,277.663,501.695,277.663z M453.603,277.662
	c-0.12,0-0.239,0.045-0.331,0.137l-4.945,4.933c-0.088,0.088-0.137,0.207-0.137,0.331s0.049,0.243,0.137,0.331l4.945,4.939
	c0.088,0.088,0.207,0.137,0.332,0.137c0.123,0,0.242-0.05,0.33-0.138l4.93-4.939c0.182-0.183,0.182-0.479-0.001-0.661l-4.929-4.933
	C453.842,277.708,453.723,277.662,453.603,277.662z M423.74,277.662c-0.12,0-0.239,0.046-0.331,0.137l-4.934,4.933
	c-0.183,0.183-0.183,0.479,0,0.662l4.934,4.939c0.088,0.088,0.207,0.137,0.331,0.137l0,0c0.124,0,0.243-0.049,0.331-0.137
	l4.943-4.939c0.088-0.088,0.138-0.207,0.137-0.331c0-0.124-0.049-0.243-0.137-0.331l-4.943-4.933
	C423.979,277.707,423.86,277.662,423.74,277.662z M378.96,277.663c-0.12,0-0.239,0.045-0.331,0.137l-4.94,4.932
	c-0.088,0.088-0.137,0.207-0.138,0.331c0,0.124,0.049,0.243,0.137,0.331l4.94,4.939c0.088,0.088,0.207,0.137,0.331,0.137
	c0.125,0,0.244-0.049,0.331-0.137l4.931-4.939c0.183-0.184,0.183-0.479,0-0.662l-4.931-4.932
	C379.2,277.708,379.08,277.663,378.96,277.663z M330.863,277.663c-0.12,0-0.24,0.046-0.331,0.137l-4.925,4.932
	c-0.183,0.183-0.183,0.479,0,0.661l4.927,4.939c0.088,0.088,0.207,0.138,0.331,0.138h0c0.124,0,0.243-0.049,0.331-0.137l4.943-4.939
	c0.088-0.088,0.138-0.207,0.137-0.331c0-0.125-0.049-0.243-0.137-0.331l-4.945-4.932
	C331.102,277.708,330.982,277.663,330.863,277.663z M301.018,277.663c-0.12,0-0.239,0.045-0.331,0.137l-4.942,4.932
	c-0.088,0.088-0.137,0.207-0.137,0.331c0,0.124,0.049,0.243,0.137,0.331l4.942,4.939c0.088,0.088,0.207,0.137,0.332,0.137
	c0.124,0,0.243-0.049,0.331-0.138l4.929-4.939c0.182-0.183,0.182-0.479,0-0.661l-4.928-4.932
	C301.257,277.708,301.137,277.663,301.018,277.663z M256.226,277.662c-0.12,0-0.24,0.046-0.331,0.137l-4.931,4.933
	c-0.183,0.183-0.183,0.479,0,0.662l4.931,4.939c0.087,0.088,0.207,0.137,0.331,0.137h0c0.124,0,0.243-0.049,0.331-0.137l4.945-4.939
	c0.088-0.088,0.138-0.207,0.137-0.331c0-0.124-0.049-0.243-0.137-0.331l-4.945-4.933
	C256.465,277.707,256.346,277.662,256.226,277.662z M531.549,277.662c-0.119,0-0.24,0.045-0.33,0.137l-4.949,4.933
	c-0.09,0.087-0.139,0.206-0.139,0.331c0,0.124,0.049,0.243,0.137,0.331l4.951,4.938c0.09,0.092,0.211,0.137,0.33,0.137
	s0.238-0.046,0.33-0.137l4.938-4.938c0.088-0.088,0.137-0.207,0.137-0.331s-0.049-0.243-0.137-0.331l-4.938-4.933
	C531.787,277.708,531.668,277.662,531.549,277.662z M561.395,277.662c-0.121,0-0.24,0.045-0.332,0.137l-4.939,4.933
	c-0.088,0.088-0.137,0.207-0.137,0.331s0.049,0.243,0.137,0.331l4.939,4.938c0.092,0.091,0.211,0.137,0.332,0.137
	c0.119,0,0.238-0.045,0.33-0.137l4.949-4.938c0.088-0.088,0.137-0.207,0.137-0.331c0-0.125-0.049-0.244-0.137-0.331l-4.949-4.933
	C561.633,277.707,561.514,277.662,561.395,277.662z M546.467,277.663c-0.123,0-0.242,0.049-0.33,0.137l-4.926,4.932
	c-0.182,0.183-0.182,0.479,0,0.661l4.926,4.938c0.088,0.089,0.207,0.138,0.33,0.138c0.125,0,0.244-0.049,0.332-0.138l4.928-4.938
	c0.182-0.183,0.182-0.479,0-0.661l-4.928-4.932C546.711,277.711,546.592,277.663,546.467,277.663z M408.808,277.663
	c-0.12,0-0.24,0.046-0.331,0.137l-4.925,4.932c-0.183,0.183-0.183,0.479,0,0.661l4.925,4.938c0.088,0.088,0.207,0.138,0.331,0.138h0
	c0.124,0,0.243-0.049,0.331-0.137l4.945-4.938c0.088-0.088,0.138-0.207,0.138-0.331c0-0.124-0.05-0.243-0.138-0.331l-4.945-4.932
	C409.047,277.708,408.927,277.663,408.808,277.663z M516.607,277.663c-0.119,0-0.238,0.046-0.33,0.137l-4.928,4.932
	c-0.182,0.183-0.182,0.479,0,0.661l4.928,4.938c0.088,0.088,0.205,0.138,0.33,0.138l0,0c0.125,0,0.244-0.049,0.332-0.137
	l4.941-4.938c0.088-0.088,0.137-0.207,0.137-0.331s-0.049-0.243-0.137-0.331l-4.941-4.932
	C516.848,277.708,516.727,277.663,516.607,277.663z M393.883,277.663c-0.12,0-0.24,0.046-0.331,0.137l-4.931,4.932
	c-0.183,0.183-0.183,0.479,0,0.662l4.931,4.938c0.088,0.088,0.207,0.137,0.331,0.137l0,0c0.124,0,0.243-0.049,0.331-0.137
	l4.938-4.938c0.088-0.088,0.137-0.207,0.137-0.331c0-0.124-0.049-0.243-0.137-0.331l-4.938-4.932
	C394.123,277.708,394.003,277.663,393.883,277.663z M364.033,277.663c-0.12,0-0.239,0.045-0.331,0.137l-4.941,4.932
	c-0.088,0.088-0.137,0.207-0.137,0.331c0,0.124,0.049,0.243,0.137,0.331l4.941,4.938c0.087,0.088,0.207,0.137,0.331,0.137
	c0.124,0,0.243-0.049,0.331-0.137l4.928-4.938c0.183-0.184,0.183-0.479,0-0.662l-4.928-4.932
	C364.273,277.708,364.153,277.663,364.033,277.663z M315.941,277.663c-0.12,0-0.239,0.046-0.331,0.137l-4.934,4.932
	c-0.183,0.183-0.183,0.479,0,0.662l4.934,4.938c0.088,0.088,0.207,0.137,0.331,0.137s0.243-0.049,0.331-0.137l4.935-4.938
	c0.088-0.088,0.137-0.207,0.137-0.331c0-0.124-0.05-0.243-0.137-0.331l-4.936-4.932C316.18,277.708,316.061,277.663,315.941,277.663
	z M286.088,277.662c-0.12,0-0.239,0.045-0.331,0.137l-4.944,4.933c-0.088,0.088-0.137,0.207-0.137,0.331
	c0,0.124,0.049,0.243,0.137,0.331l4.944,4.938c0.088,0.088,0.207,0.137,0.331,0.137s0.243-0.049,0.331-0.137l4.93-4.938
	c0.183-0.184,0.183-0.479,0-0.662l-4.93-4.933C286.328,277.708,286.208,277.662,286.088,277.662z M241.295,277.663
	c-0.12,0-0.24,0.046-0.331,0.137l-4.925,4.932c-0.183,0.183-0.183,0.479,0,0.661l4.925,4.938c0.088,0.088,0.207,0.138,0.331,0.138h0
	c0.124,0,0.243-0.049,0.331-0.137l4.944-4.938c0.088-0.088,0.138-0.207,0.137-0.331c0-0.124-0.049-0.243-0.137-0.331l-4.944-4.932
	C241.534,277.708,241.415,277.663,241.295,277.663z M438.67,277.662c-0.119,0-0.238,0.045-0.33,0.137l-4.939,4.933
	c-0.088,0.088-0.138,0.207-0.139,0.331c0,0.124,0.05,0.243,0.138,0.331l4.94,4.938c0.092,0.091,0.211,0.137,0.33,0.137
	c0.12,0,0.24-0.046,0.332-0.137l4.936-4.938c0.088-0.088,0.137-0.207,0.137-0.331s-0.049-0.243-0.137-0.331l-4.937-4.933
	C438.91,277.708,438.79,277.662,438.67,277.662z M271.158,277.662c-0.12,0-0.239,0.045-0.331,0.137l-4.939,4.933
	c-0.088,0.088-0.137,0.207-0.137,0.331c0,0.124,0.049,0.243,0.137,0.331l4.939,4.938c0.092,0.091,0.211,0.137,0.331,0.137
	s0.24-0.046,0.331-0.137l4.937-4.938c0.088-0.088,0.137-0.207,0.137-0.331c0-0.124-0.049-0.243-0.137-0.331l-4.937-4.933
	C271.397,277.708,271.277,277.662,271.158,277.662z M486.752,277.662c-0.119,0-0.238,0.046-0.33,0.137l-4.934,4.933
	c-0.184,0.183-0.184,0.479,0,0.662l4.934,4.938c0.092,0.091,0.211,0.137,0.33,0.137c0.121,0,0.24-0.045,0.332-0.137l4.945-4.938
	c0.088-0.088,0.137-0.207,0.137-0.331s-0.049-0.243-0.137-0.331l-4.947-4.933C486.992,277.707,486.871,277.662,486.752,277.662z
	 M591.951,270.244c-0.893,0-1.781,0.143-2.641,0.423c-0.127,0.042-0.23,0.136-0.283,0.259c-0.055,0.122-0.053,0.262,0.004,0.384
	c2.166,4.671,3.754,9.559,4.717,14.526c0.025,0.129,0.104,0.241,0.215,0.31c0.074,0.046,0.158,0.069,0.244,0.069
	c0.043,0,0.086-0.006,0.129-0.018c2.133-0.698,3.854-2.152,4.875-4.104c1.025-1.953,1.215-4.17,0.537-6.242
	C598.676,272.499,595.541,270.244,591.951,270.244z M225.768,270.244c-3.588,0-6.727,2.252-7.811,5.605
	c-1.385,4.265,1.038,8.903,5.4,10.341c0.048,0.016,0.097,0.023,0.146,0.023c0.083,0,0.164-0.021,0.237-0.064
	c0.116-0.067,0.197-0.183,0.223-0.314c0.969-4.997,2.557-9.885,4.717-14.528c0.057-0.121,0.058-0.262,0.005-0.385
	c-0.054-0.122-0.158-0.217-0.285-0.258C227.538,270.385,226.652,270.244,225.768,270.244z M538.994,270.201
	c-0.119,0-0.238,0.046-0.33,0.137l-4.928,4.934c-0.182,0.183-0.182,0.479,0,0.661l4.926,4.948c0.088,0.088,0.207,0.138,0.332,0.138
	l0,0c0.125,0,0.244-0.049,0.332-0.137l4.951-4.95c0.088-0.088,0.137-0.207,0.137-0.331c0-0.125-0.049-0.244-0.137-0.332
	l-4.953-4.932C539.234,270.246,539.113,270.201,538.994,270.201z M509.148,270.201c-0.119,0-0.238,0.045-0.33,0.137l-4.943,4.934
	c-0.088,0.088-0.137,0.207-0.137,0.331s0.049,0.243,0.137,0.331l4.943,4.948c0.088,0.088,0.207,0.137,0.33,0.137l0,0
	c0.125,0,0.244-0.049,0.332-0.137l4.947-4.948c0.088-0.088,0.137-0.207,0.137-0.331c0-0.125-0.049-0.244-0.139-0.331l-4.947-4.934
	C509.389,270.246,509.268,270.201,509.148,270.201z M481.514,272.501c-0.148,0.024-0.275,0.118-0.344,0.253
	c-1.137,2.271-2.125,4.634-2.939,7.02c-0.057,0.169-0.014,0.355,0.113,0.482l0.623,0.625c0.088,0.088,0.207,0.137,0.332,0.137
	c0.123,0,0.242-0.049,0.33-0.138l4.938-4.948c0.088-0.088,0.137-0.206,0.137-0.331c0-0.124-0.051-0.243-0.139-0.33l-2.645-2.639
	c-0.088-0.089-0.207-0.137-0.33-0.137C481.564,272.496,481.539,272.498,481.514,272.501z M401.353,270.201
	c-0.12,0-0.239,0.045-0.331,0.137l-4.946,4.934c-0.088,0.088-0.137,0.206-0.137,0.331c0,0.124,0.049,0.243,0.137,0.331l4.946,4.948
	c0.088,0.088,0.207,0.137,0.332,0.137c0.124,0,0.243-0.05,0.331-0.138l4.932-4.948c0.182-0.183,0.182-0.479,0-0.661l-4.932-4.934
	C401.592,270.247,401.472,270.201,401.353,270.201z M386.42,270.201c-0.12,0-0.239,0.046-0.331,0.137l-4.937,4.934
	c-0.183,0.183-0.183,0.479,0,0.661l4.936,4.948c0.088,0.089,0.207,0.138,0.332,0.138c0.124,0,0.243-0.049,0.331-0.137l4.94-4.948
	c0.183-0.184,0.183-0.479,0-0.662l-4.94-4.934C386.66,270.246,386.54,270.201,386.42,270.201z M323.407,270.201
	c-0.12,0-0.239,0.045-0.331,0.137l-4.943,4.934c-0.088,0.088-0.137,0.207-0.137,0.331c0,0.124,0.049,0.243,0.137,0.331l4.943,4.948
	c0.088,0.088,0.207,0.137,0.331,0.137c0.125,0,0.244-0.05,0.332-0.138l4.934-4.948c0.182-0.183,0.182-0.479,0-0.661l-4.934-4.934
	C323.647,270.247,323.527,270.201,323.407,270.201z M308.476,270.201c-0.12,0-0.24,0.046-0.331,0.137l-4.935,4.934
	c-0.183,0.183-0.183,0.479,0,0.661l4.935,4.948c0.088,0.088,0.207,0.138,0.332,0.138l0,0c0.124,0,0.243-0.049,0.331-0.137
	l4.942-4.948c0.088-0.088,0.137-0.207,0.137-0.331c0-0.124-0.05-0.243-0.138-0.331l-4.942-4.934
	C308.715,270.246,308.595,270.201,308.476,270.201z M358.785,272.502c-0.148,0.024-0.276,0.118-0.343,0.253
	c-1.135,2.268-2.124,4.63-2.941,7.02c-0.058,0.168-0.015,0.354,0.11,0.48l0.618,0.623c0.088,0.089,0.207,0.139,0.332,0.139
	c0,0,0,0,0.001,0c0.124,0,0.243-0.049,0.331-0.137l4.942-4.947c0.088-0.088,0.137-0.207,0.137-0.331
	c0-0.124-0.049-0.243-0.137-0.331l-2.643-2.638c-0.088-0.089-0.208-0.137-0.331-0.137
	C358.835,272.497,358.81,272.499,358.785,272.502z M553.943,270.201c-0.119,0-0.24,0.045-0.33,0.137l-4.947,4.934
	c-0.088,0.087-0.139,0.206-0.139,0.331c0,0.124,0.049,0.243,0.137,0.331l4.947,4.947c0.088,0.088,0.207,0.137,0.332,0.137l0,0
	c0.125,0,0.244-0.05,0.332-0.138l4.926-4.947c0.182-0.183,0.182-0.479-0.002-0.661l-4.926-4.934
	C554.184,270.247,554.063,270.201,553.943,270.201z M248.771,270.202c-0.12,0-0.239,0.045-0.331,0.137l-4.945,4.933
	c-0.088,0.087-0.137,0.206-0.137,0.331c0,0.124,0.049,0.243,0.137,0.331l4.945,4.947c0.088,0.088,0.207,0.137,0.331,0.137h0
	c0.125,0,0.244-0.05,0.331-0.138l4.925-4.947c0.182-0.183,0.182-0.479,0-0.661l-4.925-4.933
	C249.01,270.248,248.89,270.202,248.771,270.202z M568.855,270.202c-0.125,0-0.244,0.049-0.332,0.137l-4.924,4.933
	c-0.184,0.183-0.184,0.479-0.002,0.661l4.926,4.947c0.088,0.088,0.207,0.138,0.332,0.138l0,0c0.123,0,0.242-0.049,0.33-0.137
	l4.941-4.947c0.088-0.088,0.137-0.207,0.137-0.331s-0.049-0.243-0.137-0.331l-4.941-4.933
	C569.098,270.25,568.979,270.202,568.855,270.202z M524.084,270.202c-0.123,0-0.242,0.049-0.33,0.137l-4.938,4.933
	c-0.182,0.183-0.182,0.479,0,0.661l4.938,4.948c0.088,0.088,0.207,0.137,0.33,0.137c0.125,0,0.244-0.05,0.332-0.138l4.926-4.947
	c0.182-0.183,0.182-0.479-0.002-0.661l-4.924-4.933C524.328,270.25,524.209,270.202,524.084,270.202L524.084,270.202z
	 M494.219,270.202c-0.123,0-0.242,0.049-0.33,0.137l-4.928,4.933c-0.184,0.183-0.184,0.479-0.002,0.661l4.928,4.947
	c0.088,0.088,0.207,0.138,0.332,0.138l0,0c0.125,0,0.244-0.049,0.332-0.138l4.934-4.947c0.184-0.183,0.184-0.479,0-0.661
	l-4.934-4.933C494.463,270.25,494.344,270.202,494.219,270.202z M446.131,270.202c-0.12,0-0.24,0.046-0.332,0.137l-4.928,4.933
	c-0.184,0.183-0.184,0.479-0.001,0.661l4.929,4.947c0.088,0.088,0.207,0.138,0.331,0.138h0.001c0.123,0,0.242-0.049,0.33-0.137
	l4.941-4.947c0.088-0.088,0.137-0.207,0.137-0.331s-0.05-0.243-0.138-0.331l-4.94-4.933
	C446.369,270.247,446.25,270.202,446.131,270.202z M431.207,270.202c-0.12,0-0.239,0.046-0.331,0.137l-4.937,4.933
	c-0.183,0.183-0.183,0.479,0,0.662l4.937,4.947c0.087,0.088,0.207,0.137,0.331,0.137c0.125,0,0.244-0.049,0.332-0.138l4.935-4.947
	c0.182-0.183,0.182-0.479-0.001-0.661l-4.934-4.933C431.446,270.248,431.326,270.202,431.207,270.202z M416.283,270.202
	c-0.12,0-0.239,0.045-0.331,0.137l-4.943,4.933c-0.088,0.088-0.137,0.206-0.137,0.331c0,0.124,0.049,0.243,0.137,0.331l4.943,4.947
	c0.088,0.088,0.207,0.137,0.332,0.137s0.244-0.05,0.331-0.138l4.926-4.949c0.182-0.183,0.182-0.479,0-0.661l-4.926-4.931
	C416.522,270.248,416.402,270.202,416.283,270.202z M371.49,270.201c-0.12,0-0.24,0.046-0.331,0.137l-4.93,4.934
	c-0.183,0.183-0.183,0.479,0,0.661l4.93,4.947c0.088,0.088,0.207,0.138,0.331,0.138c0,0,0,0,0,0c0.124,0,0.243-0.049,0.331-0.137
	l4.944-4.947c0.088-0.088,0.137-0.207,0.137-0.331c0-0.124-0.05-0.243-0.138-0.331l-4.944-4.934
	C371.729,270.246,371.61,270.201,371.49,270.201z M293.545,270.201c-0.12,0-0.24,0.046-0.331,0.137l-4.928,4.934
	c-0.183,0.183-0.183,0.479,0,0.661l4.928,4.947c0.088,0.088,0.207,0.138,0.331,0.138h0c0.124,0,0.243-0.049,0.331-0.137l4.944-4.949
	c0.088-0.088,0.137-0.207,0.137-0.331c0-0.125-0.049-0.244-0.137-0.331l-4.944-4.932
	C293.784,270.246,293.665,270.201,293.545,270.201z M278.619,270.202c-0.12,0-0.24,0.046-0.331,0.137l-4.931,4.933
	c-0.183,0.183-0.183,0.479,0,0.661l4.931,4.947c0.088,0.089,0.207,0.138,0.332,0.138l0,0c0.124,0,0.243-0.049,0.331-0.137
	l4.94-4.947c0.088-0.088,0.137-0.207,0.137-0.331c0-0.124-0.049-0.243-0.137-0.331l-4.94-4.933
	C278.858,270.247,278.738,270.202,278.619,270.202z M263.696,270.202c-0.12,0-0.239,0.045-0.331,0.137l-4.939,4.933
	c-0.183,0.183-0.183,0.479,0,0.662l4.939,4.947c0.088,0.088,0.207,0.137,0.331,0.137c0.125,0,0.244-0.049,0.332-0.138l4.931-4.947
	c0.182-0.183,0.182-0.479,0-0.661l-4.931-4.933C263.936,270.248,263.815,270.202,263.696,270.202z M236.059,272.501
	c-0.148,0.023-0.276,0.117-0.343,0.252c-1.133,2.254-2.123,4.616-2.943,7.021c-0.058,0.169-0.014,0.356,0.112,0.482l0.624,0.624
	c0.088,0.088,0.207,0.137,0.331,0.137c0.125,0,0.244-0.049,0.332-0.138l4.933-4.947c0.182-0.183,0.182-0.479,0-0.661l-2.638-2.639
	c-0.088-0.088-0.208-0.137-0.331-0.137C236.109,272.496,236.084,272.498,236.059,272.501z M458.824,272.438
	c-0.123,0-0.242,0.049-0.332,0.137l-2.695,2.694c-0.182,0.183-0.182,0.479,0,0.661l4.928,4.948c0.088,0.088,0.207,0.138,0.332,0.138
	l0,0c0.125,0,0.244-0.05,0.332-0.139l0.691-0.699c0.125-0.127,0.166-0.313,0.109-0.481c-0.813-2.354-1.804-4.71-2.947-7
	c-0.066-0.135-0.195-0.229-0.344-0.253C458.874,272.44,458.849,272.438,458.824,272.438z M581.539,272.434
	c-0.123,0-0.242,0.049-0.332,0.137l-2.697,2.697c-0.088,0.088-0.137,0.207-0.137,0.331s0.049,0.243,0.137,0.331l4.951,4.948
	c0.088,0.088,0.207,0.137,0.332,0.137h0.002c0.125-0.001,0.244-0.051,0.332-0.141l0.684-0.698c0.123-0.126,0.166-0.311,0.109-0.478
	c-0.809-2.379-1.807-4.737-2.965-7.01c-0.068-0.133-0.195-0.226-0.344-0.249C581.588,272.436,581.563,272.434,581.539,272.434z
	 M336.089,272.436c-0.123,0-0.243,0.049-0.331,0.137l-2.696,2.695c-0.183,0.183-0.183,0.479,0,0.662l4.942,4.948
	c0.088,0.088,0.207,0.137,0.331,0.137c0.001,0,0.001,0,0.002,0c0.125,0,0.245-0.051,0.332-0.14l0.684-0.697
	c0.124-0.127,0.166-0.313,0.109-0.479c-0.819-2.389-1.813-4.746-2.956-7.006c-0.067-0.134-0.195-0.228-0.343-0.251
	C336.139,272.438,336.114,272.436,336.089,272.436z M470.154,270.32c-1.164,0.154-2.311,0.563-3.314,1.181
	c-0.199,0.123-0.277,0.375-0.182,0.59c1.24,2.767,2.287,5.638,3.111,8.532c0.059,0.201,0.242,0.34,0.451,0.34
	s0.393-0.139,0.449-0.34c0.828-2.906,1.875-5.777,3.113-8.532c0.096-0.214,0.018-0.467-0.182-0.59
	c-1.004-0.619-2.154-1.027-3.324-1.181c-0.02-0.003-0.041-0.004-0.061-0.004C470.195,270.316,470.176,270.317,470.154,270.32z
	 M347.432,270.32c-1.163,0.153-2.312,0.562-3.323,1.181c-0.201,0.123-0.279,0.376-0.182,0.591c1.243,2.77,2.292,5.64,3.115,8.528
	c0.058,0.201,0.241,0.34,0.45,0.34s0.393-0.139,0.45-0.34c0.822-2.887,1.869-5.756,3.113-8.528c0.097-0.215,0.019-0.468-0.182-0.591
	c-1.012-0.619-2.16-1.027-3.32-1.181c-0.02-0.003-0.041-0.004-0.061-0.004S347.452,270.317,347.432,270.32z M561.395,262.735
	c-0.121,0-0.24,0.046-0.332,0.137l-4.939,4.936c-0.088,0.088-0.137,0.207-0.137,0.331s0.049,0.243,0.137,0.331l4.939,4.94
	c0.092,0.091,0.211,0.137,0.332,0.137c0.119,0,0.238-0.045,0.33-0.137l4.949-4.94c0.088-0.088,0.137-0.207,0.137-0.331
	s-0.049-0.243-0.137-0.331l-4.949-4.936C561.633,262.78,561.514,262.735,561.395,262.735z M453.045,263.287
	c-0.124,0-0.243,0.049-0.331,0.137l-4.388,4.384c-0.088,0.088-0.137,0.207-0.137,0.331s0.049,0.243,0.137,0.331l4.945,4.939
	c0.088,0.088,0.207,0.137,0.33,0.137h0.001c0.124,0,0.243-0.05,0.331-0.138l3.432-3.445c0.15-0.151,0.18-0.385,0.07-0.568
	c-1.215-2.055-2.568-4.049-4.021-5.926c-0.082-0.106-0.205-0.173-0.34-0.181C453.064,263.287,453.055,263.287,453.045,263.287z
	 M408.808,262.736c-0.12,0-0.24,0.046-0.331,0.137l-4.925,4.935c-0.183,0.183-0.183,0.479,0,0.661l4.925,4.939
	c0.088,0.088,0.207,0.138,0.331,0.138h0c0.124,0,0.243-0.049,0.331-0.137l4.945-4.939c0.088-0.088,0.138-0.207,0.138-0.331
	c0-0.124-0.05-0.243-0.138-0.331l-4.945-4.935C409.047,262.781,408.927,262.736,408.808,262.736z M575.773,263.286
	c-0.123,0-0.242,0.049-0.33,0.137l-4.379,4.385c-0.184,0.184-0.184,0.479,0,0.662l4.936,4.939c0.088,0.088,0.207,0.137,0.332,0.137
	s0.244-0.05,0.33-0.138l3.434-3.445c0.152-0.151,0.182-0.385,0.072-0.568c-1.254-2.116-2.607-4.11-4.025-5.929
	c-0.082-0.105-0.205-0.171-0.34-0.179C575.793,263.286,575.783,263.286,575.773,263.286z M531.549,262.735
	c-0.119,0-0.24,0.045-0.33,0.137l-4.949,4.936c-0.09,0.088-0.139,0.207-0.139,0.331s0.049,0.243,0.137,0.331l4.949,4.939
	c0.092,0.092,0.213,0.137,0.332,0.137s0.238-0.046,0.33-0.137l4.938-4.939c0.182-0.183,0.182-0.479,0-0.662l-4.938-4.936
	C531.787,262.781,531.668,262.735,531.549,262.735z M516.607,262.736c-0.123,0-0.242,0.049-0.33,0.137l-4.928,4.935
	c-0.182,0.183-0.182,0.479,0,0.661l4.928,4.939c0.086,0.088,0.205,0.138,0.33,0.138l0,0c0.125,0,0.244-0.049,0.332-0.137
	l4.941-4.939c0.088-0.088,0.137-0.207,0.137-0.331s-0.049-0.243-0.137-0.331l-4.941-4.935
	C516.852,262.785,516.732,262.736,516.607,262.736z M501.695,262.736c-0.121,0-0.24,0.045-0.332,0.137l-4.943,4.935
	c-0.09,0.088-0.139,0.207-0.139,0.331s0.049,0.243,0.137,0.331l4.945,4.939c0.088,0.088,0.207,0.137,0.332,0.137
	s0.244-0.05,0.33-0.138l4.926-4.939c0.184-0.183,0.184-0.479,0-0.661l-4.926-4.935C501.936,262.782,501.814,262.736,501.695,262.736
	z M487.324,263.337c-0.133,0.009-0.258,0.074-0.34,0.181c-1.496,1.941-2.846,3.94-4.014,5.941c-0.107,0.184-0.076,0.416,0.074,0.566
	l3.377,3.383c0.088,0.088,0.207,0.137,0.332,0.137l0,0c0.123,0,0.242-0.049,0.33-0.137l4.945-4.939
	c0.088-0.088,0.137-0.207,0.137-0.331s-0.049-0.243-0.137-0.331l-4.344-4.334c-0.088-0.088-0.207-0.137-0.33-0.137
	C487.346,263.336,487.334,263.336,487.324,263.337z M438.67,262.736c-0.119,0-0.238,0.045-0.33,0.137l-4.939,4.935
	c-0.088,0.088-0.138,0.207-0.139,0.331c0,0.124,0.05,0.243,0.138,0.331l4.94,4.939c0.088,0.088,0.207,0.137,0.33,0.137
	c0.125,0,0.244-0.049,0.332-0.137l4.936-4.939c0.184-0.183,0.184-0.479,0-0.662l-4.936-4.935
	C438.91,262.782,438.79,262.736,438.67,262.736z M423.74,262.736c-0.12,0-0.24,0.046-0.331,0.137l-4.934,4.935
	c-0.183,0.183-0.183,0.479,0,0.662l4.934,4.939c0.088,0.088,0.207,0.137,0.331,0.137l0,0c0.124,0,0.243-0.049,0.331-0.137
	l4.942-4.939c0.087-0.088,0.137-0.207,0.137-0.331c0-0.124-0.049-0.243-0.137-0.331l-4.942-4.935
	C423.979,262.781,423.86,262.736,423.74,262.736z M393.883,262.736c-0.125,0-0.243,0.049-0.331,0.137l-4.931,4.935
	c-0.183,0.183-0.183,0.479,0,0.662l4.932,4.939c0.088,0.088,0.207,0.137,0.331,0.137l0,0c0.124,0,0.243-0.049,0.331-0.137
	l4.937-4.939c0.088-0.088,0.137-0.207,0.137-0.331c0-0.124-0.049-0.243-0.137-0.331l-4.938-4.935
	C394.126,262.785,394.007,262.736,393.883,262.736z M378.96,262.736c-0.12,0-0.239,0.045-0.331,0.137l-4.94,4.935
	c-0.088,0.088-0.137,0.207-0.138,0.331c0,0.124,0.049,0.243,0.137,0.331l4.94,4.939c0.088,0.088,0.207,0.137,0.331,0.137
	c0.125,0,0.244-0.049,0.331-0.137l4.931-4.939c0.183-0.184,0.183-0.479,0-0.662l-4.931-4.935
	C379.2,262.782,379.08,262.736,378.96,262.736z M364.605,263.336c-0.134,0.008-0.258,0.073-0.341,0.18
	c-1.451,1.864-2.804,3.864-4.022,5.942c-0.108,0.184-0.078,0.417,0.073,0.567l3.387,3.383c0.088,0.088,0.207,0.137,0.331,0.137
	s0.243-0.05,0.331-0.138l4.929-4.939c0.182-0.183,0.182-0.479,0-0.661l-4.328-4.335c-0.088-0.088-0.207-0.137-0.331-0.137
	C364.624,263.335,364.615,263.335,364.605,263.336z M330.316,263.287c-0.124,0-0.243,0.049-0.331,0.137l-4.378,4.384
	c-0.183,0.183-0.183,0.479,0,0.661l4.925,4.939c0.088,0.088,0.207,0.138,0.331,0.138h0c0.124,0,0.243-0.049,0.331-0.137l3.448-3.446
	c0.151-0.151,0.181-0.386,0.071-0.57c-1.227-2.067-2.582-4.061-4.027-5.925c-0.082-0.105-0.206-0.172-0.34-0.18
	C330.335,263.287,330.326,263.287,330.316,263.287z M315.941,262.736c-0.12,0-0.24,0.046-0.331,0.137l-4.934,4.935
	c-0.183,0.183-0.183,0.479,0,0.662l4.934,4.939c0.088,0.088,0.207,0.137,0.331,0.137c0.124,0,0.243-0.049,0.331-0.137l4.936-4.939
	c0.183-0.183,0.183-0.479,0-0.662l-4.936-4.935C316.18,262.782,316.061,262.736,315.941,262.736z M301.017,262.736
	c-0.12,0-0.239,0.045-0.331,0.137l-4.942,4.935c-0.088,0.088-0.137,0.207-0.137,0.331c0,0.124,0.049,0.243,0.137,0.331l4.942,4.939
	c0.088,0.088,0.207,0.137,0.332,0.137c0.124,0,0.243-0.049,0.331-0.138l4.929-4.939c0.182-0.183,0.182-0.479,0-0.661l-4.929-4.935
	C301.257,262.782,301.137,262.736,301.017,262.736z M286.088,262.736c-0.12,0-0.239,0.045-0.331,0.137l-4.944,4.935
	c-0.088,0.088-0.137,0.207-0.137,0.331c0,0.124,0.049,0.243,0.137,0.331l4.944,4.939c0.087,0.088,0.207,0.137,0.331,0.137
	s0.243-0.049,0.331-0.137l4.93-4.939c0.183-0.184,0.183-0.479,0-0.662l-4.93-4.935C286.328,262.782,286.208,262.736,286.088,262.736
	z M271.158,262.736c-0.12,0-0.239,0.045-0.331,0.137l-4.938,4.935c-0.088,0.088-0.137,0.207-0.137,0.331
	c0,0.124,0.049,0.243,0.137,0.331l4.939,4.939c0.088,0.088,0.207,0.137,0.331,0.137s0.243-0.049,0.331-0.137l4.937-4.939
	c0.088-0.088,0.137-0.207,0.137-0.331c0-0.124-0.05-0.243-0.137-0.331l-4.937-4.935
	C271.397,262.782,271.277,262.736,271.158,262.736z M256.226,262.736c-0.12,0-0.24,0.046-0.331,0.137l-4.932,4.935
	c-0.183,0.183-0.183,0.479,0,0.662l4.932,4.939c0.087,0.088,0.207,0.137,0.331,0.137c0,0,0,0,0,0c0.124,0,0.243-0.049,0.331-0.137
	l4.945-4.939c0.088-0.088,0.138-0.207,0.137-0.331c0-0.124-0.049-0.243-0.137-0.331l-4.945-4.935
	C256.465,262.781,256.346,262.736,256.226,262.736z M241.867,263.337c-0.134,0.009-0.258,0.074-0.34,0.181
	c-1.477,1.913-2.828,3.912-4.017,5.94c-0.107,0.184-0.078,0.417,0.073,0.567l3.381,3.383c0.091,0.091,0.211,0.137,0.331,0.137
	s0.239-0.045,0.331-0.137l4.945-4.939c0.088-0.088,0.138-0.207,0.137-0.331c0-0.124-0.049-0.243-0.137-0.331l-4.342-4.334
	c-0.088-0.088-0.207-0.137-0.331-0.137C241.887,263.336,241.877,263.336,241.867,263.337z M546.467,262.736
	c-0.123,0-0.242,0.049-0.33,0.137l-4.926,4.935c-0.182,0.184-0.182,0.479,0,0.661l4.926,4.938c0.088,0.089,0.207,0.138,0.33,0.138
	c0.125,0,0.244-0.049,0.332-0.138l4.924-4.938c0.184-0.183,0.184-0.478,0-0.661l-4.924-4.935
	C546.711,262.785,546.592,262.736,546.467,262.736z M357.441,252.553c-2.612,0-5.071,1.24-6.576,3.317
	c-1.278,1.76-1.779,3.925-1.412,6.097c0.369,2.172,1.562,4.087,3.36,5.394c0.081,0.059,0.177,0.089,0.275,0.089
	c0.034,0,0.067-0.003,0.101-0.011c0.131-0.029,0.243-0.112,0.308-0.229c2.472-4.442,5.493-8.592,8.98-12.333
	c0.091-0.098,0.136-0.231,0.124-0.364s-0.082-0.255-0.19-0.333C360.949,253.115,359.23,252.553,357.441,252.553z M337.542,252.553
	c-1.79,0-3.508,0.562-4.97,1.626c-0.108,0.079-0.178,0.2-0.19,0.333s0.032,0.266,0.124,0.364c3.489,3.748,6.51,7.897,8.979,12.333
	c0.065,0.117,0.178,0.2,0.309,0.229c0.033,0.008,0.067,0.011,0.101,0.011c0.098,0,0.195-0.03,0.275-0.09
	c1.799-1.31,2.992-3.225,3.361-5.393c0.369-2.172-0.132-4.336-1.411-6.096C342.613,253.793,340.154,252.553,337.542,252.553z
	 M582.992,252.553c-1.787,0-3.502,0.56-4.959,1.621c-0.107,0.079-0.178,0.2-0.189,0.333c-0.014,0.133,0.031,0.266,0.123,0.364
	c3.504,3.768,6.525,7.919,8.984,12.338c0.072,0.128,0.199,0.216,0.346,0.236c0.021,0.003,0.043,0.004,0.064,0.004
	c0.123,0,0.242-0.049,0.33-0.137c1.773-1.284,2.971-3.237,3.316-5.455c0.332-2.136-0.18-4.261-1.441-5.985
	C588.064,253.794,585.605,252.553,582.992,252.553z M480.174,252.553c-2.646,0-5.045,1.209-6.58,3.317
	c-1.262,1.728-1.77,3.857-1.432,5.996c0.35,2.211,1.549,4.162,3.379,5.493c0.08,0.059,0.178,0.089,0.275,0.089
	c0.033,0,0.066-0.003,0.1-0.011c0.131-0.028,0.244-0.112,0.309-0.229c2.461-4.417,5.482-8.567,8.979-12.335
	c0.092-0.098,0.137-0.23,0.123-0.364c-0.012-0.133-0.082-0.255-0.189-0.333C483.674,253.114,481.957,252.553,480.174,252.553z
	 M460.27,252.553c-1.785,0-3.502,0.561-4.964,1.622c-0.108,0.079-0.178,0.2-0.19,0.333c-0.014,0.133,0.031,0.266,0.122,0.364
	c3.495,3.77,6.515,7.92,8.976,12.334c0.064,0.117,0.178,0.201,0.309,0.229c0.033,0.008,0.066,0.011,0.1,0.011
	c0.1,0,0.195-0.031,0.277-0.09c1.832-1.341,3.033-3.29,3.381-5.491c0.338-2.138-0.17-4.267-1.43-5.994
	C465.313,253.762,462.914,252.553,460.27,252.553z M234.713,252.553c-2.646,0-5.042,1.209-6.577,3.317
	c-1.261,1.729-1.77,3.858-1.432,5.997c0.349,2.21,1.55,4.16,3.382,5.491c0.081,0.059,0.177,0.089,0.275,0.089
	c0.034,0,0.067-0.003,0.101-0.011c0.131-0.029,0.243-0.112,0.308-0.229c2.463-4.419,5.483-8.569,8.976-12.334
	c0.091-0.099,0.136-0.231,0.123-0.365c-0.013-0.133-0.083-0.254-0.192-0.333C238.207,253.113,236.49,252.553,234.713,252.553z
	 M553.943,255.276c-0.125,0-0.244,0.049-0.332,0.137l-4.945,4.938c-0.088,0.088-0.137,0.207-0.137,0.331
	c0,0.125,0.049,0.244,0.137,0.332l4.947,4.927c0.09,0.091,0.211,0.136,0.33,0.136s0.238-0.046,0.33-0.137l4.926-4.927
	c0.184-0.183,0.184-0.479,0-0.661l-4.926-4.938C554.186,255.326,554.068,255.276,553.943,255.276L553.943,255.276z M416.283,255.276
	c-0.124,0-0.243,0.049-0.331,0.137l-4.943,4.938c-0.088,0.088-0.138,0.207-0.137,0.331c0,0.125,0.049,0.244,0.137,0.331l4.943,4.927
	c0.091,0.092,0.211,0.137,0.331,0.137s0.24-0.046,0.331-0.137l4.925-4.927c0.183-0.183,0.183-0.479,0-0.661l-4.925-4.938
	C416.526,255.326,416.407,255.276,416.283,255.276L416.283,255.276z M371.854,255.64c-0.11,0-0.22,0.039-0.309,0.116
	c-1.728,1.516-3.403,3.188-4.981,4.97c-0.164,0.186-0.155,0.467,0.02,0.642l4.575,4.572c0.092,0.091,0.211,0.137,0.331,0.137
	s0.239-0.045,0.331-0.137l4.943-4.927c0.088-0.087,0.137-0.206,0.137-0.331c0-0.124-0.049-0.243-0.137-0.331l-4.579-4.574
	C372.094,255.687,371.975,255.64,371.854,255.64z M538.994,255.276c-0.119,0-0.24,0.045-0.33,0.137l-4.928,4.939
	c-0.182,0.183-0.182,0.479,0,0.661l4.928,4.927c0.092,0.091,0.211,0.137,0.33,0.137s0.24-0.045,0.33-0.136l4.953-4.927
	c0.088-0.088,0.137-0.207,0.137-0.332c0-0.124-0.049-0.243-0.137-0.331l-4.953-4.939
	C539.234,255.321,539.113,255.276,538.994,255.276z M386.42,255.276c-0.124,0-0.243,0.049-0.331,0.137l-4.936,4.938
	c-0.088,0.088-0.137,0.207-0.137,0.331c0,0.124,0.049,0.243,0.137,0.331l4.936,4.927c0.091,0.092,0.211,0.137,0.331,0.137
	s0.239-0.045,0.331-0.137l4.94-4.927c0.088-0.087,0.137-0.206,0.137-0.331c0-0.124-0.049-0.243-0.137-0.331l-4.94-4.938
	C386.664,255.325,386.544,255.276,386.42,255.276z M524.084,255.276c-0.123,0-0.242,0.049-0.33,0.137l-4.938,4.938
	c-0.088,0.088-0.137,0.207-0.137,0.331s0.049,0.243,0.137,0.331l4.938,4.927c0.092,0.092,0.211,0.137,0.33,0.137
	c0.121,0,0.24-0.046,0.332-0.137l4.924-4.927c0.184-0.183,0.184-0.479,0-0.661l-4.924-4.938
	C524.328,255.326,524.209,255.276,524.084,255.276L524.084,255.276z M431.207,255.276c-0.124,0-0.243,0.049-0.331,0.137
	l-4.937,4.938c-0.088,0.088-0.137,0.207-0.137,0.331c0,0.124,0.05,0.243,0.138,0.331l4.937,4.927
	c0.091,0.092,0.211,0.137,0.331,0.137s0.239-0.045,0.331-0.137l4.934-4.927c0.088-0.088,0.137-0.207,0.137-0.331
	c0.001-0.124-0.049-0.243-0.137-0.331l-4.933-4.938C431.45,255.326,431.331,255.276,431.207,255.276z M278.619,255.276
	c-0.125,0-0.243,0.049-0.331,0.137l-4.931,4.938c-0.183,0.184-0.183,0.479,0,0.662l4.931,4.927c0.091,0.091,0.211,0.137,0.331,0.137
	s0.239-0.045,0.331-0.137l4.939-4.927c0.088-0.088,0.137-0.206,0.137-0.331c0-0.124-0.049-0.243-0.137-0.331l-4.939-4.938
	C278.862,255.325,278.743,255.276,278.619,255.276z M568.535,255.597c-0.121,0-0.24,0.046-0.332,0.137l-4.604,4.618
	c-0.184,0.183-0.184,0.479,0,0.661l4.924,4.927c0.092,0.091,0.211,0.137,0.332,0.137c0.119,0,0.238-0.045,0.33-0.137l4.629-4.618
	c0.178-0.175,0.186-0.457,0.02-0.643c-1.664-1.863-3.297-3.488-4.992-4.967C568.754,255.635,568.645,255.597,568.535,255.597z
	 M401.353,255.276c-0.124,0-0.243,0.049-0.331,0.137l-4.945,4.938c-0.088,0.088-0.138,0.207-0.137,0.331
	c0,0.125,0.049,0.244,0.138,0.332l4.945,4.927c0.091,0.091,0.21,0.136,0.33,0.136s0.239-0.045,0.331-0.137l4.932-4.927
	c0.183-0.183,0.183-0.479,0-0.662l-4.932-4.938C401.596,255.325,401.477,255.276,401.353,255.276
	C401.353,255.276,401.353,255.276,401.353,255.276z M323.085,255.598c-0.12,0-0.24,0.046-0.331,0.137l-4.621,4.616
	c-0.088,0.088-0.138,0.207-0.137,0.331c0,0.125,0.049,0.244,0.137,0.331l4.942,4.927c0.091,0.092,0.211,0.137,0.331,0.137
	s0.239-0.046,0.331-0.137l4.621-4.618c0.176-0.175,0.184-0.457,0.019-0.643c-1.58-1.774-3.256-3.445-4.984-4.965
	C323.306,255.637,323.196,255.598,323.085,255.598z M263.696,255.276c-0.124,0-0.243,0.049-0.331,0.137l-4.938,4.938
	c-0.088,0.088-0.137,0.207-0.137,0.331c0,0.125,0.05,0.243,0.138,0.331l4.938,4.927c0.091,0.092,0.211,0.137,0.331,0.137
	s0.239-0.046,0.331-0.137l4.931-4.927c0.183-0.183,0.183-0.479,0-0.662l-4.931-4.938
	C263.939,255.326,263.82,255.276,263.696,255.276L263.696,255.276z M509.148,255.276c-0.119,0-0.238,0.045-0.33,0.137l-4.943,4.938
	c-0.088,0.088-0.137,0.207-0.137,0.331c0,0.125,0.051,0.244,0.139,0.331l4.941,4.927c0.092,0.092,0.211,0.137,0.33,0.137
	s0.24-0.045,0.33-0.136l4.947-4.927c0.088-0.088,0.137-0.207,0.137-0.332c0-0.124-0.049-0.243-0.137-0.331l-4.945-4.938
	C509.389,255.321,509.27,255.276,509.148,255.276z M293.544,255.276c-0.124,0-0.243,0.049-0.331,0.137l-4.927,4.938
	c-0.183,0.183-0.183,0.479,0,0.661l4.927,4.927c0.091,0.091,0.211,0.137,0.331,0.137s0.239-0.045,0.331-0.137l4.944-4.927
	c0.088-0.087,0.137-0.206,0.137-0.331c0-0.124-0.049-0.243-0.137-0.331l-4.944-4.938
	C293.788,255.325,293.668,255.276,293.544,255.276z M308.476,255.276c-0.125,0-0.243,0.049-0.331,0.137l-4.934,4.938
	c-0.088,0.088-0.137,0.207-0.137,0.331c0,0.124,0.049,0.243,0.137,0.331l4.934,4.927c0.091,0.091,0.211,0.137,0.331,0.137
	s0.239-0.045,0.331-0.137l4.941-4.927c0.088-0.087,0.137-0.206,0.137-0.331c0-0.124-0.049-0.243-0.137-0.331l-4.941-4.938
	C308.719,255.325,308.6,255.275,308.476,255.276z M249.121,255.642c-0.11,0-0.221,0.039-0.31,0.117
	c-1.736,1.531-3.408,3.202-4.971,4.967c-0.164,0.186-0.155,0.467,0.02,0.642l4.58,4.572c0.091,0.092,0.211,0.137,0.331,0.137
	s0.24-0.046,0.331-0.137l4.924-4.926c0.088-0.088,0.137-0.207,0.137-0.331s-0.049-0.243-0.137-0.331l-4.574-4.573
	C249.36,255.688,249.241,255.642,249.121,255.642z M494.584,255.641c-0.109,0-0.221,0.038-0.309,0.116
	c-1.729,1.518-3.402,3.19-4.977,4.97c-0.164,0.185-0.154,0.466,0.02,0.641l4.57,4.571c0.092,0.091,0.211,0.137,0.33,0.137
	c0.121,0,0.24-0.045,0.332-0.137l4.934-4.926c0.088-0.088,0.137-0.207,0.137-0.331s-0.049-0.243-0.137-0.331l-4.568-4.573
	C494.824,255.687,494.705,255.641,494.584,255.641z M445.816,255.599c-0.12,0-0.24,0.046-0.331,0.137l-4.614,4.616
	c-0.088,0.088-0.137,0.207-0.137,0.331s0.049,0.243,0.137,0.331l4.928,4.926c0.092,0.091,0.211,0.137,0.331,0.137
	s0.239-0.046,0.331-0.137l4.618-4.618c0.175-0.175,0.184-0.456,0.02-0.642c-1.544-1.745-3.218-3.415-4.973-4.964
	C446.037,255.637,445.927,255.599,445.816,255.599z M503.221,249.356c-0.082,0-0.164,0.021-0.238,0.065
	c-2.064,1.218-4.059,2.571-5.93,4.022c-0.105,0.083-0.172,0.207-0.18,0.341c-0.008,0.134,0.041,0.265,0.137,0.36l4.354,4.344
	c0.088,0.088,0.207,0.137,0.332,0.137l0,0c0.125,0,0.244-0.05,0.33-0.138l4.926-4.943c0.182-0.183,0.182-0.479-0.002-0.662
	l-3.398-3.389C503.461,249.403,503.342,249.356,503.221,249.356z M408.808,247.816c-0.12,0-0.24,0.045-0.331,0.137l-4.925,4.929
	c-0.183,0.182-0.183,0.478,0,0.661l4.925,4.944c0.088,0.088,0.207,0.138,0.331,0.138h0c0.124,0,0.243-0.049,0.331-0.137l4.945-4.944
	c0.088-0.088,0.137-0.207,0.137-0.332c0-0.124-0.05-0.243-0.138-0.331l-4.945-4.929
	C409.047,247.862,408.927,247.816,408.808,247.816z M531.549,247.816c-0.119,0-0.24,0.045-0.33,0.136l-4.949,4.93
	c-0.088,0.088-0.139,0.207-0.139,0.331c0,0.125,0.049,0.244,0.137,0.332l4.949,4.944c0.088,0.088,0.207,0.137,0.332,0.137
	c0.123,0,0.242-0.049,0.33-0.137l4.938-4.945c0.182-0.183,0.182-0.479,0-0.662l-4.938-4.93
	C531.787,247.861,531.668,247.816,531.549,247.816z M516.607,247.816c-0.119,0-0.238,0.045-0.33,0.137l-4.928,4.93
	c-0.182,0.183-0.182,0.479,0,0.662l4.928,4.944c0.086,0.088,0.205,0.138,0.33,0.138l0,0c0.125,0,0.244-0.049,0.332-0.137
	l4.941-4.944c0.088-0.088,0.137-0.207,0.137-0.332c0-0.124-0.051-0.243-0.139-0.331l-4.941-4.93
	C516.848,247.861,516.727,247.816,516.607,247.816z M437.156,249.317c-0.121,0-0.24,0.047-0.33,0.137l-3.428,3.428
	c-0.183,0.183-0.183,0.479,0,0.662l4.941,4.945c0.088,0.088,0.207,0.137,0.33,0.137c0.125,0,0.244-0.049,0.332-0.137l4.376-4.386
	c0.095-0.095,0.144-0.227,0.136-0.361c-0.009-0.134-0.075-0.258-0.182-0.34c-1.938-1.494-3.936-2.846-5.938-4.021
	C437.32,249.338,437.238,249.317,437.156,249.317z M423.74,247.815c-0.12,0-0.239,0.045-0.331,0.137l-4.934,4.93
	c-0.183,0.183-0.183,0.479,0,0.662l4.934,4.944c0.087,0.089,0.207,0.138,0.331,0.138l0,0c0.124,0,0.243-0.049,0.331-0.137
	l4.942-4.944c0.088-0.088,0.137-0.207,0.137-0.332c0-0.124-0.049-0.243-0.137-0.331l-4.942-4.93
	C423.979,247.861,423.86,247.815,423.74,247.815z M393.883,247.816c-0.12,0-0.24,0.045-0.331,0.137l-4.931,4.93
	c-0.183,0.183-0.183,0.479,0,0.662l4.931,4.944c0.088,0.089,0.207,0.138,0.332,0.138l0,0c0.125,0,0.243-0.049,0.331-0.137
	l4.938-4.945c0.088-0.088,0.137-0.207,0.137-0.331c0-0.124-0.049-0.243-0.137-0.331l-4.938-4.93
	C394.123,247.861,394.003,247.816,393.883,247.816z M380.501,249.356c-0.082,0-0.163,0.021-0.237,0.064
	c-2.033,1.194-4.028,2.548-5.931,4.024c-0.106,0.082-0.171,0.206-0.18,0.34c-0.008,0.134,0.042,0.265,0.136,0.36l4.339,4.344
	c0.088,0.088,0.207,0.137,0.331,0.137c0.125,0,0.244-0.05,0.332-0.138l4.931-4.944c0.182-0.183,0.182-0.479,0-0.662l-3.39-3.389
	C380.742,249.403,380.622,249.356,380.501,249.356z M314.438,249.317c-0.121,0-0.241,0.047-0.331,0.137l-3.431,3.428
	c-0.183,0.183-0.183,0.479,0,0.662l4.934,4.944c0.087,0.089,0.207,0.138,0.331,0.138s0.244-0.049,0.331-0.137l4.377-4.386
	c0.095-0.095,0.145-0.227,0.136-0.361c-0.008-0.134-0.075-0.258-0.181-0.34c-1.898-1.464-3.892-2.816-5.927-4.02
	C314.602,249.338,314.52,249.317,314.438,249.317z M301.017,247.815c-0.12,0-0.239,0.046-0.331,0.137l-4.942,4.93
	c-0.088,0.088-0.137,0.207-0.137,0.331c0,0.125,0.049,0.244,0.137,0.332l4.942,4.944c0.088,0.088,0.207,0.137,0.332,0.137
	c0.124,0,0.243-0.05,0.331-0.138l4.928-4.944c0.182-0.183,0.182-0.479,0-0.662l-4.929-4.93
	C301.257,247.861,301.137,247.815,301.017,247.815z M286.088,247.816c-0.12,0-0.239,0.045-0.331,0.136l-4.944,4.93
	c-0.088,0.088-0.137,0.207-0.137,0.331c0,0.125,0.049,0.244,0.137,0.332l4.944,4.944c0.088,0.088,0.207,0.137,0.332,0.137
	c0.124,0,0.243-0.05,0.331-0.138l4.93-4.944c0.182-0.183,0.182-0.479,0-0.662l-4.93-4.93
	C286.328,247.861,286.208,247.816,286.088,247.816z M271.158,247.815c-0.12,0-0.239,0.045-0.331,0.137l-4.939,4.93
	c-0.088,0.087-0.137,0.207-0.137,0.331c0,0.125,0.049,0.244,0.137,0.331l4.939,4.945c0.088,0.088,0.207,0.137,0.331,0.137
	c0.125,0,0.243-0.049,0.331-0.137l4.937-4.945c0.183-0.183,0.183-0.479,0-0.662l-4.937-4.93
	C271.397,247.861,271.277,247.815,271.158,247.815z M257.766,249.356c-0.082,0-0.164,0.021-0.238,0.065
	c-2.083,1.231-4.078,2.584-5.931,4.022c-0.106,0.082-0.171,0.206-0.18,0.34c-0.008,0.134,0.042,0.265,0.136,0.36l4.342,4.344
	c0.088,0.088,0.207,0.137,0.331,0.137s0.243-0.049,0.331-0.137l4.945-4.944c0.088-0.088,0.137-0.207,0.137-0.332
	c0-0.125-0.049-0.244-0.138-0.331l-3.405-3.389C258.006,249.403,257.887,249.356,257.766,249.356z M559.893,249.317
	c-0.121,0-0.24,0.046-0.33,0.136l-3.438,3.429c-0.088,0.088-0.139,0.207-0.139,0.331s0.049,0.243,0.137,0.331l4.939,4.945
	c0.092,0.091,0.211,0.137,0.332,0.137c0.119,0,0.238-0.046,0.33-0.137l4.391-4.386c0.096-0.095,0.145-0.227,0.137-0.361
	c-0.01-0.134-0.074-0.259-0.182-0.341c-1.91-1.473-3.908-2.826-5.939-4.02C560.057,249.338,559.975,249.317,559.893,249.317z
	 M546.467,247.816c-0.123,0-0.242,0.049-0.33,0.137l-4.926,4.929c-0.182,0.182-0.182,0.478,0,0.661l4.926,4.943
	c0.086,0.088,0.207,0.138,0.33,0.138c0.125,0,0.244-0.05,0.332-0.138l4.926-4.943c0.182-0.183,0.182-0.479-0.002-0.661l-4.924-4.929
	C546.711,247.866,546.592,247.816,546.467,247.816z M371.443,238.478c-1.71,0-3.343,0.529-4.723,1.531
	c-3.635,2.647-4.397,7.828-1.698,11.55c0.044,0.061,0.104,0.112,0.171,0.146c0.066,0.033,0.138,0.05,0.209,0.05
	c0.116,0,0.23-0.043,0.319-0.125c3.741-3.479,7.896-6.505,12.351-8.993c0.117-0.065,0.201-0.178,0.229-0.309
	c0.029-0.131,0-0.268-0.079-0.375C376.638,239.776,374.104,238.478,371.443,238.478z M323.54,238.478
	c-2.655,0-5.189,1.299-6.78,3.475c-0.079,0.108-0.108,0.245-0.079,0.376c0.028,0.131,0.112,0.243,0.229,0.309
	c4.451,2.485,8.606,5.51,12.351,8.991c0.087,0.081,0.201,0.125,0.319,0.125c0.015,0,0.03-0.001,0.045-0.002
	c0.133-0.013,0.255-0.083,0.333-0.191c2.699-3.722,1.938-8.904-1.696-11.552C326.883,239.007,325.25,238.478,323.54,238.478z
	 M568.99,238.478c-2.652,0-5.184,1.298-6.773,3.472c-0.08,0.108-0.107,0.245-0.08,0.376c0.029,0.131,0.111,0.243,0.229,0.309
	c4.438,2.484,8.594,5.51,12.354,8.992c0.088,0.081,0.201,0.125,0.318,0.125c0.01,0,0.018,0,0.025,0
	c0.127-0.007,0.246-0.065,0.328-0.161c2.732-3.756,1.963-8.933-1.682-11.581C572.33,239.007,570.699,238.478,568.99,238.478z
	 M248.709,238.478c-1.708,0-3.338,0.529-4.711,1.531c-3.632,2.644-4.395,7.822-1.699,11.543c0.079,0.108,0.2,0.178,0.333,0.191
	c0.015,0.001,0.031,0.002,0.046,0.002c0.117,0,0.231-0.044,0.318-0.125c3.769-3.494,7.921-6.514,12.342-8.977
	c0.117-0.065,0.201-0.178,0.229-0.309c0.029-0.131,0-0.268-0.079-0.376C253.895,239.779,251.36,238.478,248.709,238.478z
	 M446.271,238.478c-2.656,0-5.191,1.302-6.777,3.482c-0.079,0.108-0.107,0.245-0.079,0.376s0.112,0.243,0.229,0.308
	c4.418,2.462,8.57,5.482,12.342,8.977c0.087,0.081,0.201,0.125,0.318,0.125c0.016,0,0.03,0,0.046-0.002
	c0.134-0.013,0.255-0.083,0.333-0.192c2.689-3.726,1.928-8.904-1.699-11.542C449.61,239.007,447.98,238.478,446.271,238.478z
	 M494.174,238.478c-1.711,0-3.344,0.529-4.723,1.531c-3.635,2.642-4.395,7.82-1.693,11.543c0.078,0.108,0.199,0.178,0.332,0.191
	c0.016,0.001,0.031,0.002,0.047,0.002c0.117,0,0.23-0.044,0.318-0.125c3.754-3.483,7.91-6.506,12.35-8.983
	c0.219-0.122,0.303-0.394,0.191-0.618C499.371,239.772,496.84,238.478,494.174,238.478z M414.695,241.933
	c-0.124,0-0.243,0.049-0.331,0.137l-3.355,3.356c-0.088,0.088-0.137,0.207-0.137,0.332c0,0.124,0.049,0.243,0.137,0.331l4.943,4.927
	c0.091,0.091,0.211,0.137,0.331,0.137s0.24-0.046,0.331-0.137l4.926-4.927c0.182-0.183,0.183-0.478,0.001-0.661l-2.833-2.851
	c-0.069-0.069-0.157-0.115-0.253-0.131c-1.19-0.204-2.404-0.37-3.711-0.509C414.728,241.934,414.711,241.933,414.695,241.933z
	 M537.41,241.933c-0.125,0-0.244,0.049-0.332,0.138l-3.342,3.356c-0.182,0.183-0.182,0.479,0,0.661l4.928,4.927
	c0.092,0.091,0.211,0.137,0.33,0.137s0.24-0.045,0.33-0.136l4.953-4.927c0.088-0.088,0.137-0.208,0.137-0.332
	s-0.049-0.244-0.137-0.332l-2.861-2.851c-0.068-0.068-0.156-0.113-0.25-0.129c-1.145-0.199-2.393-0.371-3.707-0.51
	C537.443,241.934,537.426,241.933,537.41,241.933z M513.439,244.644c-0.051,0-0.102,0.009-0.152,0.026
	c-2.346,0.806-4.701,1.796-7,2.943c-0.135,0.067-0.229,0.195-0.252,0.344c-0.025,0.149,0.023,0.3,0.131,0.406l2.652,2.652
	c0.092,0.091,0.211,0.137,0.332,0.137c0.119,0,0.238-0.045,0.33-0.136l4.943-4.925c0.09-0.088,0.139-0.208,0.139-0.333
	c0-0.125-0.051-0.244-0.139-0.332l-0.654-0.647C513.68,244.691,513.561,244.644,513.439,244.644z M402.892,241.945
	c-1.222,0.13-2.479,0.305-3.735,0.522c-0.095,0.016-0.183,0.062-0.251,0.13l-2.829,2.829c-0.088,0.088-0.137,0.207-0.137,0.332
	c0,0.124,0.049,0.243,0.138,0.331l4.945,4.927c0.091,0.091,0.21,0.136,0.33,0.136c0.12,0,0.239-0.045,0.331-0.137l4.93-4.927
	c0.183-0.183,0.183-0.479,0-0.662l-3.342-3.347c-0.088-0.088-0.208-0.138-0.331-0.138
	C402.925,241.942,402.909,241.943,402.892,241.945z M426.937,244.623c-0.122,0-0.242,0.048-0.331,0.137l-0.667,0.666
	c-0.088,0.088-0.137,0.207-0.137,0.331c0,0.125,0.05,0.244,0.138,0.331l4.937,4.927c0.091,0.091,0.211,0.137,0.331,0.137
	s0.239-0.045,0.331-0.136l2.682-2.676c0.106-0.106,0.155-0.257,0.131-0.405c-0.023-0.148-0.117-0.276-0.251-0.344
	c-2.235-1.126-4.594-2.116-7.011-2.942C427.038,244.631,426.987,244.623,426.937,244.623z M304.199,244.623
	c-0.123,0-0.243,0.049-0.333,0.139l-0.659,0.665c-0.181,0.183-0.181,0.479,0.002,0.661l4.936,4.928
	c0.091,0.091,0.211,0.137,0.331,0.137s0.239-0.045,0.331-0.136l2.683-2.675c0.106-0.106,0.155-0.257,0.131-0.406
	s-0.118-0.276-0.252-0.344c-2.269-1.139-4.63-2.129-7.019-2.942C304.3,244.631,304.25,244.623,304.199,244.623z M280.171,241.945
	c-1.224,0.128-2.446,0.299-3.736,0.521c-0.095,0.017-0.183,0.062-0.251,0.131l-2.826,2.83c-0.183,0.183-0.183,0.479,0,0.662
	l4.931,4.927c0.091,0.091,0.211,0.137,0.331,0.137s0.239-0.045,0.331-0.136l4.939-4.927c0.183-0.183,0.183-0.479,0.001-0.662
	l-3.338-3.347c-0.088-0.088-0.208-0.138-0.332-0.138C280.204,241.942,280.187,241.943,280.171,241.945z M291.957,241.933
	c-0.124,0-0.244,0.049-0.332,0.138l-3.339,3.356c-0.182,0.183-0.182,0.479,0,0.661l4.928,4.927c0.091,0.091,0.211,0.137,0.331,0.137
	s0.239-0.045,0.331-0.136l4.944-4.927c0.088-0.088,0.137-0.207,0.137-0.331c0-0.125-0.049-0.244-0.137-0.332l-2.85-2.851
	c-0.068-0.068-0.156-0.114-0.251-0.13c-1.149-0.199-2.398-0.371-3.712-0.51C291.989,241.934,291.973,241.933,291.957,241.933z
	 M525.621,241.945c-1.219,0.129-2.475,0.305-3.73,0.521c-0.096,0.017-0.184,0.063-0.252,0.131l-2.822,2.829
	c-0.182,0.183-0.182,0.479,0,0.662l4.938,4.927c0.092,0.091,0.211,0.137,0.33,0.137c0.121,0,0.24-0.045,0.332-0.137l4.924-4.926
	c0.184-0.183,0.184-0.479,0-0.662l-3.338-3.347c-0.088-0.088-0.207-0.138-0.332-0.138
	C525.654,241.942,525.637,241.943,525.621,241.945z M267.982,244.646c-0.051,0-0.103,0.008-0.152,0.025
	c-2.355,0.811-4.709,1.801-6.997,2.942c-0.135,0.067-0.229,0.195-0.253,0.344c-0.024,0.149,0.025,0.3,0.131,0.406l2.654,2.651
	c0.091,0.091,0.211,0.137,0.331,0.137s0.239-0.045,0.331-0.137l4.931-4.926c0.087-0.088,0.137-0.207,0.137-0.331
	c0-0.124-0.049-0.243-0.137-0.331l-0.644-0.644C268.224,244.693,268.104,244.646,267.982,244.646z M549.654,244.623
	c-0.123,0-0.244,0.048-0.332,0.138l-0.66,0.665c-0.182,0.184-0.18,0.479,0.002,0.661l4.949,4.928c0.09,0.091,0.211,0.136,0.33,0.136
	s0.238-0.045,0.33-0.137l2.672-2.675c0.107-0.106,0.156-0.257,0.131-0.405c-0.023-0.148-0.117-0.276-0.25-0.344
	c-2.258-1.139-4.619-2.129-7.021-2.943C549.754,244.631,549.705,244.623,549.654,244.623z M390.72,244.645
	c-0.051,0-0.102,0.008-0.151,0.025c-2.349,0.803-4.707,1.794-7.007,2.944c-0.135,0.067-0.229,0.195-0.253,0.343
	s0.024,0.3,0.131,0.406l2.65,2.651c0.091,0.091,0.211,0.137,0.331,0.137s0.239-0.045,0.331-0.136l4.94-4.927
	c0.183-0.183,0.183-0.479,0.001-0.662l-0.641-0.644C390.963,244.693,390.843,244.645,390.72,244.645z M511.904,229.439
	c-0.838,0-1.67,0.132-2.475,0.392c-2.039,0.66-3.705,2.086-4.689,4.018c-1.016,1.993-1.188,4.276-0.488,6.428
	c0.043,0.127,0.137,0.231,0.26,0.284c0.059,0.026,0.123,0.039,0.186,0.039c0.068,0,0.135-0.014,0.197-0.043
	c4.635-2.16,9.523-3.747,14.529-4.717c0.168-0.033,0.305-0.154,0.355-0.317c0.031-0.097,0.029-0.199-0.002-0.292
	C518.645,231.766,515.48,229.439,511.904,229.439z M551.264,229.438c-3.564,0-6.725,2.331-7.863,5.8
	c-0.041,0.127-0.027,0.267,0.041,0.383c0.068,0.116,0.184,0.197,0.314,0.223c5.012,0.971,9.9,2.557,14.529,4.713
	c0.061,0.029,0.129,0.043,0.195,0.043c0.059,0,0.115-0.011,0.17-0.031c0.119-0.046,0.213-0.138,0.264-0.255
	c0.701-2.161,0.537-4.406-0.441-6.38c-0.98-1.975-2.664-3.433-4.742-4.105C552.928,229.569,552.1,229.438,551.264,229.438z
	 M428.538,229.438c-3.579,0-6.741,2.331-7.868,5.801c-0.041,0.127-0.026,0.267,0.042,0.382c0.068,0.115,0.183,0.196,0.314,0.222
	c5.002,0.971,9.887,2.557,14.517,4.713c0.063,0.029,0.131,0.043,0.198,0.043c0.063,0,0.128-0.013,0.187-0.039
	c0.123-0.053,0.218-0.157,0.259-0.285c0.696-2.157,0.522-4.439-0.488-6.424c-0.983-1.932-2.651-3.36-4.697-4.022
	C430.203,229.569,429.374,229.438,428.538,229.438z M266.447,229.439c-0.836,0-1.665,0.131-2.465,0.391
	c-2.045,0.66-3.714,2.088-4.7,4.021c-1.014,1.991-1.187,4.273-0.485,6.424c0.042,0.127,0.135,0.231,0.258,0.284
	c0.06,0.026,0.123,0.039,0.187,0.039c0.067,0,0.135-0.014,0.198-0.043c4.631-2.157,9.515-3.742,14.517-4.713
	c0.131-0.026,0.246-0.106,0.314-0.222s0.083-0.255,0.042-0.382C273.181,231.77,270.02,229.439,266.447,229.439z M389.174,229.439
	c-0.838,0-1.67,0.132-2.473,0.392c-4.265,1.382-6.59,6.066-5.183,10.441c0.041,0.128,0.135,0.232,0.258,0.286
	c0.06,0.026,0.124,0.039,0.188,0.039c0.067,0,0.135-0.014,0.198-0.043c4.627-2.154,9.513-3.739,14.521-4.712
	c0.132-0.026,0.246-0.107,0.314-0.223c0.068-0.116,0.083-0.255,0.041-0.383C395.897,231.769,392.737,229.439,389.174,229.439z
	 M305.812,229.438c-3.572,0-6.733,2.331-7.865,5.8c-0.042,0.127-0.026,0.267,0.042,0.382s0.182,0.196,0.314,0.222
	c5.01,0.973,9.895,2.559,14.52,4.712c0.063,0.029,0.13,0.043,0.198,0.043c0.064,0,0.127-0.013,0.187-0.039
	c0.123-0.053,0.217-0.157,0.258-0.285c1.411-4.371-0.914-9.057-5.181-10.445C307.479,229.569,306.648,229.438,305.812,229.438z
	 M408.85,234.672c2.576,0,5.146,0.152,7.64,0.453c0.019,0.002,0.038,0.003,0.056,0.003c0.114,0,0.225-0.042,0.311-0.118
	c0.101-0.089,0.158-0.217,0.157-0.351c-0.006-4.602-3.669-8.345-8.164-8.345c-4.489,0-8.148,3.743-8.155,8.344
	c0,0.134,0.057,0.262,0.157,0.351c0.086,0.076,0.197,0.118,0.311,0.118c0.019,0,0.037-0.001,0.056-0.003
	C403.711,234.824,406.278,234.672,408.85,234.672z M286.132,226.314c-4.495,0-8.158,3.744-8.164,8.345
	c0,0.134,0.057,0.261,0.157,0.351c0.086,0.076,0.197,0.118,0.311,0.118c0.019,0,0.037-0.001,0.056-0.003
	c2.494-0.301,5.064-0.453,7.64-0.453c2.571,0,5.139,0.152,7.632,0.452c0.019,0.002,0.037,0.003,0.056,0.003
	c0.114,0,0.225-0.042,0.311-0.118c0.1-0.089,0.157-0.217,0.157-0.351C294.28,230.058,290.622,226.314,286.132,226.314z
	 M531.59,234.672c2.572,0,5.139,0.152,7.629,0.453c0.018,0.002,0.037,0.003,0.055,0.003c0.115,0,0.225-0.042,0.311-0.118
	c0.102-0.089,0.158-0.217,0.158-0.351c-0.008-4.602-3.664-8.345-8.152-8.345s-8.145,3.742-8.152,8.342
	c0,0.134,0.057,0.262,0.156,0.351c0.086,0.077,0.197,0.118,0.311,0.118c0.02,0,0.037-0.001,0.057-0.003
	C526.447,234.824,529.014,234.672,531.59,234.672z"/>
</svg>
