<?xml version="1.0" encoding="utf-8"?>
<!-- Generator: Adobe Illustrator 16.0.0, SVG Export Plug-In . SVG Version: 6.00 Build 0)  -->
<!DOCTYPE svg PUBLIC "-//W3C//DTD SVG 1.1//EN" "http://www.w3.org/Graphics/SVG/1.1/DTD/svg11.dtd">
<svg version="1.1" id="Layer_1" xmlns="http://www.w3.org/2000/svg" xmlns:xlink="http://www.w3.org/1999/xlink" x="0px" y="0px"
	 width="864px" height="864px" viewBox="0 0 864 864" enable-background="new 0 0 864 864" xml:space="preserve">
<path fill="#C0E5E7" d="M204.906,292.729v-38.416c4.731-9.052,13.95-15.093,24.057-15.766c0.143-0.01,0.273-0.084,0.354-0.202
	c5.498-7.999,14.551-12.774,24.218-12.774c9.68,0,18.74,4.776,24.236,12.775c0.081,0.118,0.211,0.192,0.354,0.202
	c10.647,0.729,20.375,7.504,24.784,17.262c0.076,0.168,0.243,0.275,0.426,0.275c0.184,0,0.351-0.107,0.427-0.275
	c4.398-9.758,14.126-16.533,24.781-17.262c0.143-0.01,0.273-0.084,0.354-0.202c5.498-7.999,14.551-12.775,24.218-12.775
	c9.679,0,18.739,4.776,24.236,12.775c0.081,0.118,0.211,0.192,0.354,0.202c10.647,0.729,20.375,7.504,24.784,17.263
	c0.076,0.168,0.243,0.275,0.426,0.275c0.184,0,0.351-0.107,0.427-0.275c4.399-9.759,14.126-16.534,24.782-17.263
	c0.143-0.01,0.273-0.084,0.354-0.202c5.499-7.999,14.55-12.775,24.215-12.775c9.684,0,18.74,4.776,24.227,12.775
	c0.081,0.118,0.211,0.192,0.354,0.202c10.648,0.729,20.377,7.505,24.784,17.264c0.076,0.168,0.243,0.275,0.427,0.275
	s0.351-0.107,0.427-0.275c4.408-9.759,14.137-16.535,24.785-17.264c0.143-0.01,0.272-0.084,0.354-0.201
	c5.506-8,14.565-12.776,24.235-12.776c9.661,0,18.718,4.776,24.228,12.775c0.081,0.117,0.212,0.191,0.354,0.201
	c10.093,0.673,19.303,6.713,24.037,15.765v38.417H204.906z M552.244,276.817c-1.818,0-3.439,1.282-3.854,3.049
	c-0.032,0.139,0.001,0.285,0.089,0.397c0.089,0.111,0.225,0.177,0.367,0.177h6.769c0.142,0,0.276-0.064,0.365-0.175
	s0.122-0.256,0.092-0.395C555.68,278.102,554.07,276.817,552.244,276.817z M452.652,276.817c-1.812,0-3.426,1.282-3.84,3.049
	c-0.033,0.139,0,0.285,0.088,0.397c0.09,0.111,0.225,0.177,0.367,0.177h6.775c0.143,0,0.277-0.064,0.366-0.176
	c0.089-0.112,0.122-0.258,0.09-0.396C456.094,278.101,454.476,276.817,452.652,276.817z M353.073,276.817
	c-1.813,0-3.428,1.282-3.842,3.049c-0.033,0.139,0,0.285,0.089,0.397c0.089,0.111,0.224,0.177,0.367,0.177h6.775
	c0.143,0,0.277-0.064,0.366-0.176s0.122-0.257,0.09-0.396C356.515,278.101,354.898,276.817,353.073,276.817z M253.493,276.817
	c-1.813,0-3.429,1.282-3.841,3.049c-0.033,0.139,0,0.285,0.089,0.397c0.089,0.111,0.224,0.177,0.367,0.177h6.775
	c0.143,0,0.277-0.064,0.366-0.176c0.089-0.111,0.122-0.258,0.09-0.396C256.935,278.101,255.317,276.817,253.493,276.817z
	 M593.36,275.071c-0.259,0-0.468,0.209-0.468,0.468v3.832c0,0.259,0.209,0.468,0.468,0.468h3.834c0.259,0,0.468-0.209,0.468-0.468
	v-3.832c0-0.259-0.209-0.468-0.468-0.468H593.36z M586.743,275.071c-0.259,0-0.468,0.209-0.468,0.468v3.832
	c0,0.259,0.209,0.468,0.468,0.468h3.834c0.259,0,0.468-0.209,0.468-0.468v-3.832c0-0.259-0.209-0.468-0.468-0.468H586.743z
	 M513.976,275.071c-0.259,0-0.468,0.209-0.468,0.468v3.832c0,0.259,0.209,0.468,0.468,0.468h3.852c0.259,0,0.468-0.209,0.468-0.468
	v-3.832c0-0.259-0.209-0.468-0.468-0.468H513.976z M507.364,275.071c-0.259,0-0.468,0.209-0.468,0.468v3.832
	c0,0.259,0.209,0.468,0.468,0.468h3.849c0.259,0,0.468-0.209,0.468-0.468v-3.832c0-0.259-0.209-0.468-0.468-0.468H507.364z
	 M500.39,275.071c-0.259,0-0.468,0.209-0.468,0.468v3.832c0,0.259,0.209,0.468,0.468,0.468h4.205c0.259,0,0.468-0.209,0.468-0.468
	v-3.832c0-0.259-0.209-0.468-0.468-0.468H500.39z M493.778,275.071c-0.259,0-0.468,0.209-0.468,0.468v3.832
	c0,0.259,0.209,0.468,0.468,0.468h3.848c0.259,0,0.468-0.209,0.468-0.468v-3.832c0-0.259-0.209-0.468-0.468-0.468H493.778z
	 M487.165,275.071c-0.259,0-0.468,0.209-0.468,0.468v3.832c0,0.259,0.209,0.468,0.468,0.468h3.844c0.259,0,0.468-0.209,0.468-0.468
	v-3.832c0-0.259-0.209-0.468-0.468-0.468H487.165z M414.396,275.071c-0.258,0-0.468,0.209-0.468,0.468v3.832
	c0,0.259,0.209,0.468,0.468,0.468h3.844c0.258,0,0.468-0.209,0.468-0.468v-3.832c0-0.259-0.209-0.468-0.468-0.468H414.396z
	 M407.784,275.071c-0.258,0-0.468,0.209-0.468,0.468v3.832c0,0.259,0.209,0.468,0.468,0.468h3.839c0.258,0,0.468-0.209,0.468-0.468
	v-3.832c0-0.259-0.209-0.468-0.468-0.468H407.784z M400.809,275.071c-0.258,0-0.468,0.209-0.468,0.468v3.832
	c0,0.259,0.209,0.468,0.468,0.468h4.197c0.258,0,0.468-0.209,0.468-0.468v-3.832c0-0.259-0.209-0.468-0.468-0.468H400.809z
	 M394.196,275.071c-0.258,0-0.468,0.209-0.468,0.468v3.832c0,0.259,0.209,0.468,0.468,0.468h3.848c0.258,0,0.468-0.209,0.468-0.468
	v-3.832c0-0.259-0.209-0.468-0.468-0.468H394.196z M387.584,275.071c-0.258,0-0.468,0.209-0.468,0.468v3.832
	c0,0.259,0.209,0.468,0.468,0.468h3.843c0.258,0,0.468-0.209,0.468-0.468v-3.832c0-0.259-0.209-0.468-0.468-0.468H387.584z
	 M314.815,275.071c-0.258,0-0.468,0.209-0.468,0.468v3.832c0,0.259,0.209,0.468,0.468,0.468h3.845c0.258,0,0.468-0.209,0.468-0.468
	v-3.832c0-0.259-0.209-0.468-0.468-0.468H314.815z M308.202,275.071c-0.258,0-0.468,0.209-0.468,0.468v3.832
	c0,0.259,0.209,0.468,0.468,0.468h3.841c0.258,0,0.468-0.209,0.468-0.468v-3.832c0-0.259-0.209-0.468-0.468-0.468H308.202z
	 M301.228,275.071c-0.258,0-0.468,0.209-0.468,0.468v3.832c0,0.259,0.209,0.468,0.468,0.468h4.198c0.258,0,0.468-0.209,0.468-0.468
	v-3.832c0-0.259-0.21-0.468-0.468-0.468H301.228z M294.615,275.071c-0.258,0-0.468,0.209-0.468,0.468v3.832
	c0,0.259,0.209,0.468,0.468,0.468h3.85c0.258,0,0.468-0.209,0.468-0.468v-3.832c0-0.259-0.209-0.468-0.468-0.468H294.615z
	 M288.002,275.071c-0.258,0-0.468,0.209-0.468,0.468v3.832c0,0.259,0.209,0.468,0.468,0.468h3.845c0.258,0,0.468-0.209,0.468-0.468
	v-3.832c0-0.259-0.209-0.468-0.468-0.468H288.002z M215.232,275.071c-0.258,0-0.468,0.209-0.468,0.468v3.832
	c0,0.259,0.21,0.468,0.468,0.468h3.846c0.258,0,0.468-0.209,0.468-0.468v-3.832c0-0.259-0.209-0.468-0.468-0.468H215.232z
	 M208.621,275.071c-0.258,0-0.468,0.209-0.468,0.468v3.832c0,0.259,0.209,0.468,0.468,0.468h3.84c0.258,0,0.468-0.209,0.468-0.468
	v-3.832c0-0.259-0.21-0.468-0.468-0.468H208.621z M321.426,275.071c-0.258,0-0.468,0.209-0.468,0.468v2.416
	c0,0.193,0.119,0.366,0.299,0.437c0.055,0.021,0.112,0.031,0.169,0.031c0.128,0,0.254-0.053,0.345-0.151
	c0.885-0.966,2.011-1.25,3.347-1.554l0.256-0.054c0.216-0.046,0.371-0.237,0.371-0.458v-0.667c0-0.259-0.209-0.468-0.468-0.468
	H321.426z M221.845,275.071c-0.258,0-0.468,0.209-0.468,0.468v2.416c0,0.193,0.118,0.366,0.298,0.437
	c0.055,0.021,0.113,0.031,0.17,0.031c0.128,0,0.254-0.053,0.345-0.151c0.885-0.965,2.011-1.25,3.348-1.554l0.255-0.054
	c0.216-0.046,0.37-0.237,0.37-0.458v-0.667c0-0.259-0.209-0.468-0.468-0.468H221.845z M520.589,275.071
	c-0.259,0-0.468,0.209-0.468,0.468v2.415c0,0.193,0.118,0.366,0.298,0.437c0.056,0.021,0.113,0.031,0.17,0.031
	c0.129,0,0.255-0.053,0.345-0.151c0.884-0.965,2.007-1.25,3.339-1.553l0.262-0.053c0.218-0.045,0.374-0.236,0.374-0.459v-0.667
	c0-0.259-0.209-0.468-0.468-0.468H520.589z M421.009,275.071c-0.258,0-0.468,0.209-0.468,0.468v2.415
	c0,0.193,0.118,0.366,0.298,0.437c0.055,0.021,0.112,0.031,0.169,0.031c0.129,0,0.255-0.053,0.345-0.151
	c0.883-0.965,2.009-1.25,3.346-1.553l0.247-0.053c0.22-0.043,0.378-0.235,0.378-0.459v-0.667c0-0.259-0.209-0.468-0.468-0.468
	H421.009z M480.554,275.071c-0.259,0-0.468,0.209-0.468,0.468v0.676c0,0.219,0.151,0.408,0.364,0.456l0.206,0.047
	c1.341,0.303,2.484,0.583,3.399,1.54c0.09,0.095,0.213,0.145,0.338,0.145c0.059,0,0.118-0.011,0.174-0.033
	c0.178-0.071,0.294-0.243,0.294-0.435v-2.396c0-0.259-0.209-0.468-0.468-0.468H480.554z M281.39,275.071
	c-0.258,0-0.468,0.209-0.468,0.468v0.675c0,0.218,0.15,0.407,0.362,0.456l0.207,0.048c1.341,0.302,2.484,0.581,3.4,1.54
	c0.09,0.095,0.213,0.145,0.338,0.145c0.059,0,0.118-0.011,0.174-0.033c0.177-0.071,0.293-0.243,0.293-0.435v-2.396
	c0-0.259-0.209-0.468-0.468-0.468H281.39z M380.971,275.071c-0.258,0-0.468,0.209-0.468,0.468v0.675c0,0.217,0.149,0.405,0.36,0.455
	l0.207,0.049c1.344,0.302,2.486,0.581,3.401,1.539c0.09,0.095,0.213,0.145,0.338,0.145c0.059,0,0.118-0.011,0.174-0.033
	c0.177-0.071,0.293-0.243,0.293-0.435v-2.395c0-0.259-0.209-0.468-0.468-0.468H380.971z M580.126,275.071
	c-0.259,0-0.468,0.209-0.468,0.468v0.674c0,0.218,0.15,0.407,0.363,0.456l0.195,0.048c1.372,0.305,2.511,0.578,3.403,1.521
	c0.09,0.096,0.214,0.146,0.34,0.146c0.059,0,0.117-0.011,0.173-0.033c0.179-0.07,0.295-0.243,0.295-0.435v-2.378
	c0-0.259-0.209-0.468-0.468-0.468H580.126z M428.102,276.396c0.673,0,1.404,0.027,2.173,0.08c0.011,0.001,0.022,0.001,0.033,0.001
	c0.218,0,0.409-0.151,0.457-0.367c0.05-0.226-0.073-0.814-0.29-0.897l-0.279-0.109c-0.055-0.021-0.113-0.032-0.172-0.032h-2.403
	c-0.258,0-0.468,0.209-0.468,0.468c0,0.126,0.05,0.622,0.14,0.71c0.088,0.086,0.207,0.15,0.33,0.15
	C427.625,276.4,428.102,276.396,428.102,276.396z M328.52,276.396c0.673,0,1.404,0.027,2.174,0.08
	c0.011,0.001,0.022,0.001,0.033,0.001c0.218,0,0.41-0.151,0.457-0.368c0.05-0.227-0.075-0.814-0.292-0.896l-0.279-0.109
	c-0.055-0.021-0.113-0.032-0.171-0.032h-2.403c-0.258,0-0.468,0.209-0.468,0.468c0,0.126,0.051,0.622,0.141,0.71
	c0.088,0.086,0.207,0.15,0.33,0.15C328.043,276.4,328.52,276.396,328.52,276.396z M228.94,276.396c0.673,0,1.404,0.027,2.173,0.08
	c0.011,0.001,0.021,0.001,0.033,0.001c0.217,0,0.407-0.15,0.456-0.364c0.051-0.225-0.07-0.813-0.284-0.898l-0.286-0.111
	c-0.054-0.021-0.112-0.032-0.17-0.032h-2.402c-0.258,0-0.468,0.209-0.468,0.468c0,0.126,0.051,0.622,0.141,0.71
	c0.088,0.086,0.207,0.15,0.33,0.15C228.464,276.4,228.94,276.396,228.94,276.396z M527.683,276.396c0.673,0,1.404,0.027,2.174,0.08
	c0.011,0.001,0.021,0.001,0.032,0.001c0.218,0,0.409-0.151,0.457-0.366c0.05-0.227-0.073-0.814-0.289-0.897l-0.29-0.111
	c-0.054-0.021-0.11-0.031-0.168-0.031h-2.396c-0.259,0-0.468,0.209-0.468,0.468c0,0.126,0.05,0.622,0.14,0.71
	c0.089,0.086,0.207,0.15,0.33,0.15C527.206,276.4,527.683,276.396,527.683,276.396z M375.738,275.071
	c-0.057,0-0.113,0.01-0.167,0.03l-0.273,0.104c-0.216,0.083-0.339,0.312-0.29,0.538c0.047,0.216,0.239,0.726,0.457,0.726
	c0.011,0,0.021,0,0.032-0.001c0.744-0.05,1.464-0.075,2.143-0.075c0,0,0.551,0.005,0.554,0.005c0.123,0,0.241-0.048,0.328-0.134
	c0.089-0.088,0.14-0.568,0.14-0.693c0-0.259-0.209-0.501-0.468-0.501H375.738z M475.319,275.071c-0.057,0-0.113,0.01-0.166,0.03
	l-0.275,0.105c-0.216,0.084-0.338,0.67-0.288,0.897c0.048,0.215,0.239,0.366,0.457,0.366c0.01,0,0.021,0,0.031-0.001
	c0.746-0.05,1.468-0.075,2.145-0.075c0,0,0.552,0.005,0.555,0.005c0.123,0,0.24-0.048,0.328-0.134c0.09-0.088,0.14-0.568,0.14-0.693
	c0-0.259-0.209-0.501-0.468-0.501H475.319z M574.889,275.071c-0.057,0-0.113,0.01-0.167,0.03l-0.193,0.074
	c-0.215,0.084-0.377,0.687-0.327,0.913c0.048,0.216,0.204,0.382,0.42,0.382c0.009,0,0.019,0,0.028-0.001
	c0.744-0.05,1.465-0.075,2.141-0.075c0,0,0.55,0.005,0.553,0.005c0.123,0,0.24-0.048,0.328-0.134c0.09-0.088,0.14-0.568,0.14-0.693
	c0-0.259-0.209-0.501-0.468-0.501H574.889z M276.158,275.071c-0.057,0-0.113,0.01-0.166,0.03l-0.185,0.07
	c-0.216,0.083-0.384,0.688-0.334,0.914c0.048,0.217,0.199,0.385,0.415,0.385c0.009,0,0.019,0,0.028-0.001
	c0.744-0.05,1.465-0.075,2.144-0.075c0,0,0.551,0.005,0.554,0.005c0.123,0,0.241-0.048,0.328-0.134
	c0.089-0.088,0.14-0.568,0.14-0.693c0-0.259-0.21-0.501-0.468-0.501H276.158z M593.36,268.454c-0.259,0-0.468,0.209-0.468,0.468
	v3.83c0,0.259,0.209,0.468,0.468,0.468h3.834c0.259,0,0.468-0.209,0.468-0.468v-3.83c0-0.259-0.209-0.468-0.468-0.468H593.36z
	 M586.743,268.454c-0.259,0-0.468,0.209-0.468,0.468v3.83c0,0.259,0.209,0.468,0.468,0.468h3.834c0.259,0,0.468-0.209,0.468-0.468
	v-3.83c0-0.259-0.209-0.468-0.468-0.468H586.743z M582.153,268.454c-0.222,0-0.412,0.155-0.458,0.371
	c-0.273,1.302-0.91,2.433-1.891,3.361c-0.094,0.088-0.146,0.211-0.146,0.34v0.226c0,0.259,0.209,0.468,0.468,0.468h3.834
	c0.259,0,0.468-0.209,0.468-0.468v-3.83c0-0.259-0.209-0.468-0.468-0.468H582.153z M520.589,268.454
	c-0.259,0-0.468,0.209-0.468,0.468v3.83c0,0.259,0.209,0.468,0.468,0.468h3.852c0.259,0,0.468-0.209,0.468-0.468v-0.161
	c0-0.132-0.056-0.258-0.153-0.347c-1.025-0.93-1.722-2.113-2.013-3.424c-0.048-0.214-0.237-0.366-0.457-0.366H520.589z
	 M513.976,268.454c-0.259,0-0.468,0.209-0.468,0.468v3.83c0,0.259,0.209,0.468,0.468,0.468h3.852c0.259,0,0.468-0.209,0.468-0.468
	v-3.83c0-0.259-0.209-0.468-0.468-0.468H513.976z M507.364,268.454c-0.259,0-0.468,0.209-0.468,0.468v3.83
	c0,0.259,0.209,0.468,0.468,0.468h3.849c0.259,0,0.468-0.209,0.468-0.468v-3.83c0-0.259-0.209-0.468-0.468-0.468H507.364z
	 M500.39,268.454c-0.259,0-0.468,0.209-0.468,0.468v3.83c0,0.259,0.209,0.468,0.468,0.468h4.205c0.259,0,0.468-0.209,0.468-0.468
	v-3.83c0-0.259-0.209-0.468-0.468-0.468H500.39z M493.778,268.454c-0.259,0-0.468,0.209-0.468,0.468v3.83
	c0,0.259,0.209,0.468,0.468,0.468h3.848c0.259,0,0.468-0.209,0.468-0.468v-3.83c0-0.259-0.209-0.468-0.468-0.468H493.778z
	 M487.165,268.454c-0.259,0-0.468,0.209-0.468,0.468v3.83c0,0.259,0.209,0.468,0.468,0.468h3.844c0.259,0,0.468-0.209,0.468-0.468
	v-3.83c0-0.259-0.209-0.468-0.468-0.468H487.165z M482.563,268.454c-0.222,0-0.413,0.155-0.458,0.372
	c-0.274,1.314-0.904,2.445-1.872,3.36c-0.094,0.088-0.146,0.211-0.146,0.34v0.226c0,0.259,0.209,0.468,0.468,0.468h3.84
	c0.259,0,0.468-0.209,0.468-0.468v-3.83c0-0.259-0.209-0.468-0.468-0.468H482.563z M421.009,268.454
	c-0.258,0-0.468,0.209-0.468,0.468v3.83c0,0.259,0.209,0.468,0.468,0.468h3.848c0.258,0,0.468-0.209,0.468-0.468v-0.161
	c0-0.133-0.056-0.259-0.154-0.348c-1.024-0.923-1.719-2.106-2.01-3.422c-0.047-0.215-0.237-0.367-0.457-0.367H421.009z
	 M414.396,268.454c-0.258,0-0.468,0.209-0.468,0.468v3.83c0,0.259,0.209,0.468,0.468,0.468h3.844c0.258,0,0.468-0.209,0.468-0.468
	v-3.83c0-0.259-0.209-0.468-0.468-0.468H414.396z M407.784,268.454c-0.258,0-0.468,0.209-0.468,0.468v3.83
	c0,0.259,0.209,0.468,0.468,0.468h3.839c0.258,0,0.468-0.209,0.468-0.468v-3.83c0-0.259-0.209-0.468-0.468-0.468H407.784z
	 M400.809,268.454c-0.258,0-0.468,0.209-0.468,0.468v3.83c0,0.259,0.209,0.468,0.468,0.468h4.197c0.258,0,0.468-0.209,0.468-0.468
	v-3.83c0-0.259-0.209-0.468-0.468-0.468H400.809z M394.196,268.454c-0.258,0-0.468,0.209-0.468,0.468v3.83
	c0,0.259,0.209,0.468,0.468,0.468h3.848c0.258,0,0.468-0.209,0.468-0.468v-3.83c0-0.259-0.209-0.468-0.468-0.468H394.196z
	 M387.584,268.454c-0.258,0-0.468,0.209-0.468,0.468v3.83c0,0.259,0.209,0.468,0.468,0.468h3.843c0.258,0,0.468-0.209,0.468-0.468
	v-3.83c0-0.259-0.209-0.468-0.468-0.468H387.584z M382.985,268.454c-0.222,0-0.414,0.156-0.458,0.374
	c-0.268,1.305-0.899,2.436-1.877,3.359c-0.094,0.088-0.146,0.211-0.146,0.34v0.225c0,0.259,0.209,0.468,0.468,0.468h3.839
	c0.258,0,0.468-0.209,0.468-0.468v-3.83c0-0.259-0.209-0.468-0.468-0.468H382.985z M321.426,268.454
	c-0.258,0-0.468,0.209-0.468,0.468v3.83c0,0.259,0.21,0.468,0.468,0.468h3.851c0.258,0,0.468-0.209,0.468-0.468v-0.161
	c0-0.133-0.056-0.259-0.155-0.348c-1.025-0.923-1.72-2.106-2.01-3.422c-0.047-0.215-0.237-0.367-0.457-0.367H321.426z
	 M314.815,268.454c-0.258,0-0.468,0.209-0.468,0.468v3.83c0,0.259,0.209,0.468,0.468,0.468h3.845c0.258,0,0.468-0.209,0.468-0.468
	v-3.83c0-0.259-0.209-0.468-0.468-0.468H314.815z M308.202,268.454c-0.258,0-0.468,0.209-0.468,0.468v3.83
	c0,0.259,0.209,0.468,0.468,0.468h3.841c0.258,0,0.468-0.209,0.468-0.468v-3.83c0-0.259-0.209-0.468-0.468-0.468H308.202z
	 M301.228,268.454c-0.258,0-0.468,0.209-0.468,0.468v3.83c0,0.259,0.209,0.468,0.468,0.468h4.198c0.258,0,0.468-0.209,0.468-0.468
	v-3.83c0-0.259-0.21-0.468-0.468-0.468H301.228z M294.615,268.454c-0.258,0-0.468,0.209-0.468,0.468v3.83
	c0,0.259,0.209,0.468,0.468,0.468h3.85c0.258,0,0.468-0.209,0.468-0.468v-3.83c0-0.259-0.209-0.468-0.468-0.468H294.615z
	 M288.002,268.454c-0.258,0-0.468,0.209-0.468,0.468v3.83c0,0.259,0.209,0.468,0.468,0.468h3.845c0.258,0,0.468-0.209,0.468-0.468
	v-3.83c0-0.259-0.209-0.468-0.468-0.468H288.002z M283.404,268.454c-0.222,0-0.414,0.156-0.458,0.374
	c-0.269,1.308-0.9,2.438-1.876,3.358c-0.094,0.089-0.147,0.212-0.147,0.341v0.225c0,0.259,0.209,0.468,0.468,0.468h3.84
	c0.258,0,0.468-0.209,0.468-0.468v-3.83c0-0.259-0.209-0.468-0.468-0.468H283.404z M221.845,268.454
	c-0.258,0-0.468,0.209-0.468,0.468v3.83c0,0.259,0.209,0.468,0.468,0.468h3.85c0.258,0,0.468-0.209,0.468-0.468v-0.161
	c0-0.133-0.056-0.259-0.154-0.348c-1.023-0.923-1.718-2.106-2.009-3.422c-0.047-0.215-0.237-0.367-0.457-0.367H221.845z
	 M215.232,268.454c-0.258,0-0.468,0.209-0.468,0.468v3.83c0,0.259,0.21,0.468,0.468,0.468h3.846c0.258,0,0.468-0.209,0.468-0.468
	v-3.83c0-0.259-0.209-0.468-0.468-0.468H215.232z M208.621,268.454c-0.258,0-0.468,0.209-0.468,0.468v3.83
	c0,0.259,0.209,0.468,0.468,0.468h3.84c0.258,0,0.468-0.209,0.468-0.468v-3.83c0-0.259-0.21-0.468-0.468-0.468H208.621z
	 M593.36,261.837c-0.259,0-0.468,0.209-0.468,0.468v3.83c0,0.259,0.209,0.468,0.468,0.468h3.834c0.259,0,0.468-0.209,0.468-0.468
	v-3.83c0-0.259-0.209-0.468-0.468-0.468H593.36z M586.743,261.837c-0.259,0-0.468,0.209-0.468,0.468v3.83
	c0,0.259,0.209,0.468,0.468,0.468h3.834c0.259,0,0.468-0.209,0.468-0.468v-3.83c0-0.259-0.209-0.468-0.468-0.468H586.743z
	 M581.106,261.837c-0.16,0-0.31,0.082-0.396,0.218s-0.096,0.306-0.027,0.451c0.602,1.264,0.971,2.502,1.098,3.679
	c0.025,0.238,0.226,0.418,0.465,0.418h1.714c0.259,0,0.468-0.209,0.468-0.468v-3.83c0-0.259-0.209-0.468-0.468-0.468H581.106z
	 M520.589,261.837c-0.259,0-0.468,0.209-0.468,0.468v3.83c0,0.259,0.209,0.468,0.468,0.468h1.575c0.239,0,0.44-0.181,0.466-0.419
	c0.123-1.179,0.499-2.415,1.117-3.672c0.071-0.146,0.063-0.317-0.022-0.454c-0.086-0.138-0.235-0.221-0.397-0.221H520.589z
	 M513.976,261.837c-0.259,0-0.468,0.209-0.468,0.468v3.83c0,0.259,0.209,0.468,0.468,0.468h3.852c0.259,0,0.468-0.209,0.468-0.468
	v-3.83c0-0.259-0.209-0.468-0.468-0.468H513.976z M507.364,261.837c-0.259,0-0.468,0.209-0.468,0.468v3.83
	c0,0.259,0.209,0.468,0.468,0.468h3.849c0.259,0,0.468-0.209,0.468-0.468v-3.83c0-0.259-0.209-0.468-0.468-0.468H507.364z
	 M500.39,261.837c-0.259,0-0.468,0.209-0.468,0.468v3.83c0,0.259,0.209,0.468,0.468,0.468h4.205c0.259,0,0.468-0.209,0.468-0.468
	v-3.83c0-0.259-0.209-0.468-0.468-0.468H500.39z M493.778,261.837c-0.259,0-0.468,0.209-0.468,0.468v3.83
	c0,0.259,0.209,0.468,0.468,0.468h3.848c0.259,0,0.468-0.209,0.468-0.468v-3.83c0-0.259-0.209-0.468-0.468-0.468H493.778z
	 M487.165,261.837c-0.259,0-0.468,0.209-0.468,0.468v3.83c0,0.259,0.209,0.468,0.468,0.468h3.844c0.259,0,0.468-0.209,0.468-0.468
	v-3.83c0-0.259-0.209-0.468-0.468-0.468H487.165z M481.535,261.837c-0.16,0-0.309,0.081-0.395,0.217
	c-0.086,0.135-0.098,0.305-0.029,0.449c0.581,1.242,0.95,2.482,1.096,3.688c0.028,0.234,0.229,0.411,0.465,0.411h1.722
	c0.259,0,0.468-0.209,0.468-0.468v-3.83c0-0.259-0.209-0.468-0.468-0.468H481.535z M421.009,261.837
	c-0.258,0-0.468,0.209-0.468,0.468v3.83c0,0.259,0.209,0.468,0.468,0.468h1.569c0.238,0,0.438-0.178,0.465-0.414
	c0.138-1.193,0.514-2.432,1.118-3.68c0.07-0.146,0.061-0.316-0.025-0.453c-0.085-0.136-0.235-0.219-0.396-0.219H421.009z
	 M414.396,261.837c-0.258,0-0.468,0.209-0.468,0.468v3.83c0,0.259,0.209,0.468,0.468,0.468h3.844c0.258,0,0.468-0.209,0.468-0.468
	v-3.83c0-0.259-0.209-0.468-0.468-0.468H414.396z M407.784,261.837c-0.258,0-0.468,0.209-0.468,0.468v3.83
	c0,0.259,0.209,0.468,0.468,0.468h3.839c0.258,0,0.468-0.209,0.468-0.468v-3.83c0-0.259-0.209-0.468-0.468-0.468H407.784z
	 M400.809,261.837c-0.258,0-0.468,0.209-0.468,0.468v3.83c0,0.259,0.209,0.468,0.468,0.468h4.197c0.258,0,0.468-0.209,0.468-0.468
	v-3.83c0-0.259-0.209-0.468-0.468-0.468H400.809z M394.196,261.837c-0.258,0-0.468,0.209-0.468,0.468v3.83
	c0,0.259,0.209,0.468,0.468,0.468h3.848c0.258,0,0.468-0.209,0.468-0.468v-3.83c0-0.259-0.209-0.468-0.468-0.468H394.196z
	 M387.584,261.837c-0.258,0-0.468,0.209-0.468,0.468v3.83c0,0.259,0.209,0.468,0.468,0.468h3.843c0.258,0,0.468-0.209,0.468-0.468
	v-3.83c0-0.259-0.209-0.468-0.468-0.468H387.584z M381.952,261.837c-0.16,0-0.309,0.082-0.395,0.217s-0.097,0.305-0.029,0.45
	c0.591,1.26,0.958,2.499,1.092,3.684c0.026,0.236,0.227,0.415,0.465,0.415h1.726c0.258,0,0.468-0.209,0.468-0.468v-3.83
	c0-0.259-0.209-0.468-0.468-0.468H381.952z M321.426,261.837c-0.258,0-0.468,0.209-0.468,0.468v3.83c0,0.259,0.21,0.468,0.468,0.468
	h1.571c0.238,0,0.438-0.178,0.465-0.414c0.138-1.196,0.514-2.435,1.118-3.68c0.071-0.145,0.061-0.316-0.024-0.452
	c-0.085-0.137-0.235-0.22-0.396-0.22H321.426z M314.815,261.837c-0.258,0-0.468,0.209-0.468,0.468v3.83
	c0,0.259,0.209,0.468,0.468,0.468h3.845c0.258,0,0.468-0.209,0.468-0.468v-3.83c0-0.259-0.209-0.468-0.468-0.468H314.815z
	 M308.202,261.837c-0.258,0-0.468,0.209-0.468,0.468v3.83c0,0.259,0.209,0.468,0.468,0.468h3.841c0.258,0,0.468-0.209,0.468-0.468
	v-3.83c0-0.259-0.209-0.468-0.468-0.468H308.202z M301.228,261.837c-0.258,0-0.468,0.209-0.468,0.468v3.83
	c0,0.259,0.209,0.468,0.468,0.468h4.198c0.258,0,0.468-0.209,0.468-0.468v-3.83c0-0.259-0.21-0.468-0.468-0.468H301.228z
	 M294.615,261.837c-0.258,0-0.468,0.209-0.468,0.468v3.83c0,0.259,0.209,0.468,0.468,0.468h3.85c0.258,0,0.468-0.209,0.468-0.468
	v-3.83c0-0.259-0.209-0.468-0.468-0.468H294.615z M288.002,261.837c-0.258,0-0.468,0.209-0.468,0.468v3.83
	c0,0.259,0.209,0.468,0.468,0.468h3.845c0.258,0,0.468-0.209,0.468-0.468v-3.83c0-0.259-0.209-0.468-0.468-0.468H288.002z
	 M282.372,261.837c-0.16,0-0.309,0.082-0.395,0.217s-0.097,0.305-0.029,0.449c0.59,1.259,0.957,2.499,1.091,3.685
	c0.026,0.236,0.227,0.415,0.465,0.415h1.726c0.258,0,0.468-0.209,0.468-0.468v-3.83c0-0.259-0.209-0.468-0.468-0.468H282.372z
	 M221.845,261.837c-0.258,0-0.468,0.209-0.468,0.468v3.83c0,0.259,0.209,0.468,0.468,0.468h1.571c0.238,0,0.438-0.178,0.465-0.414
	c0.139-1.197,0.515-2.436,1.118-3.68c0.07-0.146,0.061-0.316-0.025-0.453c-0.085-0.136-0.235-0.219-0.396-0.219H221.845z
	 M215.232,261.837c-0.258,0-0.468,0.209-0.468,0.468v3.83c0,0.259,0.21,0.468,0.468,0.468h3.846c0.258,0,0.468-0.209,0.468-0.468
	v-3.83c0-0.259-0.209-0.468-0.468-0.468H215.232z M208.621,261.837c-0.258,0-0.468,0.209-0.468,0.468v3.83
	c0,0.259,0.209,0.468,0.468,0.468h3.84c0.258,0,0.468-0.209,0.468-0.468v-3.83c0-0.259-0.21-0.468-0.468-0.468H208.621z
	 M593.36,255.22c-0.259,0-0.468,0.209-0.468,0.468v3.83c0,0.259,0.209,0.468,0.468,0.468h3.834c0.259,0,0.468-0.209,0.468-0.468
	V255.9c0-0.071-0.017-0.143-0.048-0.207l-0.12-0.229c-0.081-0.151-0.239-0.245-0.411-0.245H593.36z M586.743,255.22
	c-0.259,0-0.468,0.209-0.468,0.468v3.83c0,0.259,0.209,0.468,0.468,0.468h3.834c0.259,0,0.468-0.209,0.468-0.468v-3.83
	c0-0.259-0.209-0.468-0.468-0.468H586.743z M580.126,255.22c-0.259,0-0.468,0.209-0.468,0.468v3.83c0,0.259,0.209,0.468,0.468,0.468
	h3.834c0.259,0,0.468-0.209,0.468-0.468v-3.83c0-0.259-0.209-0.468-0.468-0.468H580.126z M563.16,255.22
	c-0.24,0-0.441,0.182-0.466,0.421c-0.104,1.049-0.359,2.275-0.779,3.749c-0.04,0.141-0.012,0.293,0.077,0.41
	c0.088,0.117,0.227,0.186,0.373,0.186h0.238c0.151,0,0.293-0.073,0.381-0.196c0.492-0.689,1.007-1.349,1.488-1.907
	c0.073-0.085,0.113-0.193,0.113-0.306v-1.889c0-0.259-0.209-0.468-0.468-0.468H563.16z M540.427,255.22
	c-0.259,0-0.468,0.209-0.468,0.468v1.966c0,0.113,0.041,0.222,0.115,0.308c0.46,0.528,0.951,1.146,1.461,1.835
	c0.088,0.119,0.228,0.189,0.376,0.189h0.217c0.146,0,0.284-0.068,0.373-0.185c0.088-0.116,0.117-0.268,0.078-0.409
	c-0.41-1.471-0.665-2.698-0.78-3.755c-0.025-0.237-0.226-0.417-0.465-0.417H540.427z M520.589,255.22
	c-0.259,0-0.468,0.209-0.468,0.468v3.83c0,0.259,0.209,0.468,0.468,0.468h3.852c0.259,0,0.468-0.209,0.468-0.468v-3.83
	c0-0.259-0.209-0.468-0.468-0.468H520.589z M513.976,255.22c-0.259,0-0.468,0.209-0.468,0.468v3.83c0,0.259,0.209,0.468,0.468,0.468
	h3.852c0.259,0,0.468-0.209,0.468-0.468v-3.83c0-0.259-0.209-0.468-0.468-0.468H513.976z M507.475,255.22
	c-0.174,0-0.333,0.096-0.414,0.249c0,0.001-0.107,0.205-0.107,0.205c-0.037,0.068-0.057,0.145-0.057,0.223v3.621
	c0,0.259,0.209,0.468,0.468,0.468h3.849c0.259,0,0.468-0.209,0.468-0.468v-3.83c0-0.259-0.209-0.468-0.468-0.468H507.475z
	 M493.778,255.22c-0.259,0-0.468,0.209-0.468,0.468v3.83c0,0.259,0.209,0.468,0.468,0.468h3.848c0.259,0,0.468-0.209,0.468-0.468
	v-3.598c0-0.078-0.02-0.154-0.057-0.223l-0.128-0.239c-0.083-0.147-0.239-0.238-0.408-0.238H493.778z M487.165,255.22
	c-0.259,0-0.468,0.209-0.468,0.468v3.83c0,0.259,0.209,0.468,0.468,0.468h3.844c0.259,0,0.468-0.209,0.468-0.468v-3.83
	c0-0.259-0.209-0.468-0.468-0.468H487.165z M480.554,255.22c-0.259,0-0.468,0.209-0.468,0.468v3.83c0,0.259,0.209,0.468,0.468,0.468
	h3.84c0.259,0,0.468-0.209,0.468-0.468v-3.83c0-0.259-0.209-0.468-0.468-0.468H480.554z M463.586,255.22
	c-0.238,0-0.438,0.179-0.465,0.416c-0.12,1.085-0.383,2.349-0.781,3.754c-0.04,0.142-0.012,0.293,0.077,0.41
	c0.088,0.117,0.227,0.186,0.373,0.186h0.229c0.149,0,0.29-0.071,0.378-0.191c0.443-0.607,0.969-1.31,1.499-1.913
	c0.075-0.085,0.116-0.194,0.116-0.309v-1.885c0-0.259-0.209-0.468-0.468-0.468H463.586z M440.854,255.22
	c-0.259,0-0.468,0.209-0.468,0.468v1.967c0,0.112,0.04,0.221,0.113,0.306c0.461,0.534,0.945,1.15,1.443,1.833
	c0.088,0.121,0.229,0.192,0.378,0.192h0.231c0.146,0,0.285-0.068,0.373-0.187c0.089-0.117,0.117-0.27,0.076-0.41
	c-0.405-1.412-0.666-2.674-0.775-3.748c-0.023-0.239-0.225-0.421-0.465-0.421H440.854z M421.009,255.22
	c-0.258,0-0.468,0.209-0.468,0.468v3.83c0,0.259,0.209,0.468,0.468,0.468h3.848c0.258,0,0.468-0.209,0.468-0.468v-3.83
	c0-0.259-0.209-0.468-0.468-0.468H421.009z M414.396,255.22c-0.258,0-0.468,0.209-0.468,0.468v3.83c0,0.259,0.209,0.468,0.468,0.468
	h3.844c0.258,0,0.468-0.209,0.468-0.468v-3.83c0-0.259-0.209-0.468-0.468-0.468H414.396z M407.893,255.22
	c-0.17,0-0.328,0.093-0.41,0.242l-0.108,0.201c-0.036,0.067-0.059,0.151-0.059,0.228v3.627c0,0.259,0.209,0.468,0.468,0.468h3.839
	c0.258,0,0.468-0.209,0.468-0.468v-3.83c0-0.259-0.209-0.468-0.468-0.468H407.893z M394.196,255.22
	c-0.258,0-0.468,0.209-0.468,0.468v3.83c0,0.259,0.209,0.468,0.468,0.468h3.848c0.258,0,0.468-0.209,0.468-0.468v-3.601
	c0-0.078-0.02-0.155-0.057-0.225l-0.128-0.232c-0.083-0.148-0.239-0.24-0.409-0.24H394.196z M387.584,255.22
	c-0.258,0-0.468,0.209-0.468,0.468v3.83c0,0.259,0.209,0.468,0.468,0.468h3.843c0.258,0,0.468-0.209,0.468-0.468v-3.83
	c0-0.259-0.209-0.468-0.468-0.468H387.584z M380.971,255.22c-0.258,0-0.468,0.209-0.468,0.468v3.83c0,0.259,0.209,0.468,0.468,0.468
	h3.839c0.258,0,0.468-0.209,0.468-0.468v-3.83c0-0.259-0.209-0.468-0.468-0.468H380.971z M364.003,255.22
	c-0.239,0-0.439,0.18-0.465,0.417c-0.116,1.058-0.379,2.321-0.782,3.754c-0.04,0.142-0.011,0.293,0.078,0.409
	c0.088,0.117,0.227,0.186,0.373,0.186h0.235c0.15,0,0.291-0.071,0.379-0.193c0.586-0.81,1.06-1.417,1.489-1.91
	c0.074-0.086,0.115-0.194,0.115-0.308v-1.887c0-0.259-0.21-0.468-0.468-0.468H364.003z M341.273,255.22
	c-0.258,0-0.468,0.209-0.468,0.468v1.967c0,0.112,0.04,0.221,0.113,0.306c0.457,0.529,0.942,1.146,1.445,1.834
	c0.088,0.12,0.229,0.191,0.378,0.191h0.23c0.147,0,0.285-0.068,0.374-0.187c0.089-0.117,0.117-0.269,0.076-0.41
	c-0.405-1.415-0.667-2.677-0.775-3.749c-0.024-0.238-0.226-0.42-0.466-0.42H341.273z M321.426,255.22
	c-0.258,0-0.468,0.209-0.468,0.468v3.83c0,0.259,0.21,0.468,0.468,0.468h3.851c0.258,0,0.468-0.209,0.468-0.468v-3.83
	c0-0.259-0.209-0.468-0.468-0.468H321.426z M314.815,255.22c-0.258,0-0.468,0.209-0.468,0.468v3.83c0,0.259,0.209,0.468,0.468,0.468
	h3.845c0.258,0,0.468-0.209,0.468-0.468v-3.83c0-0.259-0.209-0.468-0.468-0.468H314.815z M308.313,255.22
	c-0.171,0-0.329,0.094-0.411,0.243l-0.112,0.208c-0.037,0.068-0.056,0.145-0.056,0.222v3.625c0,0.259,0.209,0.468,0.468,0.468h3.841
	c0.258,0,0.468-0.209,0.468-0.468v-3.83c0-0.259-0.209-0.468-0.468-0.468H308.313z M294.615,255.22
	c-0.258,0-0.468,0.209-0.468,0.468v3.83c0,0.259,0.209,0.468,0.468,0.468h3.85c0.258,0,0.468-0.209,0.468-0.468v-3.601
	c0-0.079-0.02-0.157-0.058-0.227l-0.127-0.229c-0.082-0.149-0.239-0.242-0.41-0.242H294.615z M288.002,255.22
	c-0.258,0-0.468,0.209-0.468,0.468v3.83c0,0.259,0.209,0.468,0.468,0.468h3.845c0.258,0,0.468-0.209,0.468-0.468v-3.83
	c0-0.259-0.209-0.468-0.468-0.468H288.002z M281.39,255.22c-0.258,0-0.468,0.209-0.468,0.468v3.83c0,0.259,0.209,0.468,0.468,0.468
	h3.84c0.258,0,0.468-0.209,0.468-0.468v-3.83c0-0.259-0.209-0.468-0.468-0.468H281.39z M264.424,255.22
	c-0.238,0-0.439,0.179-0.465,0.416c-0.118,1.061-0.382,2.324-0.784,3.755c-0.04,0.142-0.011,0.293,0.078,0.409
	c0.088,0.117,0.227,0.186,0.373,0.186h0.236c0.15,0,0.291-0.071,0.379-0.193c0.373-0.515,0.934-1.272,1.491-1.91
	c0.074-0.085,0.115-0.194,0.115-0.308v-1.887c0-0.259-0.209-0.468-0.468-0.468H264.424z M241.693,255.22
	c-0.258,0-0.468,0.209-0.468,0.468v1.967c0,0.112,0.04,0.221,0.113,0.306c0.448,0.521,0.935,1.138,1.444,1.834
	c0.088,0.12,0.229,0.191,0.378,0.191h0.231c0.147,0,0.285-0.068,0.374-0.187c0.088-0.117,0.116-0.27,0.076-0.41
	c-0.407-1.418-0.668-2.679-0.777-3.749c-0.024-0.238-0.226-0.42-0.466-0.42H241.693z M221.845,255.22
	c-0.258,0-0.468,0.209-0.468,0.468v3.83c0,0.259,0.209,0.468,0.468,0.468h3.85c0.258,0,0.468-0.209,0.468-0.468v-3.83
	c0-0.259-0.209-0.468-0.468-0.468H221.845z M215.232,255.22c-0.258,0-0.468,0.209-0.468,0.468v3.83c0,0.259,0.21,0.468,0.468,0.468
	h3.846c0.258,0,0.468-0.209,0.468-0.468v-3.83c0-0.259-0.209-0.468-0.468-0.468H215.232z M208.731,255.22
	c-0.172,0-0.33,0.094-0.412,0.245l-0.112,0.209c-0.036,0.067-0.054,0.143-0.054,0.219v3.625c0,0.259,0.209,0.468,0.468,0.468h3.84
	c0.258,0,0.468-0.209,0.468-0.468v-3.83c0-0.259-0.21-0.468-0.468-0.468H208.731z M527.202,255.22c-0.259,0-0.468,0.209-0.468,0.468
	v1.56c0,0.183,0.106,0.35,0.272,0.426c0.063,0.028,0.129,0.042,0.195,0.042c0.11,0,0.219-0.038,0.306-0.113
	c0.681-0.586,1.386-1.095,2.095-1.511c0.182-0.106,0.27-0.322,0.214-0.526c-0.055-0.203-0.24-0.345-0.451-0.345H527.202z
	 M328.039,255.22c-0.258,0-0.468,0.209-0.468,0.468v1.558c0,0.184,0.107,0.35,0.273,0.426c0.063,0.028,0.129,0.042,0.195,0.042
	c0.11,0,0.219-0.039,0.306-0.114c0.674-0.582,1.376-1.09,2.089-1.508c0.182-0.106,0.27-0.322,0.215-0.526
	c-0.055-0.203-0.24-0.345-0.452-0.345H328.039z M228.459,255.22c-0.258,0-0.468,0.209-0.468,0.468v1.557
	c0,0.184,0.107,0.35,0.274,0.426c0.062,0.028,0.128,0.042,0.194,0.042c0.11,0,0.219-0.039,0.306-0.114
	c0.673-0.582,1.375-1.089,2.086-1.507c0.182-0.106,0.27-0.322,0.215-0.526c-0.056-0.203-0.24-0.345-0.452-0.345H228.459z
	 M427.62,255.22c-0.258,0-0.468,0.209-0.468,0.468v1.557c0,0.184,0.106,0.35,0.273,0.426c0.063,0.028,0.129,0.042,0.195,0.042
	c0.11,0,0.219-0.039,0.306-0.114c0.674-0.583,1.376-1.09,2.087-1.507c0.182-0.106,0.27-0.322,0.215-0.526
	c-0.056-0.203-0.24-0.345-0.452-0.345H427.62z M475.72,255.22c-0.21,0-0.394,0.139-0.45,0.341s0.027,0.417,0.206,0.526
	c0.686,0.419,1.354,0.923,1.988,1.495c0.087,0.08,0.199,0.121,0.313,0.121c0.064,0,0.129-0.013,0.189-0.04
	c0.17-0.075,0.278-0.243,0.278-0.428v-1.548c0-0.259-0.209-0.468-0.468-0.468H475.72z M276.563,255.22
	c-0.209,0-0.394,0.139-0.45,0.341c-0.057,0.201,0.027,0.416,0.206,0.525c0.686,0.421,1.352,0.923,1.98,1.493
	c0.088,0.08,0.201,0.121,0.314,0.121c0.064,0,0.129-0.013,0.189-0.04c0.169-0.075,0.279-0.242,0.279-0.428v-1.545
	c0-0.259-0.21-0.468-0.468-0.468H276.563z M376.144,255.22c-0.209,0-0.394,0.139-0.45,0.341c-0.057,0.201,0.027,0.416,0.206,0.525
	c0.688,0.422,1.353,0.924,1.979,1.492c0.088,0.079,0.2,0.121,0.314,0.121c0.064,0,0.128-0.013,0.189-0.04
	c0.169-0.075,0.278-0.242,0.278-0.428v-1.544c0-0.259-0.209-0.468-0.468-0.468H376.144z M575.309,255.22
	c-0.209,0-0.394,0.139-0.45,0.34c-0.058,0.202,0.026,0.417,0.205,0.526c0.683,0.42,1.344,0.921,1.964,1.486
	c0.088,0.08,0.201,0.122,0.315,0.122c0.063,0,0.128-0.013,0.189-0.04c0.169-0.074,0.278-0.242,0.278-0.428v-1.539
	c0-0.259-0.209-0.468-0.468-0.468H575.309z M593.36,250.047c-0.058,0-0.116,0.011-0.172,0.032c-0.179,0.071-0.296,0.243-0.296,0.436
	v2.386c0,0.259,0.209,0.468,0.468,0.468h1.973c0.176,0,0.337-0.099,0.417-0.256c0.08-0.156,0.065-0.345-0.039-0.487
	c-0.623-0.855-1.299-1.674-2.01-2.431C593.611,250.099,593.487,250.047,593.36,250.047z M586.743,248.603
	c-0.259,0-0.468,0.209-0.468,0.468v3.83c0,0.259,0.209,0.468,0.468,0.468h3.834c0.259,0,0.468-0.209,0.468-0.468v-3.83
	c0-0.259-0.209-0.468-0.468-0.468H586.743z M580.126,248.603c-0.259,0-0.468,0.209-0.468,0.468v3.83
	c0,0.259,0.209,0.468,0.468,0.468h3.834c0.259,0,0.468-0.209,0.468-0.468v-3.83c0-0.259-0.209-0.468-0.468-0.468H580.126z
	 M573.509,248.603c-0.259,0-0.468,0.209-0.468,0.468v3.83c0,0.259,0.209,0.468,0.468,0.468h3.834c0.259,0,0.468-0.209,0.468-0.468
	v-3.83c0-0.259-0.209-0.468-0.468-0.468H573.509z M566.892,248.603c-0.259,0-0.468,0.209-0.468,0.468v3.83
	c0,0.259,0.209,0.468,0.468,0.468h3.838c0.259,0,0.468-0.209,0.468-0.468v-3.83c0-0.259-0.209-0.468-0.468-0.468H566.892z
	 M560.723,248.603c-0.195,0-0.37,0.121-0.438,0.305s-0.016,0.39,0.133,0.518c1.15,0.993,1.89,2.197,2.197,3.577
	c0.048,0.214,0.237,0.366,0.457,0.366h1.047c0.259,0,0.468-0.209,0.468-0.468v-3.83c0-0.259-0.209-0.468-0.468-0.468H560.723z
	 M540.427,248.603c-0.259,0-0.468,0.209-0.468,0.468v3.83c0,0.259,0.209,0.468,0.468,0.468h0.985c0.222,0,0.413-0.155,0.458-0.372
	c0.286-1.372,0.988-2.576,2.086-3.58c0.142-0.131,0.189-0.335,0.12-0.516c-0.07-0.18-0.243-0.298-0.437-0.298H540.427z
	 M533.813,248.603c-0.259,0-0.468,0.209-0.468,0.468v3.83c0,0.259,0.209,0.468,0.468,0.468h3.855c0.259,0,0.468-0.209,0.468-0.468
	v-3.83c0-0.259-0.209-0.468-0.468-0.468H533.813z M527.202,248.603c-0.259,0-0.468,0.209-0.468,0.468v3.83
	c0,0.259,0.209,0.468,0.468,0.468h3.854c0.259,0,0.468-0.209,0.468-0.468v-3.83c0-0.259-0.209-0.468-0.468-0.468H527.202z
	 M520.589,248.603c-0.259,0-0.468,0.209-0.468,0.468v3.83c0,0.259,0.209,0.468,0.468,0.468h3.852c0.259,0,0.468-0.209,0.468-0.468
	v-3.83c0-0.259-0.209-0.468-0.468-0.468H520.589z M513.976,248.603c-0.259,0-0.468,0.209-0.468,0.468v3.83
	c0,0.259,0.209,0.468,0.468,0.468h3.852c0.259,0,0.468-0.209,0.468-0.468v-3.83c0-0.259-0.209-0.468-0.468-0.468H513.976z
	 M511.213,250.024c-0.128,0-0.253,0.053-0.344,0.15c-0.744,0.806-1.405,1.606-2.019,2.45c-0.104,0.143-0.119,0.331-0.039,0.487
	c0.08,0.157,0.241,0.256,0.417,0.256h1.984c0.259,0,0.468-0.209,0.468-0.468v-2.408c0-0.192-0.118-0.365-0.297-0.436
	C511.328,250.035,511.271,250.024,511.213,250.024z M493.778,250.053c-0.058,0-0.116,0.011-0.172,0.032
	c-0.179,0.07-0.296,0.243-0.296,0.436v2.38c0,0.259,0.209,0.468,0.468,0.468h1.962c0.176,0,0.337-0.099,0.417-0.255
	c0.08-0.157,0.065-0.346-0.038-0.488c-0.618-0.851-1.291-1.667-1.999-2.424C494.03,250.104,493.905,250.053,493.778,250.053z
	 M487.165,248.603c-0.259,0-0.468,0.209-0.468,0.468v3.83c0,0.259,0.209,0.468,0.468,0.468h3.844c0.259,0,0.468-0.209,0.468-0.468
	v-3.83c0-0.259-0.209-0.468-0.468-0.468H487.165z M480.554,248.603c-0.259,0-0.468,0.209-0.468,0.468v3.83
	c0,0.259,0.209,0.468,0.468,0.468h3.84c0.259,0,0.468-0.209,0.468-0.468v-3.83c0-0.259-0.209-0.468-0.468-0.468H480.554z
	 M473.94,248.603c-0.259,0-0.468,0.209-0.468,0.468v3.83c0,0.259,0.209,0.468,0.468,0.468h3.837c0.259,0,0.468-0.209,0.468-0.468
	v-3.83c0-0.259-0.209-0.468-0.468-0.468H473.94z M467.323,248.603c-0.259,0-0.468,0.209-0.468,0.468v3.83
	c0,0.259,0.209,0.468,0.468,0.468h3.839c0.259,0,0.468-0.209,0.468-0.468v-3.83c0-0.259-0.209-0.468-0.468-0.468H467.323z
	 M461.153,248.603c-0.195,0-0.37,0.121-0.438,0.305c-0.068,0.183-0.016,0.389,0.132,0.517c1.144,0.989,1.876,2.192,2.178,3.576
	c0.047,0.215,0.237,0.368,0.457,0.368h1.063c0.259,0,0.468-0.209,0.468-0.468v-3.83c0-0.259-0.209-0.468-0.468-0.468H461.153z
	 M440.854,248.603c-0.259,0-0.468,0.209-0.468,0.468v3.83c0,0.259,0.209,0.468,0.468,0.468h0.987c0.223,0,0.414-0.156,0.459-0.373
	c0.283-1.374,0.981-2.579,2.074-3.58c0.143-0.13,0.191-0.334,0.121-0.515c-0.07-0.18-0.244-0.298-0.437-0.298H440.854z
	 M434.236,248.603c-0.258,0-0.467,0.209-0.467,0.468v3.83c0,0.259,0.209,0.468,0.467,0.468h3.852c0.258,0,0.468-0.209,0.468-0.468
	v-3.83c0-0.259-0.21-0.468-0.468-0.468H434.236z M427.62,248.603c-0.258,0-0.468,0.209-0.468,0.468v3.83
	c0,0.259,0.209,0.468,0.468,0.468h3.854c0.258,0,0.468-0.209,0.468-0.468v-3.83c0-0.259-0.209-0.468-0.468-0.468H427.62z
	 M421.009,248.603c-0.258,0-0.468,0.209-0.468,0.468v3.83c0,0.259,0.209,0.468,0.468,0.468h3.848c0.258,0,0.468-0.209,0.468-0.468
	v-3.83c0-0.259-0.209-0.468-0.468-0.468H421.009z M414.396,248.603c-0.258,0-0.468,0.209-0.468,0.468v3.83
	c0,0.259,0.209,0.468,0.468,0.468h3.844c0.258,0,0.468-0.209,0.468-0.468v-3.83c0-0.259-0.209-0.468-0.468-0.468H414.396z
	 M411.623,250.024c-0.128,0-0.253,0.053-0.344,0.15c-0.743,0.804-1.402,1.605-2.017,2.45c-0.103,0.143-0.118,0.331-0.038,0.488
	c0.08,0.156,0.241,0.255,0.417,0.255h1.981c0.258,0,0.468-0.209,0.468-0.468v-2.408c0-0.192-0.118-0.365-0.297-0.436
	C411.738,250.035,411.68,250.024,411.623,250.024z M394.196,250.051c-0.058,0-0.116,0.011-0.172,0.032
	c-0.179,0.071-0.296,0.243-0.296,0.436v2.382c0,0.259,0.209,0.468,0.468,0.468h1.971c0.176,0,0.338-0.099,0.417-0.256
	s0.064-0.347-0.04-0.488c-0.628-0.858-1.304-1.674-2.007-2.425C394.448,250.103,394.323,250.051,394.196,250.051z M387.584,248.603
	c-0.258,0-0.468,0.209-0.468,0.468v3.83c0,0.259,0.209,0.468,0.468,0.468h3.843c0.258,0,0.468-0.209,0.468-0.468v-3.83
	c0-0.259-0.209-0.468-0.468-0.468H387.584z M380.971,248.603c-0.258,0-0.468,0.209-0.468,0.468v3.83
	c0,0.259,0.209,0.468,0.468,0.468h3.839c0.258,0,0.468-0.209,0.468-0.468v-3.83c0-0.259-0.209-0.468-0.468-0.468H380.971z
	 M374.359,248.603c-0.258,0-0.468,0.209-0.468,0.468v3.83c0,0.259,0.209,0.468,0.468,0.468h3.834c0.258,0,0.468-0.209,0.468-0.468
	v-3.83c0-0.259-0.209-0.468-0.468-0.468H374.359z M367.742,248.603c-0.258,0-0.468,0.209-0.468,0.468v3.83
	c0,0.259,0.209,0.468,0.468,0.468h3.833c0.258,0,0.468-0.209,0.468-0.468v-3.83c0-0.259-0.209-0.468-0.468-0.468H367.742z
	 M361.571,248.603c-0.195,0-0.37,0.121-0.438,0.305c-0.068,0.183-0.016,0.389,0.132,0.517c1.143,0.99,1.877,2.193,2.181,3.577
	c0.047,0.215,0.237,0.367,0.457,0.367h1.055c0.258,0,0.468-0.209,0.468-0.468v-3.83c0-0.259-0.21-0.468-0.468-0.468H361.571z
	 M341.273,248.603c-0.258,0-0.468,0.209-0.468,0.468v3.83c0,0.259,0.209,0.468,0.468,0.468h0.987c0.222,0,0.414-0.156,0.458-0.373
	c0.283-1.375,0.981-2.579,2.075-3.579c0.143-0.131,0.19-0.335,0.12-0.516c-0.07-0.18-0.243-0.298-0.436-0.298H341.273z
	 M334.656,248.603c-0.258,0-0.468,0.209-0.468,0.468v3.83c0,0.259,0.209,0.468,0.468,0.468h3.85c0.258,0,0.468-0.209,0.468-0.468
	v-3.83c0-0.259-0.209-0.468-0.468-0.468H334.656z M328.039,248.603c-0.258,0-0.468,0.209-0.468,0.468v3.83
	c0,0.259,0.21,0.468,0.468,0.468h3.854c0.258,0,0.468-0.209,0.468-0.468v-3.83c0-0.259-0.209-0.468-0.468-0.468H328.039z
	 M321.426,248.603c-0.258,0-0.468,0.209-0.468,0.468v3.83c0,0.259,0.21,0.468,0.468,0.468h3.851c0.258,0,0.468-0.209,0.468-0.468
	v-3.83c0-0.259-0.209-0.468-0.468-0.468H321.426z M314.815,248.603c-0.258,0-0.468,0.209-0.468,0.468v3.83
	c0,0.259,0.209,0.468,0.468,0.468h3.845c0.258,0,0.468-0.209,0.468-0.468v-3.83c0-0.259-0.209-0.468-0.468-0.468H314.815z
	 M312.043,250.024c-0.128,0-0.253,0.053-0.344,0.15c-0.74,0.8-1.399,1.602-2.017,2.45c-0.104,0.143-0.119,0.331-0.039,0.487
	c0.08,0.157,0.241,0.256,0.417,0.256h1.982c0.258,0,0.468-0.209,0.468-0.468v-2.408c0-0.192-0.118-0.365-0.297-0.436
	C312.158,250.035,312.1,250.024,312.043,250.024z M294.615,250.051c-0.058,0-0.116,0.011-0.172,0.032
	c-0.179,0.071-0.296,0.243-0.296,0.436v2.382c0,0.259,0.209,0.468,0.468,0.468h1.971c0.176,0,0.338-0.099,0.417-0.256
	s0.064-0.347-0.04-0.488c-0.628-0.858-1.304-1.674-2.007-2.425C294.866,250.103,294.742,250.051,294.615,250.051z M288.002,248.603
	c-0.258,0-0.468,0.209-0.468,0.468v3.83c0,0.259,0.209,0.468,0.468,0.468h3.845c0.258,0,0.468-0.209,0.468-0.468v-3.83
	c0-0.259-0.209-0.468-0.468-0.468H288.002z M281.39,248.603c-0.258,0-0.468,0.209-0.468,0.468v3.83c0,0.259,0.209,0.468,0.468,0.468
	h3.84c0.258,0,0.468-0.209,0.468-0.468v-3.83c0-0.259-0.209-0.468-0.468-0.468H281.39z M274.777,248.603
	c-0.258,0-0.468,0.209-0.468,0.468v3.83c0,0.259,0.209,0.468,0.468,0.468h3.836c0.258,0,0.468-0.209,0.468-0.468v-3.83
	c0-0.259-0.21-0.468-0.468-0.468H274.777z M268.162,248.603c-0.258,0-0.468,0.209-0.468,0.468v3.83c0,0.259,0.209,0.468,0.468,0.468
	h3.834c0.258,0,0.468-0.209,0.468-0.468v-3.83c0-0.259-0.209-0.468-0.468-0.468H268.162z M261.993,248.603
	c-0.195,0-0.37,0.121-0.438,0.304c-0.068,0.184-0.016,0.39,0.132,0.518c1.141,0.989,1.874,2.192,2.178,3.577
	c0.047,0.215,0.237,0.367,0.457,0.367h1.058c0.258,0,0.468-0.209,0.468-0.468v-3.83c0-0.259-0.209-0.468-0.468-0.468H261.993z
	 M241.693,248.603c-0.258,0-0.468,0.209-0.468,0.468v3.83c0,0.259,0.209,0.468,0.468,0.468h0.987c0.222,0,0.414-0.156,0.458-0.374
	c0.282-1.374,0.979-2.578,2.073-3.578c0.143-0.131,0.19-0.335,0.12-0.516c-0.07-0.18-0.243-0.298-0.436-0.298H241.693z
	 M235.076,248.603c-0.258,0-0.468,0.209-0.468,0.468v3.83c0,0.259,0.21,0.468,0.468,0.468h3.848c0.258,0,0.468-0.209,0.468-0.468
	v-3.83c0-0.259-0.209-0.468-0.468-0.468H235.076z M228.459,248.603c-0.258,0-0.468,0.209-0.468,0.468v3.83
	c0,0.259,0.21,0.468,0.468,0.468h3.853c0.258,0,0.468-0.209,0.468-0.468v-3.83c0-0.259-0.209-0.468-0.468-0.468H228.459z
	 M221.845,248.603c-0.258,0-0.468,0.209-0.468,0.468v3.83c0,0.259,0.209,0.468,0.468,0.468h3.85c0.258,0,0.468-0.209,0.468-0.468
	v-3.83c0-0.259-0.209-0.468-0.468-0.468H221.845z M215.232,248.603c-0.258,0-0.468,0.209-0.468,0.468v3.83
	c0,0.259,0.21,0.468,0.468,0.468h3.846c0.258,0,0.468-0.209,0.468-0.468v-3.83c0-0.259-0.209-0.468-0.468-0.468H215.232z
	 M212.461,250.024c-0.128,0-0.253,0.053-0.344,0.15c-0.739,0.8-1.399,1.602-2.017,2.45c-0.104,0.143-0.119,0.331-0.039,0.487
	c0.08,0.157,0.241,0.256,0.417,0.256h1.982c0.258,0,0.468-0.209,0.468-0.468v-2.408c0-0.192-0.118-0.365-0.298-0.436
	C212.577,250.035,212.519,250.024,212.461,250.024z M586.743,244.939c-0.083,0-0.167,0.022-0.241,0.066
	c-0.141,0.085-0.227,0.237-0.227,0.401v0.876c0,0.259,0.209,0.468,0.468,0.468h1.506c0.208,0,0.392-0.138,0.449-0.338
	c0.059-0.2-0.023-0.415-0.2-0.526c-0.521-0.328-1.031-0.624-1.534-0.893C586.895,244.958,586.818,244.939,586.743,244.939z
	 M580.126,242.514c-0.106,0-0.212,0.036-0.296,0.105c-0.109,0.089-0.172,0.222-0.172,0.362v3.302c0,0.259,0.209,0.468,0.468,0.468
	h3.834c0.259,0,0.468-0.209,0.468-0.468v-2.165c0-0.192-0.118-0.365-0.297-0.436c-1.277-0.501-2.593-0.891-3.911-1.16
	C580.188,242.517,580.157,242.514,580.126,242.514z M573.509,241.985c-0.259,0-0.468,0.209-0.468,0.468v3.83
	c0,0.259,0.209,0.468,0.468,0.468h3.834c0.259,0,0.468-0.209,0.468-0.468v-3.739c0-0.244-0.188-0.448-0.432-0.467
	c0,0-1.222-0.093-1.233-0.093L573.509,241.985z M566.892,241.985c-0.259,0-0.468,0.209-0.468,0.468v3.83
	c0,0.259,0.209,0.468,0.468,0.468h3.838c0.259,0,0.468-0.209,0.468-0.468v-3.83c0-0.259-0.209-0.468-0.468-0.468H566.892z
	 M560.274,241.985c-0.259,0-0.468,0.209-0.468,0.468v3.83c0,0.259,0.209,0.468,0.468,0.468h3.844c0.259,0,0.468-0.209,0.468-0.468
	v-3.83c0-0.259-0.209-0.468-0.468-0.468H560.274z M553.657,241.985c-0.259,0-0.468,0.209-0.468,0.468v3.83
	c0,0.259,0.209,0.468,0.468,0.468h3.848c0.259,0,0.468-0.209,0.468-0.468v-3.83c0-0.259-0.209-0.468-0.468-0.468H553.657z
	 M547.04,241.985c-0.259,0-0.468,0.209-0.468,0.468v3.83c0,0.259,0.209,0.468,0.468,0.468h3.854c0.259,0,0.468-0.209,0.468-0.468
	v-3.83c0-0.259-0.209-0.468-0.468-0.468H547.04z M540.427,241.985c-0.259,0-0.468,0.209-0.468,0.468v3.83
	c0,0.259,0.209,0.468,0.468,0.468h3.854c0.259,0,0.468-0.209,0.468-0.468v-3.83c0-0.259-0.209-0.468-0.468-0.468H540.427z
	 M533.813,241.985c-0.259,0-0.468,0.209-0.468,0.468v3.83c0,0.259,0.209,0.468,0.468,0.468h3.855c0.259,0,0.468-0.209,0.468-0.468
	v-3.83c0-0.259-0.209-0.468-0.468-0.468H533.813z M527.162,242.043c-0.242,0.021-0.428,0.223-0.428,0.466v3.774
	c0,0.259,0.209,0.468,0.468,0.468h3.854c0.259,0,0.468-0.209,0.468-0.468v-3.83c0-0.259-0.209-0.468-0.468-0.468h-3.211
	C527.831,241.985,527.162,242.043,527.162,242.043z M524.44,242.469c-0.031,0-0.063,0.003-0.095,0.01
	c-1.377,0.284-2.663,0.673-3.933,1.187c-0.177,0.071-0.292,0.243-0.292,0.434v2.185c0,0.259,0.209,0.468,0.468,0.468h3.852
	c0.259,0,0.468-0.209,0.468-0.468v-3.347c0-0.141-0.063-0.274-0.172-0.363C524.651,242.505,524.547,242.469,524.44,242.469z
	 M517.827,244.904c-0.075,0-0.151,0.019-0.221,0.055c-0.543,0.29-1.081,0.603-1.598,0.929c-0.176,0.111-0.258,0.325-0.199,0.525
	c0.058,0.2,0.241,0.338,0.449,0.338h1.568c0.259,0,0.468-0.209,0.468-0.468v-0.911c0-0.164-0.086-0.316-0.227-0.401
	C517.994,244.927,517.91,244.904,517.827,244.904z M487.165,244.941c-0.083,0-0.167,0.022-0.24,0.066
	c-0.142,0.085-0.228,0.237-0.228,0.401v0.874c0,0.259,0.209,0.468,0.468,0.468h1.512c0.209,0,0.393-0.139,0.45-0.339
	c0.058-0.201-0.025-0.416-0.203-0.526c-0.511-0.318-1.024-0.615-1.538-0.89C487.316,244.96,487.241,244.941,487.165,244.941z
	 M480.554,242.515c-0.106,0-0.211,0.036-0.296,0.105c-0.108,0.089-0.172,0.222-0.172,0.362v3.301c0,0.259,0.209,0.468,0.468,0.468
	h3.84c0.259,0,0.468-0.209,0.468-0.468v-2.163c0-0.193-0.119-0.367-0.299-0.437c-1.298-0.502-2.615-0.892-3.914-1.159
	C480.617,242.518,480.585,242.515,480.554,242.515z M473.94,241.985c-0.259,0-0.468,0.209-0.468,0.468v3.83
	c0,0.259,0.209,0.468,0.468,0.468h3.837c0.259,0,0.468-0.209,0.468-0.468v-3.739c0-0.245-0.188-0.448-0.433-0.467
	c0,0-1.247-0.093-1.259-0.093L473.94,241.985z M467.323,241.985c-0.259,0-0.468,0.209-0.468,0.468v3.83
	c0,0.259,0.209,0.468,0.468,0.468h3.839c0.259,0,0.468-0.209,0.468-0.468v-3.83c0-0.259-0.209-0.468-0.468-0.468H467.323z
	 M460.706,241.985c-0.259,0-0.468,0.209-0.468,0.468v3.83c0,0.259,0.209,0.468,0.468,0.468h3.838c0.259,0,0.468-0.209,0.468-0.468
	v-3.83c0-0.259-0.209-0.468-0.468-0.468H460.706z M454.089,241.985c-0.259,0-0.468,0.209-0.468,0.468v3.83
	c0,0.259,0.209,0.468,0.468,0.468h3.839c0.259,0,0.468-0.209,0.468-0.468v-3.83c0-0.259-0.209-0.468-0.468-0.468H454.089z
	 M447.471,241.985c-0.258,0-0.467,0.209-0.467,0.468v3.83c0,0.259,0.209,0.468,0.467,0.468h3.842c0.258,0,0.467-0.209,0.467-0.468
	v-3.83c0-0.259-0.209-0.468-0.467-0.468H447.471z M440.854,241.985c-0.259,0-0.468,0.209-0.468,0.468v3.83
	c0,0.259,0.209,0.468,0.468,0.468h3.845c0.259,0,0.469-0.209,0.469-0.468v-3.83c0-0.259-0.21-0.468-0.469-0.468H440.854z
	 M434.236,241.985c-0.258,0-0.467,0.209-0.467,0.468v3.83c0,0.259,0.209,0.468,0.467,0.468h3.852c0.258,0,0.468-0.209,0.468-0.468
	v-3.83c0-0.259-0.21-0.468-0.468-0.468H434.236z M427.576,242.043c-0.24,0.022-0.424,0.225-0.424,0.466v3.774
	c0,0.259,0.209,0.468,0.468,0.468h3.854c0.258,0,0.468-0.209,0.468-0.468v-3.83c0-0.259-0.209-0.468-0.468-0.468h-3.21
	C428.251,241.985,427.576,242.043,427.576,242.043z M424.857,242.47c-0.032,0-0.064,0.003-0.096,0.01
	c-1.364,0.284-2.686,0.684-3.928,1.186c-0.177,0.071-0.292,0.243-0.292,0.434v2.185c0,0.259,0.209,0.468,0.468,0.468h3.848
	c0.258,0,0.468-0.209,0.468-0.468v-3.346c0-0.141-0.063-0.274-0.172-0.363C425.068,242.506,424.963,242.47,424.857,242.47z
	 M418.239,244.905c-0.076,0-0.152,0.019-0.221,0.055c-0.554,0.297-1.086,0.606-1.596,0.927c-0.177,0.111-0.258,0.325-0.201,0.526
	c0.058,0.2,0.241,0.338,0.45,0.338h1.568c0.258,0,0.468-0.209,0.468-0.468v-0.91c0-0.164-0.086-0.317-0.227-0.401
	C418.406,244.928,418.323,244.905,418.239,244.905z M387.584,244.941c-0.083,0-0.167,0.022-0.241,0.066
	c-0.141,0.085-0.227,0.237-0.227,0.401v0.874c0,0.259,0.209,0.468,0.468,0.468h1.509c0.209,0,0.393-0.138,0.45-0.339
	c0.058-0.201-0.025-0.415-0.202-0.526c-0.514-0.32-1.027-0.618-1.537-0.89C387.735,244.96,387.66,244.941,387.584,244.941z
	 M380.971,242.514c-0.107,0-0.211,0.036-0.296,0.105c-0.109,0.089-0.172,0.222-0.172,0.362v3.302c0,0.259,0.209,0.468,0.468,0.468
	h3.839c0.258,0,0.468-0.209,0.468-0.468v-2.163c0-0.193-0.118-0.366-0.298-0.437c-1.292-0.501-2.609-0.892-3.914-1.16
	C381.034,242.517,381.002,242.514,380.971,242.514z M374.359,241.985c-0.259,0-0.468,0.209-0.468,0.468v3.83
	c0,0.259,0.209,0.468,0.468,0.468h3.834c0.258,0,0.468-0.209,0.468-0.468v-3.739c0-0.245-0.188-0.448-0.433-0.467
	c0,0-1.242-0.093-1.253-0.093L374.359,241.985z M367.742,241.985c-0.258,0-0.468,0.209-0.468,0.468v3.83
	c0,0.259,0.209,0.468,0.468,0.468h3.833c0.258,0,0.468-0.209,0.468-0.468v-3.83c0-0.259-0.209-0.468-0.468-0.468H367.742z
	 M361.123,241.985c-0.258,0-0.468,0.209-0.468,0.468v3.83c0,0.259,0.209,0.468,0.468,0.468h3.834c0.258,0,0.468-0.209,0.468-0.468
	v-3.83c0-0.259-0.21-0.468-0.468-0.468H361.123z M354.507,241.985c-0.258,0-0.468,0.209-0.468,0.468v3.83
	c0,0.259,0.21,0.468,0.468,0.468h3.836c0.258,0,0.468-0.209,0.468-0.468v-3.83c0-0.259-0.209-0.468-0.468-0.468H354.507z
	 M347.89,241.985c-0.258,0-0.468,0.209-0.468,0.468v3.83c0,0.259,0.209,0.468,0.468,0.468h3.841c0.258,0,0.468-0.209,0.468-0.468
	v-3.83c0-0.259-0.209-0.468-0.468-0.468H347.89z M341.273,241.985c-0.258,0-0.468,0.209-0.468,0.468v3.83
	c0,0.259,0.209,0.468,0.468,0.468h3.845c0.258,0,0.468-0.209,0.468-0.468v-3.83c0-0.259-0.209-0.468-0.468-0.468H341.273z
	 M334.656,241.985c-0.258,0-0.468,0.209-0.468,0.468v3.83c0,0.259,0.209,0.468,0.468,0.468h3.85c0.258,0,0.468-0.209,0.468-0.468
	v-3.83c0-0.259-0.209-0.468-0.468-0.468H334.656z M327.994,242.043c-0.24,0.022-0.424,0.225-0.424,0.466v3.774
	c0,0.259,0.21,0.468,0.468,0.468h3.854c0.258,0,0.468-0.209,0.468-0.468v-3.83c0-0.259-0.209-0.468-0.468-0.468h-3.21
	C328.669,241.985,327.994,242.043,327.994,242.043z M325.277,242.47c-0.032,0-0.064,0.003-0.095,0.01
	c-1.37,0.285-2.692,0.684-3.932,1.186c-0.177,0.071-0.292,0.243-0.292,0.434v2.185c0,0.259,0.21,0.468,0.468,0.468h3.851
	c0.258,0,0.468-0.209,0.468-0.468v-3.346c0-0.141-0.063-0.274-0.172-0.363C325.488,242.506,325.384,242.47,325.277,242.47z
	 M318.66,244.905c-0.076,0-0.152,0.019-0.221,0.055c-0.555,0.298-1.088,0.606-1.597,0.927c-0.177,0.111-0.258,0.326-0.201,0.526
	s0.241,0.338,0.45,0.338h1.569c0.258,0,0.468-0.209,0.468-0.468v-0.91c0-0.164-0.086-0.317-0.228-0.401
	C318.827,244.928,318.744,244.905,318.66,244.905z M288.002,244.941c-0.083,0-0.167,0.022-0.241,0.066
	c-0.141,0.085-0.227,0.237-0.227,0.401v0.874c0,0.259,0.209,0.468,0.468,0.468h1.511c0.209,0,0.393-0.138,0.45-0.339
	c0.058-0.201-0.025-0.415-0.202-0.526c-0.515-0.32-1.029-0.618-1.538-0.89C288.154,244.959,288.078,244.941,288.002,244.941z
	 M281.39,242.514c-0.107,0-0.211,0.036-0.296,0.105c-0.109,0.089-0.172,0.222-0.172,0.362v3.302c0,0.259,0.209,0.468,0.468,0.468
	h3.84c0.258,0,0.468-0.209,0.468-0.468v-2.163c0-0.193-0.119-0.366-0.298-0.437c-1.293-0.501-2.61-0.892-3.916-1.16
	C281.453,242.517,281.421,242.514,281.39,242.514z M274.777,241.985c-0.259,0-0.468,0.209-0.468,0.468v3.83
	c0,0.259,0.209,0.468,0.468,0.468h3.836c0.258,0,0.468-0.209,0.468-0.468v-3.739c0-0.245-0.189-0.448-0.433-0.467
	c0,0-1.243-0.093-1.255-0.093L274.777,241.985z M268.162,241.985c-0.258,0-0.468,0.209-0.468,0.468v3.83
	c0,0.259,0.209,0.468,0.468,0.468h3.834c0.258,0,0.468-0.209,0.468-0.468v-3.83c0-0.259-0.209-0.468-0.468-0.468H268.162z
	 M261.545,241.985c-0.258,0-0.468,0.209-0.468,0.468v3.83c0,0.259,0.21,0.468,0.468,0.468h3.834c0.258,0,0.468-0.209,0.468-0.468
	v-3.83c0-0.259-0.209-0.468-0.468-0.468H261.545z M254.928,241.985c-0.258,0-0.468,0.209-0.468,0.468v3.83
	c0,0.259,0.209,0.468,0.468,0.468h3.834c0.258,0,0.468-0.209,0.468-0.468v-3.83c0-0.259-0.209-0.468-0.468-0.468H254.928z
	 M248.311,241.985c-0.258,0-0.468,0.209-0.468,0.468v3.83c0,0.259,0.209,0.468,0.468,0.468h3.839c0.258,0,0.468-0.209,0.468-0.468
	v-3.83c0-0.259-0.209-0.468-0.468-0.468H248.311z M241.693,241.985c-0.258,0-0.468,0.209-0.468,0.468v3.83
	c0,0.259,0.209,0.468,0.468,0.468h3.844c0.258,0,0.468-0.209,0.468-0.468v-3.83c0-0.259-0.209-0.468-0.468-0.468H241.693z
	 M235.076,241.985c-0.258,0-0.468,0.209-0.468,0.468v3.83c0,0.259,0.21,0.468,0.468,0.468h3.848c0.258,0,0.468-0.209,0.468-0.468
	v-3.83c0-0.259-0.209-0.468-0.468-0.468H235.076z M228.422,242.041c-0.243,0.02-0.431,0.223-0.431,0.467v3.775
	c0,0.259,0.21,0.468,0.468,0.468h3.853c0.258,0,0.468-0.209,0.468-0.468v-3.83c0-0.259-0.209-0.468-0.468-0.468h-3.21
	C229.089,241.985,228.422,242.041,228.422,242.041z M225.695,242.47c-0.032,0-0.064,0.003-0.096,0.01
	c-1.37,0.286-2.692,0.685-3.93,1.186c-0.177,0.071-0.292,0.243-0.292,0.434v2.185c0,0.259,0.209,0.468,0.468,0.468h3.85
	c0.258,0,0.468-0.209,0.468-0.468v-3.346c0-0.141-0.063-0.274-0.173-0.363C225.906,242.506,225.802,242.47,225.695,242.47z
	 M219.079,244.905c-0.076,0-0.152,0.019-0.221,0.055c-0.555,0.298-1.088,0.606-1.597,0.927c-0.177,0.111-0.258,0.326-0.201,0.526
	s0.241,0.338,0.45,0.338h1.569c0.258,0,0.468-0.209,0.468-0.468v-0.91c0-0.164-0.086-0.317-0.228-0.401
	C219.245,244.928,219.162,244.905,219.079,244.905z M566.892,235.368c-0.259,0-0.468,0.209-0.468,0.468v3.83
	c0,0.259,0.209,0.468,0.468,0.468h3.838c0.259,0,0.468-0.209,0.468-0.468v-2.135c0-0.12-0.046-0.236-0.129-0.323
	c-0.591-0.619-1.188-1.198-1.774-1.722c-0.086-0.076-0.196-0.118-0.312-0.118H566.892z M560.274,235.368
	c-0.259,0-0.468,0.209-0.468,0.468v3.83c0,0.259,0.209,0.468,0.468,0.468h3.844c0.259,0,0.468-0.209,0.468-0.468v-3.83
	c0-0.259-0.209-0.468-0.468-0.468H560.274z M553.657,235.368c-0.259,0-0.468,0.209-0.468,0.468v3.83
	c0,0.259,0.209,0.468,0.468,0.468h3.848c0.259,0,0.468-0.209,0.468-0.468v-3.83c0-0.259-0.209-0.468-0.468-0.468H553.657z
	 M547.04,235.368c-0.259,0-0.468,0.209-0.468,0.468v3.83c0,0.259,0.209,0.468,0.468,0.468h3.854c0.259,0,0.468-0.209,0.468-0.468
	v-3.83c0-0.259-0.209-0.468-0.468-0.468H547.04z M540.427,235.368c-0.259,0-0.468,0.209-0.468,0.468v3.83
	c0,0.259,0.209,0.468,0.468,0.468h3.854c0.259,0,0.468-0.209,0.468-0.468v-3.83c0-0.259-0.209-0.468-0.468-0.468H540.427z
	 M535.542,235.368c-0.113,0-0.223,0.041-0.308,0.115c-0.668,0.582-1.244,1.131-1.761,1.678c-0.082,0.087-0.128,0.202-0.128,0.321
	v2.184c0,0.259,0.209,0.468,0.468,0.468h3.855c0.259,0,0.468-0.209,0.468-0.468v-3.83c0-0.259-0.209-0.468-0.468-0.468H535.542z
	 M467.323,235.368c-0.259,0-0.468,0.209-0.468,0.468v3.83c0,0.259,0.209,0.468,0.468,0.468h3.839c0.259,0,0.468-0.209,0.468-0.468
	v-2.135c0-0.12-0.046-0.236-0.129-0.323c-0.617-0.646-1.205-1.21-1.797-1.726c-0.086-0.073-0.194-0.114-0.308-0.114H467.323z
	 M460.706,235.368c-0.259,0-0.468,0.209-0.468,0.468v3.83c0,0.259,0.209,0.468,0.468,0.468h3.838c0.259,0,0.468-0.209,0.468-0.468
	v-3.83c0-0.259-0.209-0.468-0.468-0.468H460.706z M454.089,235.368c-0.259,0-0.468,0.209-0.468,0.468v3.83
	c0,0.259,0.209,0.468,0.468,0.468h3.839c0.259,0,0.468-0.209,0.468-0.468v-3.83c0-0.259-0.209-0.468-0.468-0.468H454.089z
	 M447.471,235.368c-0.258,0-0.467,0.209-0.467,0.468v3.83c0,0.259,0.209,0.468,0.467,0.468h3.842c0.258,0,0.467-0.209,0.467-0.468
	v-3.83c0-0.259-0.209-0.468-0.467-0.468H447.471z M440.854,235.368c-0.259,0-0.468,0.209-0.468,0.468v3.83
	c0,0.259,0.209,0.468,0.468,0.468h3.845c0.259,0,0.469-0.209,0.469-0.468v-3.83c0-0.259-0.21-0.468-0.469-0.468H440.854z
	 M435.961,235.368c-0.111,0-0.221,0.04-0.306,0.113c-0.608,0.525-1.183,1.075-1.758,1.68c-0.083,0.087-0.128,0.202-0.128,0.322
	v2.183c0,0.259,0.209,0.468,0.467,0.468h3.852c0.258,0,0.468-0.209,0.468-0.468v-3.83c0-0.259-0.21-0.468-0.468-0.468H435.961z
	 M367.742,235.368c-0.258,0-0.468,0.209-0.468,0.468v3.83c0,0.259,0.209,0.468,0.468,0.468h3.833c0.258,0,0.468-0.209,0.468-0.468
	v-2.136c0-0.12-0.046-0.235-0.128-0.322c-0.588-0.62-1.189-1.199-1.784-1.724c-0.085-0.075-0.195-0.116-0.309-0.116H367.742z
	 M361.123,235.368c-0.258,0-0.468,0.209-0.468,0.468v3.83c0,0.259,0.209,0.468,0.468,0.468h3.834c0.258,0,0.468-0.209,0.468-0.468
	v-3.83c0-0.259-0.21-0.468-0.468-0.468H361.123z M354.507,235.368c-0.258,0-0.468,0.209-0.468,0.468v3.83
	c0,0.259,0.21,0.468,0.468,0.468h3.836c0.258,0,0.468-0.209,0.468-0.468v-3.83c0-0.259-0.209-0.468-0.468-0.468H354.507z
	 M347.89,235.368c-0.258,0-0.468,0.209-0.468,0.468v3.83c0,0.259,0.209,0.468,0.468,0.468h3.841c0.258,0,0.468-0.209,0.468-0.468
	v-3.83c0-0.259-0.209-0.468-0.468-0.468H347.89z M341.273,235.368c-0.258,0-0.468,0.209-0.468,0.468v3.83
	c0,0.259,0.209,0.468,0.468,0.468h3.845c0.258,0,0.468-0.209,0.468-0.468v-3.83c0-0.259-0.209-0.468-0.468-0.468H341.273z
	 M336.38,235.368c-0.112,0-0.221,0.04-0.306,0.113c-0.604,0.521-1.178,1.07-1.758,1.68c-0.083,0.087-0.128,0.202-0.128,0.322v2.183
	c0,0.259,0.209,0.468,0.468,0.468h3.85c0.258,0,0.468-0.209,0.468-0.468v-3.83c0-0.259-0.209-0.468-0.468-0.468H336.38z
	 M268.162,235.368c-0.258,0-0.468,0.209-0.468,0.468v3.83c0,0.259,0.209,0.468,0.468,0.468h3.834c0.258,0,0.468-0.209,0.468-0.468
	v-2.136c0-0.12-0.046-0.235-0.128-0.322c-0.593-0.624-1.194-1.204-1.786-1.724c-0.085-0.075-0.195-0.116-0.309-0.116H268.162z
	 M261.545,235.368c-0.258,0-0.468,0.209-0.468,0.468v3.83c0,0.259,0.21,0.468,0.468,0.468h3.834c0.258,0,0.468-0.209,0.468-0.468
	v-3.83c0-0.259-0.209-0.468-0.468-0.468H261.545z M254.928,235.368c-0.258,0-0.468,0.209-0.468,0.468v3.83
	c0,0.259,0.209,0.468,0.468,0.468h3.834c0.258,0,0.468-0.209,0.468-0.468v-3.83c0-0.259-0.209-0.468-0.468-0.468H254.928z
	 M248.311,235.368c-0.258,0-0.468,0.209-0.468,0.468v3.83c0,0.259,0.209,0.468,0.468,0.468h3.839c0.258,0,0.468-0.209,0.468-0.468
	v-3.83c0-0.259-0.209-0.468-0.468-0.468H248.311z M241.693,235.368c-0.258,0-0.468,0.209-0.468,0.468v3.83
	c0,0.259,0.209,0.468,0.468,0.468h3.844c0.258,0,0.468-0.209,0.468-0.468v-3.83c0-0.259-0.209-0.468-0.468-0.468H241.693z
	 M236.8,235.368c-0.112,0-0.221,0.04-0.306,0.113c-0.6,0.518-1.175,1.067-1.758,1.68c-0.083,0.087-0.129,0.202-0.129,0.322v2.183
	c0,0.259,0.21,0.468,0.468,0.468h3.848c0.258,0,0.468-0.209,0.468-0.468v-3.83c0-0.259-0.209-0.468-0.468-0.468H236.8z
	 M560.274,230.424c-0.097,0-0.193,0.03-0.274,0.089c-0.121,0.088-0.193,0.229-0.193,0.379v2.161c0,0.259,0.209,0.468,0.468,0.468
	h3.844c0.259,0,0.468-0.209,0.468-0.468v-0.543c0-0.174-0.097-0.334-0.251-0.415c-1.24-0.647-2.521-1.187-3.913-1.647
	C560.373,230.432,560.324,230.424,560.274,230.424z M553.657,229.197c-0.12,0-0.236,0.046-0.323,0.129
	c-0.093,0.089-0.145,0.211-0.145,0.339v3.388c0,0.259,0.209,0.468,0.468,0.468h3.848c0.259,0,0.468-0.209,0.468-0.468v-2.893
	c0-0.222-0.155-0.413-0.372-0.458c-1.325-0.276-2.645-0.446-3.922-0.505C553.672,229.197,553.664,229.197,553.657,229.197z
	 M550.872,229.197c-1.275,0.059-2.597,0.229-3.927,0.505c-0.218,0.045-0.373,0.236-0.373,0.458v2.893
	c0,0.259,0.209,0.468,0.468,0.468h3.854c0.259,0,0.468-0.209,0.468-0.468v-3.388c0-0.128-0.052-0.25-0.145-0.339
	c-0.087-0.083-0.203-0.129-0.323-0.129C550.887,229.197,550.879,229.197,550.872,229.197z M544.28,230.423
	c-0.049,0-0.099,0.008-0.146,0.023c-1.378,0.454-2.698,1.009-3.924,1.648c-0.154,0.081-0.251,0.241-0.251,0.415v0.543
	c0,0.259,0.209,0.468,0.468,0.468h3.854c0.259,0,0.468-0.209,0.468-0.468v-2.162c0-0.15-0.072-0.291-0.193-0.379
	C544.474,230.453,544.378,230.423,544.28,230.423z M460.706,230.425c-0.097,0-0.193,0.03-0.273,0.088
	c-0.122,0.088-0.194,0.229-0.194,0.38v2.16c0,0.259,0.209,0.468,0.468,0.468h3.838c0.259,0,0.468-0.209,0.468-0.468v-0.544
	c0-0.174-0.097-0.334-0.251-0.415c-1.212-0.633-2.526-1.187-3.907-1.646C460.806,230.433,460.756,230.425,460.706,230.425z
	 M454.089,229.197c-0.12,0-0.236,0.046-0.323,0.129c-0.093,0.089-0.145,0.211-0.145,0.339v3.388c0,0.259,0.209,0.468,0.468,0.468
	h3.839c0.259,0,0.468-0.209,0.468-0.468v-2.893c0-0.222-0.155-0.413-0.372-0.458c-1.327-0.276-2.644-0.446-3.913-0.505
	C454.104,229.197,454.096,229.197,454.089,229.197z M451.291,229.197c-1.283,0.059-2.564,0.224-3.916,0.505
	c-0.217,0.045-0.371,0.236-0.371,0.458v2.893c0,0.259,0.209,0.468,0.467,0.468h3.842c0.258,0,0.467-0.209,0.467-0.468v-3.388
	c0-0.128-0.052-0.25-0.145-0.338c-0.086-0.084-0.203-0.13-0.322-0.13C451.305,229.197,451.298,229.197,451.291,229.197z
	 M444.699,230.422c-0.049,0-0.098,0.008-0.146,0.023c-1.375,0.453-2.692,1.008-3.916,1.649c-0.154,0.08-0.25,0.24-0.25,0.414v0.544
	c0,0.259,0.209,0.468,0.468,0.468h3.845c0.259,0,0.469-0.209,0.469-0.468v-2.163c0-0.15-0.072-0.291-0.193-0.379
	C444.893,230.452,444.797,230.422,444.699,230.422z M361.123,230.425c-0.097,0-0.193,0.03-0.274,0.088
	c-0.122,0.088-0.194,0.229-0.194,0.38v2.16c0,0.259,0.209,0.468,0.468,0.468h3.834c0.258,0,0.468-0.209,0.468-0.468v-0.544
	c0-0.174-0.097-0.334-0.251-0.414c-1.204-0.632-2.517-1.186-3.904-1.646C361.222,230.433,361.173,230.425,361.123,230.425z
	 M354.507,229.197c-0.12,0-0.236,0.046-0.323,0.129c-0.092,0.089-0.145,0.211-0.145,0.339v3.388c0,0.259,0.21,0.468,0.468,0.468
	h3.836c0.258,0,0.468-0.209,0.468-0.468v-2.893c0-0.222-0.155-0.413-0.372-0.458c-1.324-0.276-2.64-0.446-3.91-0.505
	C354.521,229.197,354.515,229.197,354.507,229.197z M351.71,229.197c-1.284,0.059-2.564,0.224-3.916,0.505
	c-0.217,0.045-0.372,0.236-0.372,0.458v2.893c0,0.259,0.209,0.468,0.468,0.468h3.841c0.258,0,0.468-0.209,0.468-0.468v-3.388
	c0-0.128-0.052-0.25-0.145-0.338c-0.087-0.084-0.203-0.13-0.323-0.13C351.724,229.197,351.717,229.197,351.71,229.197z
	 M345.119,230.422c-0.049,0-0.099,0.008-0.146,0.023c-1.38,0.454-2.697,1.009-3.917,1.649c-0.154,0.081-0.25,0.24-0.25,0.414v0.544
	c0,0.259,0.209,0.468,0.468,0.468h3.845c0.258,0,0.468-0.209,0.468-0.468v-2.163c0-0.15-0.072-0.291-0.193-0.379
	C345.312,230.452,345.216,230.422,345.119,230.422z M261.545,230.425c-0.097,0-0.193,0.03-0.274,0.088
	c-0.122,0.088-0.194,0.229-0.194,0.38v2.16c0,0.259,0.21,0.468,0.468,0.468h3.834c0.258,0,0.468-0.209,0.468-0.468v-0.544
	c0-0.174-0.096-0.334-0.25-0.414c-1.202-0.63-2.515-1.184-3.903-1.646C261.645,230.433,261.595,230.425,261.545,230.425z
	 M254.928,229.197c-0.12,0-0.236,0.046-0.323,0.129c-0.092,0.089-0.145,0.211-0.145,0.339v3.388c0,0.259,0.209,0.468,0.468,0.468
	h3.834c0.258,0,0.468-0.209,0.468-0.468v-2.893c0-0.222-0.155-0.413-0.372-0.458c-1.325-0.276-2.64-0.446-3.909-0.505
	C254.942,229.197,254.935,229.197,254.928,229.197z M252.129,229.197c-1.283,0.059-2.563,0.224-3.914,0.505
	c-0.217,0.045-0.372,0.236-0.372,0.458v2.893c0,0.259,0.209,0.468,0.468,0.468h3.839c0.258,0,0.468-0.209,0.468-0.468v-3.388
	c0-0.128-0.052-0.25-0.145-0.338c-0.087-0.084-0.203-0.13-0.323-0.13C252.143,229.197,252.136,229.197,252.129,229.197z
	 M245.537,230.422c-0.049,0-0.099,0.008-0.146,0.023c-1.378,0.454-2.695,1.009-3.915,1.649c-0.154,0.08-0.25,0.24-0.25,0.414v0.544
	c0,0.259,0.209,0.468,0.468,0.468h3.844c0.258,0,0.468-0.209,0.468-0.468v-2.163c0-0.15-0.072-0.291-0.193-0.379
	C245.73,230.452,245.634,230.422,245.537,230.422z"/>
</svg>
