<?xml version="1.0" encoding="utf-8"?>
<!-- Generator: Adobe Illustrator 16.0.0, SVG Export Plug-In . SVG Version: 6.00 Build 0)  -->
<!DOCTYPE svg PUBLIC "-//W3C//DTD SVG 1.1//EN" "http://www.w3.org/Graphics/SVG/1.1/DTD/svg11.dtd">
<svg version="1.1" id="Layer_1" xmlns="http://www.w3.org/2000/svg" xmlns:xlink="http://www.w3.org/1999/xlink" x="0px" y="0px"
	 width="864px" height="864px" viewBox="0 0 864 864" enable-background="new 0 0 864 864" xml:space="preserve">
<path fill="#4EC3C7" d="M576.311,328.038c-1.09,0-2.16-0.143-3.18-0.422c-2.824-0.771-5.277-2.949-6.406-5.683
	c-1.041-2.521-0.85-5.242,0.541-7.665c1.197-2.088,3.744-3.438,6.488-3.438c0.432,0,0.867,0.033,1.293,0.1
	c2.689,0.42,4.678,2.158,5.188,4.537c0.131,0.609,0.016,1.234-0.324,1.76c-0.34,0.523-0.861,0.885-1.471,1.016
	c-0.162,0.035-0.328,0.053-0.492,0.053c-1.092,0-2.053-0.777-2.283-1.848c-0.133-0.623-0.895-0.831-1.338-0.9
	c-0.18-0.027-0.367-0.042-0.555-0.042c-1.076,0-2.086,0.448-2.453,1.088c-0.672,1.173-0.766,2.369-0.275,3.557
	c0.572,1.383,1.904,2.572,3.32,2.96c0.613,0.168,1.264,0.253,1.934,0.253c2.586,0,5.258-1.275,6.973-3.327
	c1.412-1.691,3.404-5.386,0.883-11.14c-0.037-0.089-0.098-0.167-0.174-0.228c-5.621-4.531-11.588-9.075-17.299-10.525
	c-2.252-0.572-4.451-0.904-6.541-0.986c-0.008,0-0.037,0-0.043,0c-0.35,0.012-0.697,0.018-1.043,0.018
	c-0.328,0-0.654-0.006-0.979-0.017c-0.008,0-0.037,0-0.047,0.001c-6.096,0.266-11.332,2.811-15.559,7.563
	c-3.658,4.178-4.676,9.258-2.727,13.594c1.332,2.963,3.881,4.89,6.492,4.906c1.627,0,3.252-0.736,4.146-1.878
	c0.689-0.878,0.881-1.944,0.574-3.166c-0.217-0.856-1.391-1.673-2.615-1.819c-0.105-0.012-0.232-0.022-0.367-0.022
	c-0.732,0-1.037,0.287-1.164,0.527c-0.404,0.771-1.197,1.249-2.068,1.249c-0.377,0-0.752-0.094-1.086-0.27
	c-1.141-0.601-1.58-2.016-0.98-3.156c0.996-1.893,2.984-3.023,5.316-3.023c0.297,0,0.602,0.02,0.904,0.056
	c3.188,0.38,5.896,2.565,6.59,5.315c0.662,2.621,0.154,5.176-1.428,7.193c-1.773,2.262-4.758,3.668-7.789,3.668h-0.037
	c-4.52-0.029-8.639-2.967-10.752-7.664c-0.059-0.132-0.115-0.266-0.172-0.401c-0.094-0.227-0.313-0.374-0.559-0.374
	c-0.244,0-0.465,0.148-0.557,0.375c-0.057,0.135-0.113,0.27-0.172,0.4c-2.113,4.697-6.223,7.633-10.725,7.664h-0.068
	c-3.027,0-6.012-1.406-7.785-3.668c-1.582-2.018-2.09-4.572-1.428-7.192c0.693-2.751,3.404-4.937,6.59-5.316
	c0.303-0.036,0.607-0.056,0.904-0.056c2.332,0,4.32,1.131,5.316,3.023c0.6,1.141,0.16,2.556-0.979,3.156
	c-0.336,0.176-0.711,0.27-1.088,0.27c-0.871,0-1.664-0.479-2.068-1.248c-0.127-0.241-0.432-0.528-1.164-0.528
	c-0.135,0-0.262,0.011-0.367,0.022c-1.225,0.146-2.396,0.963-2.613,1.819c-0.309,1.223-0.115,2.288,0.574,3.167
	c0.881,1.123,2.533,1.877,4.113,1.877c2.633-0.017,5.191-1.943,6.525-4.906c1.947-4.336,0.928-9.417-2.729-13.594
	c-4.229-4.754-9.463-7.297-15.559-7.563c-0.008-0.001-0.039-0.001-0.047-0.001c-0.324,0.011-0.65,0.017-0.979,0.017
	c-0.346,0-0.691-0.006-1.043-0.018c-0.006,0-0.035,0-0.043,0c-2.088,0.082-4.289,0.414-6.541,0.986
	c-5.711,1.45-11.678,5.994-17.299,10.525c-0.076,0.061-0.135,0.139-0.174,0.228c-2.521,5.755-0.529,9.449,0.883,11.14
	c1.717,2.053,4.387,3.327,6.973,3.327c0.67,0,1.32-0.085,1.934-0.253c1.416-0.388,2.75-1.577,3.32-2.96
	c0.49-1.187,0.396-2.384-0.275-3.557c-0.367-0.641-1.377-1.088-2.453-1.088c-0.189,0-0.375,0.015-0.555,0.042
	c-0.443,0.069-1.205,0.277-1.338,0.9c-0.23,1.07-1.189,1.848-2.283,1.848c-0.164,0-0.33-0.018-0.492-0.053
	c-0.609-0.131-1.133-0.492-1.473-1.016c-0.338-0.523-0.453-1.148-0.322-1.76c0.51-2.379,2.498-4.117,5.188-4.537
	c0.426-0.066,0.861-0.1,1.295-0.1c2.742,0,5.289,1.35,6.488,3.438c1.389,2.424,1.582,5.146,0.541,7.665
	c-1.129,2.733-3.584,4.911-6.406,5.685c-1.021,0.277-2.092,0.42-3.182,0.42c-3.984,0-7.926-1.872-10.545-5.007
	c-1.945-2.327-3.039-5.178-3.162-8.241c-0.01-0.227-0.145-0.43-0.352-0.524c-0.08-0.036-0.166-0.055-0.25-0.055
	c-0.135,0-0.268,0.044-0.375,0.131c-7.674,6.093-16.75,12.636-27.359,13.128c-0.037,0.002-0.072,0.002-0.109,0.002
	c-7.613,0-11.629-3.07-13.656-5.646c-0.113-0.146-0.289-0.229-0.473-0.229c-0.186,0-0.359,0.084-0.475,0.229
	c-2.027,2.575-6.042,5.646-13.656,5.646c-0.036,0-0.073,0-0.108-0.002c-10.61-0.492-19.686-7.035-27.359-13.128
	c-0.109-0.087-0.241-0.131-0.375-0.131c-0.086,0-0.171,0.019-0.252,0.055c-0.205,0.095-0.342,0.298-0.351,0.524
	c-0.124,3.063-1.217,5.914-3.161,8.241c-2.619,3.135-6.563,5.007-10.545,5.007c-1.091,0-2.161-0.143-3.182-0.422
	c-2.822-0.771-5.277-2.949-6.406-5.683c-1.041-2.52-0.848-5.241,0.541-7.665c1.197-2.088,3.744-3.438,6.488-3.438
	c0.433,0,0.868,0.033,1.293,0.1c2.691,0.42,4.678,2.158,5.188,4.537c0.131,0.611,0.018,1.236-0.322,1.76
	c-0.339,0.523-0.861,0.885-1.473,1.016c-0.162,0.035-0.327,0.053-0.492,0.053c-1.092,0-2.053-0.777-2.281-1.848
	c-0.134-0.622-0.896-0.831-1.338-0.9c-0.182-0.027-0.367-0.042-0.555-0.042c-1.078,0-2.087,0.448-2.454,1.088
	c-0.673,1.173-0.765,2.37-0.275,3.557c0.571,1.384,1.905,2.573,3.319,2.96c0.614,0.168,1.266,0.253,1.936,0.253
	c2.585,0,5.256-1.275,6.973-3.327c1.412-1.691,3.404-5.386,0.883-11.141c-0.039-0.088-0.1-0.166-0.174-0.227
	c-5.623-4.531-11.59-9.075-17.301-10.525c-2.251-0.572-4.451-0.904-6.54-0.986c-0.008,0-0.037,0-0.044,0
	c-0.35,0.012-0.697,0.018-1.043,0.018c-0.328,0-0.654-0.006-0.979-0.017c-0.006,0-0.037,0-0.045,0.001
	c-6.097,0.266-11.332,2.811-15.56,7.563c-3.657,4.178-4.677,9.258-2.728,13.594c1.333,2.963,3.882,4.89,6.494,4.906
	c1.625,0,3.25-0.736,4.145-1.878c0.689-0.88,0.883-1.944,0.574-3.166c-0.217-0.856-1.389-1.673-2.613-1.819
	c-0.107-0.012-0.233-0.022-0.369-0.022c-0.731,0-1.036,0.287-1.162,0.528c-0.406,0.77-1.199,1.248-2.07,1.248
	c-0.376,0-0.752-0.094-1.086-0.27c-0.553-0.291-0.959-0.779-1.144-1.375c-0.185-0.597-0.126-1.229,0.164-1.781
	c0.997-1.893,2.983-3.023,5.317-3.023c0.296,0,0.6,0.02,0.902,0.056c3.188,0.38,5.898,2.565,6.592,5.315
	c0.661,2.621,0.154,5.176-1.428,7.193c-1.774,2.262-4.76,3.668-7.791,3.668h-0.036c-4.519-0.029-8.64-2.967-10.751-7.664
	c-0.06-0.132-0.117-0.266-0.172-0.401c-0.094-0.226-0.314-0.374-0.559-0.374l0,0c-0.244,0-0.465,0.148-0.558,0.374
	c-0.056,0.136-0.113,0.27-0.173,0.401c-2.111,4.697-6.221,7.633-10.725,7.664h-0.067c-3.026,0-6.012-1.406-7.786-3.668
	c-1.582-2.018-2.088-4.572-1.428-7.193c0.693-2.75,3.404-4.936,6.592-5.315c0.303-0.036,0.606-0.056,0.903-0.056
	c2.333,0,4.319,1.131,5.316,3.023c0.601,1.141,0.161,2.556-0.979,3.156c-0.334,0.176-0.71,0.27-1.086,0.27
	c-0.871,0-1.664-0.479-2.07-1.248c-0.126-0.241-0.431-0.528-1.162-0.528c-0.135,0-0.262,0.011-0.369,0.022
	c-1.225,0.146-2.396,0.963-2.613,1.819c-0.309,1.222-0.115,2.286,0.574,3.166c0.881,1.124,2.534,1.878,4.113,1.878
	c2.633-0.017,5.192-1.943,6.525-4.906c1.949-4.336,0.93-9.417-2.728-13.594c-4.229-4.754-9.462-7.297-15.56-7.563
	c-0.008-0.001-0.039-0.001-0.045-0.001c-0.324,0.011-0.65,0.017-0.979,0.017c-0.346,0-0.693-0.006-1.043-0.018
	c-0.007,0-0.036,0-0.044,0c-2.089,0.082-4.289,0.414-6.54,0.986c-5.711,1.45-11.678,5.994-17.3,10.525
	c-0.075,0.061-0.136,0.139-0.174,0.227c-2.522,5.754-0.529,9.449,0.883,11.141c1.716,2.053,4.388,3.327,6.972,3.327
	c0.67,0,1.321-0.085,1.936-0.253c1.414-0.387,2.748-1.576,3.32-2.96c0.489-1.187,0.396-2.384-0.276-3.557
	c-0.367-0.64-1.376-1.088-2.454-1.088c-0.187,0-0.373,0.015-0.553,0.042c-0.443,0.069-1.206,0.278-1.34,0.9
	c-0.229,1.07-1.189,1.848-2.281,1.848c-0.165,0-0.33-0.018-0.492-0.053c-0.611-0.131-1.133-0.492-1.473-1.016
	c-0.339-0.523-0.453-1.148-0.322-1.76c0.51-2.379,2.497-4.117,5.188-4.537c0.426-0.066,0.86-0.1,1.293-0.1
	c2.744,0,5.291,1.35,6.488,3.438c1.39,2.424,1.582,5.146,0.541,7.665c-1.129,2.733-3.584,4.911-6.406,5.685
	c-1.021,0.277-2.091,0.42-3.182,0.42c-3.982,0-7.925-1.872-10.545-5.007c-1.944-2.327-3.037-5.178-3.161-8.241
	c-0.009-0.228-0.146-0.43-0.351-0.524c-0.081-0.037-0.166-0.055-0.252-0.055c-0.134,0-0.266,0.044-0.375,0.13
	c-7.674,6.094-16.748,12.637-27.359,13.129c-0.037,0.002-0.072,0.002-0.107,0.002c-11.018,0-14.582-6.35-15.604-9.079
	c-1.885-5.035-0.521-10.884,3.313-14.222c1.874-1.631,4.313-2.566,6.693-2.566c0.567,0,1.126,0.055,1.662,0.161
	c2.446,0.485,4.448,2.068,5.639,4.455c1.265,2.538,0.633,5.963-1.538,8.328c-1.293,1.409-2.941,2.185-4.639,2.185
	c-0.689,0-1.367-0.129-2.014-0.385c-1.197-0.474-1.787-1.834-1.313-3.031c0.355-0.898,1.209-1.479,2.174-1.479
	c0.294,0,0.583,0.056,0.857,0.164c0.099,0.039,0.203,0.06,0.309,0.06c0.465,0,0.9-0.366,1.183-0.673
	c0.835-0.91,1.192-2.293,0.798-3.084c-0.553-1.109-1.327-1.75-2.367-1.957c-0.234-0.047-0.484-0.07-0.744-0.07
	c-1.235,0-2.627,0.543-3.633,1.418c-2.357,2.052-3.201,5.861-2.004,9.059c1.453,3.885,5.421,6.031,11.172,6.045
	c8.537-0.418,16.381-5.683,23.589-11.311c0.185-0.144,0.269-0.381,0.218-0.608c-0.053-0.228-0.23-0.405-0.457-0.456
	c-2.462-0.549-4.719-1.768-6.529-3.525c-3.783-3.676-5.202-9.299-3.532-13.99c0.987-2.773,3.356-5.07,6.183-5.996
	c0.887-0.291,1.795-0.438,2.697-0.438c1.707,0,3.396,0.533,4.885,1.543c2.348,1.59,3.477,4.884,2.746,8.01
	c-0.619,2.65-2.502,4.503-4.913,4.833c-0.106,0.015-0.214,0.022-0.321,0.022c-1.16,0-2.152-0.869-2.311-2.021
	c-0.085-0.618,0.076-1.232,0.453-1.729c0.378-0.498,0.926-0.817,1.545-0.902c0.629-0.087,0.895-0.832,0.997-1.268
	c0.28-1.201-0.086-2.582-0.817-3.078c-0.725-0.49-1.484-0.738-2.26-0.738c-0.408,0-0.827,0.069-1.245,0.206
	c-1.438,0.472-2.739,1.727-3.236,3.122c-1.052,2.955-0.069,6.686,2.388,9.072c1.2,1.167,3.305,2.558,6.51,2.557
	c1.496,0,3.104-0.311,4.777-0.922c0.063-0.022,0.119-0.056,0.172-0.098c4.559-3.676,9.436-7.462,14.506-9.797
	c0.21-0.097,0.346-0.307,0.35-0.538s-0.125-0.445-0.333-0.549c-5.989-2.991-13.144-8.55-18.004-12.472
	c-4.499-3.568-18.179-14.417-28.056-14.9c-5.762,0.014-9.719,2.161-11.172,6.046c-1.196,3.196-0.354,7.006,2.004,9.058
	c1.006,0.875,2.396,1.418,3.633,1.418c0.259,0,0.51-0.023,0.744-0.07c1.039-0.207,1.814-0.847,2.367-1.957
	c0.395-0.791,0.036-2.174-0.798-3.083c-0.282-0.308-0.716-0.673-1.182-0.673c-0.106,0-0.211,0.02-0.31,0.059
	c-0.274,0.108-0.563,0.164-0.857,0.164c-0.965,0-1.818-0.58-2.174-1.478c-0.23-0.581-0.22-1.216,0.028-1.788
	s0.704-1.015,1.284-1.244c0.646-0.256,1.324-0.385,2.014-0.385c1.698,0,3.346,0.775,4.639,2.186
	c2.171,2.365,2.803,5.789,1.538,8.327c-1.19,2.387-3.192,3.969-5.638,4.455c-0.537,0.106-1.096,0.161-1.663,0.161
	c-2.38,0-4.819-0.936-6.692-2.566c-3.836-3.338-5.199-9.186-3.314-14.221c1.021-2.73,4.587-9.081,15.604-9.081
	c0.035,0,0.071,0.001,0.107,0.003c10.611,0.492,19.686,7.035,27.359,13.128c0.109,0.087,0.241,0.131,0.375,0.131
	c0.086,0,0.171-0.019,0.252-0.056c0.205-0.094,0.342-0.297,0.351-0.523c0.124-3.064,1.217-5.914,3.161-8.241
	c2.621-3.135,6.563-5.007,10.545-5.007c1.092,0,2.162,0.143,3.182,0.422c2.822,0.771,5.277,2.949,6.406,5.683
	c1.041,2.521,0.849,5.241-0.541,7.664c-1.197,2.089-3.744,3.438-6.487,3.438c-0.433,0-0.868-0.033-1.294-0.1
	c-2.69-0.42-4.678-2.158-5.188-4.537c-0.131-0.611-0.017-1.236,0.322-1.76c0.34-0.523,0.861-0.885,1.473-1.015
	c0.162-0.035,0.328-0.054,0.493-0.054c1.093,0,2.052,0.777,2.28,1.848c0.134,0.622,0.896,0.831,1.339,0.9
	c0.181,0.027,0.367,0.042,0.556,0.042c1.076,0,2.085-0.447,2.452-1.088c0.673-1.173,0.766-2.37,0.276-3.556
	c-0.572-1.385-1.906-2.573-3.32-2.959c-0.614-0.169-1.266-0.254-1.936-0.254c-2.586,0-5.257,1.275-6.972,3.328
	c-1.412,1.689-3.405,5.385-0.884,11.139c0.039,0.088,0.1,0.166,0.174,0.227c5.622,4.531,11.589,9.075,17.301,10.525
	c2.254,0.573,4.455,0.905,6.539,0.987c0.009,0,0.039,0,0.045,0c0.352-0.013,0.7-0.019,1.047-0.019c0.326,0,0.651,0.006,0.975,0.016
	c0.006,0.001,0.037,0,0.045,0c6.097-0.266,11.332-2.81,15.56-7.563c3.657-4.178,4.677-9.258,2.728-13.593
	c-1.332-2.964-3.881-4.89-6.494-4.907c-1.624,0-3.25,0.737-4.145,1.879c-0.689,0.878-0.883,1.943-0.574,3.165
	c0.217,0.856,1.389,1.673,2.613,1.819c0.107,0.013,0.234,0.022,0.368,0.022c0.732,0,1.037-0.286,1.163-0.526
	c0.406-0.771,1.199-1.25,2.07-1.25c0.377,0,0.752,0.094,1.086,0.27c1.141,0.6,1.58,2.016,0.979,3.156
	c-0.997,1.893-2.984,3.023-5.317,3.023c-0.297,0-0.602-0.02-0.902-0.055c-3.188-0.381-5.898-2.566-6.592-5.316
	c-0.66-2.621-0.154-5.176,1.428-7.193c1.774-2.262,4.76-3.668,7.791-3.668h0.063c4.502,0.03,8.613,2.967,10.725,7.664
	c0.06,0.132,0.117,0.266,0.173,0.401c0.093,0.226,0.313,0.374,0.558,0.374s0.465-0.148,0.559-0.374
	c0.055-0.136,0.112-0.27,0.172-0.401c2.111-4.697,6.222-7.634,10.725-7.664h0.063c3.031,0,6.017,1.406,7.791,3.668
	c1.582,2.018,2.089,4.572,1.428,7.193c-0.693,2.75-3.404,4.936-6.592,5.316c-0.301,0.035-0.604,0.055-0.902,0.055
	c-2.332,0-4.32-1.131-5.317-3.023c-0.601-1.141-0.161-2.557,0.979-3.156c0.334-0.176,0.709-0.27,1.086-0.27
	c0.871,0,1.664,0.479,2.07,1.249c0.126,0.24,0.431,0.527,1.163,0.527c0.135,0,0.261-0.01,0.368-0.022
	c1.225-0.146,2.396-0.963,2.613-1.818c0.309-1.223,0.115-2.288-0.574-3.166c-0.881-1.125-2.534-1.879-4.113-1.879
	c-2.633,0.018-5.193,1.943-6.525,4.907c-1.949,4.335-0.929,9.416,2.728,13.593c4.229,4.754,9.464,7.297,15.56,7.563
	c0.008,0,0.039,0.001,0.045,0c0.323-0.01,0.647-0.016,0.975-0.016c0.347,0,0.695,0.006,1.047,0.019c0.008,0,0.037,0,0.045,0
	c2.084-0.082,4.285-0.414,6.539-0.987c5.713-1.45,11.679-5.994,17.301-10.525c0.074-0.061,0.135-0.139,0.174-0.227
	c2.521-5.754,0.529-9.449-0.883-11.14c-1.716-2.052-4.387-3.327-6.973-3.327c-0.67,0-1.321,0.085-1.936,0.254
	c-1.414,0.386-2.748,1.575-3.319,2.959c-0.49,1.187-0.397,2.383,0.275,3.556c0.367,0.64,1.376,1.088,2.452,1.088
	c0.189,0,0.375-0.015,0.556-0.042c0.442-0.069,1.206-0.278,1.339-0.9c0.229-1.07,1.188-1.848,2.281-1.848
	c0.164,0,0.33,0.019,0.493,0.053c0.61,0.131,1.133,0.492,1.472,1.016c0.34,0.523,0.453,1.148,0.322,1.76
	c-0.51,2.379-2.496,4.117-5.187,4.537c-0.427,0.066-0.862,0.1-1.294,0.1c-2.744,0-5.291-1.35-6.488-3.438
	c-1.389-2.423-1.582-5.144-0.541-7.664c1.129-2.733,3.584-4.911,6.406-5.683c1.02-0.279,2.09-0.422,3.182-0.422
	c3.982,0,7.925,1.872,10.545,5.007c1.944,2.327,3.037,5.178,3.161,8.241c0.009,0.227,0.146,0.43,0.351,0.523
	c0.081,0.037,0.166,0.056,0.252,0.056c0.134,0,0.266-0.044,0.375-0.131c7.674-6.093,16.75-12.636,27.359-13.128
	c0.037-0.002,0.072-0.003,0.108-0.003c7.614,0,11.628,3.071,13.656,5.646c0.115,0.146,0.289,0.229,0.475,0.229
	c0.184,0,0.359-0.084,0.473-0.229c2.027-2.575,6.043-5.646,13.656-5.646c0.037,0,0.072,0.001,0.107,0.003
	c10.611,0.492,19.688,7.035,27.361,13.128c0.107,0.087,0.24,0.131,0.375,0.131c0.084,0,0.17-0.019,0.25-0.056
	c0.207-0.094,0.342-0.297,0.352-0.523c0.123-3.063,1.217-5.914,3.162-8.241c2.619-3.135,6.561-5.007,10.545-5.007
	c1.092,0,2.162,0.143,3.182,0.422c2.822,0.771,5.277,2.949,6.406,5.684c1.039,2.52,0.848,5.24-0.541,7.663
	c-1.199,2.089-3.744,3.438-6.488,3.438c-0.432,0-0.867-0.033-1.295-0.1c-2.689-0.42-4.678-2.158-5.188-4.537
	c-0.131-0.611-0.016-1.235,0.322-1.76c0.34-0.523,0.863-0.885,1.473-1.015c0.164-0.035,0.33-0.054,0.494-0.054
	c1.092,0,2.051,0.777,2.281,1.848c0.133,0.623,0.895,0.831,1.338,0.9c0.18,0.027,0.367,0.042,0.555,0.042
	c1.078,0,2.086-0.447,2.453-1.088c0.674-1.173,0.766-2.37,0.275-3.556c-0.57-1.384-1.904-2.572-3.32-2.959
	c-0.613-0.169-1.264-0.254-1.936-0.254c-2.584,0-5.256,1.275-6.971,3.327c-1.412,1.69-3.404,5.385-0.883,11.14
	c0.039,0.088,0.098,0.166,0.174,0.227c5.621,4.531,11.588,9.075,17.299,10.525c2.254,0.573,4.455,0.905,6.541,0.987
	c0.008,0,0.037,0,0.045,0c0.35-0.013,0.699-0.019,1.047-0.019c0.326,0,0.65,0.006,0.973,0.016c0.008,0.001,0.039,0,0.047,0
	c6.096-0.266,11.33-2.81,15.559-7.563c3.658-4.178,4.676-9.258,2.729-13.593c-1.334-2.964-3.883-4.89-6.494-4.907
	c-1.625,0-3.25,0.736-4.146,1.879c-0.688,0.877-0.881,1.943-0.572,3.165c0.215,0.856,1.389,1.673,2.613,1.819
	c0.107,0.013,0.232,0.022,0.367,0.022c0.732,0,1.037-0.286,1.164-0.526c0.404-0.771,1.199-1.25,2.07-1.25
	c0.375,0,0.75,0.094,1.086,0.27c1.139,0.6,1.578,2.016,0.979,3.156c-0.996,1.893-2.984,3.023-5.318,3.023
	c-0.297,0-0.6-0.02-0.902-0.055c-3.188-0.381-5.896-2.566-6.59-5.316c-0.662-2.621-0.154-5.176,1.428-7.193
	c1.773-2.262,4.758-3.668,7.789-3.668h0.064c4.5,0.03,8.611,2.967,10.725,7.664c0.059,0.132,0.115,0.266,0.172,0.4
	c0.092,0.227,0.313,0.375,0.557,0.375c0,0,0,0,0.002,0c0.244,0,0.463-0.147,0.557-0.374c0.057-0.136,0.113-0.27,0.174-0.401
	c2.111-4.697,6.221-7.634,10.725-7.664h0.063c3.031,0,6.016,1.406,7.789,3.668c1.582,2.018,2.09,4.572,1.428,7.193
	c-0.693,2.75-3.402,4.936-6.59,5.316c-0.303,0.035-0.605,0.055-0.902,0.055c-2.334,0-4.322-1.131-5.318-3.023
	c-0.6-1.141-0.16-2.557,0.98-3.156c0.334-0.176,0.709-0.27,1.086-0.27c0.871,0,1.664,0.479,2.068,1.249
	c0.127,0.241,0.432,0.527,1.164,0.527c0.135,0,0.262-0.01,0.367-0.022c1.227-0.146,2.398-0.963,2.615-1.819
	c0.307-1.222,0.115-2.287-0.574-3.165c-0.883-1.125-2.535-1.879-4.115-1.879c-2.633,0.018-5.191,1.943-6.523,4.907
	c-1.949,4.335-0.93,9.416,2.727,13.593c4.229,4.754,9.463,7.297,15.559,7.563c0.01,0,0.039,0.001,0.047,0
	c0.322-0.01,0.646-0.016,0.973-0.016c0.348,0,0.697,0.006,1.049,0.019c0.006,0,0.035,0,0.043,0c2.086-0.082,4.285-0.414,6.541-0.987
	c5.711-1.45,11.678-5.994,17.299-10.525c0.076-0.061,0.137-0.139,0.174-0.227c2.521-5.755,0.529-9.449-0.883-11.14
	c-1.715-2.052-4.387-3.327-6.971-3.327c-0.67,0-1.322,0.085-1.936,0.254c-1.414,0.386-2.748,1.575-3.32,2.959
	c-0.49,1.186-0.396,2.383,0.275,3.556c0.367,0.641,1.375,1.088,2.453,1.088c0.188,0,0.375-0.015,0.555-0.042
	c0.443-0.069,1.205-0.278,1.338-0.9c0.23-1.07,1.189-1.848,2.281-1.848c0.164,0,0.332,0.019,0.494,0.053
	c1.26,0.271,2.064,1.516,1.795,2.775c-0.51,2.379-2.498,4.117-5.188,4.537c-0.428,0.066-0.863,0.1-1.295,0.1
	c-2.742,0-5.289-1.35-6.486-3.438c-1.391-2.423-1.582-5.144-0.541-7.664c1.127-2.733,3.582-4.911,6.406-5.683
	c1.018-0.279,2.088-0.422,3.18-0.422c3.984,0,7.926,1.872,10.545,5.007c1.945,2.327,3.039,5.177,3.162,8.241
	c0.01,0.227,0.145,0.43,0.352,0.524c0.08,0.036,0.166,0.055,0.252,0.055c0.133,0,0.266-0.044,0.375-0.131
	c7.674-6.093,16.748-12.636,27.357-13.128c0.039-0.002,0.074-0.003,0.109-0.003c11.016,0,14.58,6.351,15.604,9.081
	c1.883,5.035,0.521,10.883-3.314,14.221c-1.875,1.631-4.314,2.566-6.693,2.566c-0.566,0-1.127-0.055-1.662-0.161
	c-2.447-0.485-4.449-2.068-5.639-4.455c-1.266-2.538-0.633-5.962,1.537-8.327c1.295-1.41,2.941-2.186,4.641-2.186
	c0.689,0,1.365,0.129,2.012,0.385c0.582,0.229,1.037,0.672,1.285,1.244s0.258,1.207,0.029,1.788
	c-0.355,0.897-1.209,1.478-2.176,1.478c-0.293,0-0.582-0.055-0.857-0.164c-0.1-0.039-0.203-0.059-0.309-0.059
	c-0.465,0-0.898,0.365-1.182,0.673c-0.834,0.91-1.191,2.294-0.797,3.083c0.553,1.109,1.326,1.75,2.367,1.957
	c0.234,0.047,0.484,0.07,0.744,0.07c1.236,0,2.627-0.543,3.631-1.418c2.359-2.052,3.201-5.861,2.006-9.058
	c-1.453-3.885-5.422-6.032-11.172-6.046c-9.879,0.483-23.561,11.334-28.057,14.899c-4.861,3.924-12.014,9.481-18.004,12.473
	c-0.207,0.104-0.336,0.317-0.334,0.549c0.004,0.231,0.141,0.441,0.352,0.538c5.07,2.335,9.945,6.121,14.506,9.797
	c0.051,0.042,0.109,0.074,0.172,0.098c1.674,0.612,3.279,0.922,4.777,0.922c3.205,0,5.309-1.39,6.51-2.557
	c2.457-2.387,3.438-6.117,2.387-9.072c-0.496-1.396-1.797-2.65-3.236-3.122c-0.418-0.137-0.836-0.206-1.244-0.206
	c-0.775,0-1.537,0.248-2.26,0.738c-0.732,0.496-1.1,1.877-0.818,3.078c0.102,0.436,0.367,1.181,0.998,1.268
	c0.617,0.085,1.166,0.405,1.543,0.902c0.379,0.497,0.539,1.111,0.455,1.729c-0.158,1.151-1.152,2.021-2.313,2.021
	c-0.105,0-0.215-0.008-0.32-0.022c-2.41-0.33-4.293-2.183-4.914-4.833c-0.73-3.126,0.4-6.42,2.748-8.01
	c1.488-1.01,3.178-1.543,4.883-1.543c0.904,0,1.813,0.146,2.697,0.438c2.828,0.926,5.197,3.223,6.184,5.996
	c1.67,4.691,0.25,10.314-3.533,13.99c-1.809,1.758-4.066,2.977-6.527,3.525c-0.227,0.051-0.406,0.229-0.457,0.456
	s0.033,0.465,0.217,0.608c7.209,5.628,15.055,10.894,23.59,11.311c5.762-0.014,9.717-2.16,11.172-6.045
	c1.195-3.197,0.354-7.008-2.006-9.059c-1.004-0.875-2.396-1.418-3.633-1.418c-0.26,0-0.51,0.023-0.744,0.07
	c-1.039,0.207-1.813,0.848-2.365,1.957c-0.395,0.79-0.037,2.174,0.797,3.084c0.283,0.307,0.717,0.673,1.182,0.673
	c0.107,0,0.213-0.021,0.311-0.06c0.273-0.108,0.563-0.164,0.857-0.164c0.965,0,1.818,0.58,2.174,1.478
	c0.473,1.198-0.115,2.559-1.314,3.032c-0.646,0.256-1.322,0.385-2.012,0.385c-1.699,0-3.346-0.775-4.641-2.185
	c-2.17-2.365-2.801-5.79-1.537-8.328c1.189-2.387,3.191-3.97,5.639-4.455c0.535-0.106,1.096-0.161,1.662-0.161
	c2.379,0,4.818,0.936,6.693,2.566c3.836,3.338,5.197,9.186,3.314,14.222c-1.023,2.729-4.588,9.079-15.604,9.079
	c-0.037,0-0.072,0-0.109-0.002c-10.609-0.492-19.686-7.035-27.357-13.129c-0.109-0.086-0.242-0.13-0.375-0.13
	c-0.086,0-0.172,0.018-0.252,0.055c-0.207,0.095-0.342,0.297-0.352,0.524c-0.123,3.064-1.217,5.914-3.162,8.241
	C584.236,326.166,580.295,328.038,576.311,328.038z M400.662,286.476c0.903,0,1.811,0.146,2.696,0.438
	c2.827,0.926,5.196,3.223,6.184,5.996c1.67,4.691,0.251,10.314-3.532,13.99c-1.81,1.758-4.066,2.977-6.528,3.525
	c-0.228,0.051-0.405,0.229-0.457,0.456s0.033,0.465,0.217,0.608c7.208,5.628,15.056,10.894,23.589,11.311
	c5.762-0.014,9.719-2.16,11.172-6.045c1.197-3.197,0.354-7.007-2.004-9.059c-1.006-0.875-2.396-1.418-3.633-1.418
	c-0.26,0-0.51,0.023-0.744,0.07c-1.039,0.207-1.814,0.847-2.367,1.957c-0.395,0.791-0.036,2.174,0.798,3.084
	c0.282,0.307,0.717,0.673,1.183,0.673c0.105,0,0.209-0.021,0.308-0.059c0.275-0.109,0.564-0.165,0.858-0.165
	c0.965,0,1.818,0.58,2.174,1.478c0.475,1.198-0.115,2.558-1.313,3.032c-0.646,0.256-1.324,0.385-2.013,0.385
	c-1.698,0-3.347-0.775-4.64-2.185c-2.17-2.365-2.803-5.79-1.537-8.328c1.189-2.387,3.191-3.97,5.638-4.455
	c0.536-0.106,1.095-0.161,1.663-0.161c2.379,0,4.819,0.936,6.692,2.566c0.492,0.428,0.953,0.908,1.371,1.426
	c0.115,0.143,0.287,0.225,0.471,0.225c0.182,0,0.354-0.082,0.469-0.224c0.42-0.52,0.881-0.999,1.371-1.427
	c1.875-1.631,4.314-2.566,6.693-2.566c0.566,0,1.127,0.055,1.662,0.161c2.447,0.485,4.449,2.068,5.639,4.455
	c1.266,2.538,0.633,5.963-1.537,8.328c-1.293,1.409-2.941,2.185-4.641,2.185c-0.689,0-1.365-0.129-2.012-0.385
	c-1.199-0.474-1.787-1.834-1.314-3.032c0.355-0.897,1.209-1.478,2.174-1.478c0.295,0,0.584,0.056,0.859,0.164
	c0.098,0.039,0.201,0.06,0.309,0.06c0.465,0,0.898-0.366,1.182-0.674c0.834-0.909,1.191-2.292,0.797-3.083
	c-0.553-1.109-1.326-1.75-2.365-1.957c-0.234-0.047-0.484-0.07-0.744-0.07c-1.236,0-2.629,0.543-3.633,1.418
	c-2.359,2.052-3.201,5.861-2.006,9.059c1.455,3.885,5.422,6.031,11.172,6.045c8.539-0.418,16.381-5.683,23.59-11.311
	c0.184-0.144,0.268-0.381,0.217-0.608s-0.229-0.405-0.457-0.456c-2.461-0.549-4.719-1.768-6.527-3.525
	c-3.783-3.676-5.203-9.299-3.533-13.99c0.988-2.773,3.357-5.07,6.184-5.996c0.887-0.291,1.793-0.438,2.697-0.438
	c1.707,0,3.395,0.533,4.883,1.543c2.348,1.59,3.479,4.883,2.748,8.01c-0.619,2.65-2.502,4.503-4.914,4.833
	c-0.105,0.015-0.215,0.022-0.32,0.022c-1.16,0-2.154-0.869-2.313-2.021c-0.174-1.276,0.723-2.457,1.998-2.632
	c0.631-0.087,0.896-0.832,0.998-1.268c0.281-1.201-0.086-2.582-0.818-3.078c-0.723-0.49-1.484-0.738-2.26-0.738
	c-0.408,0-0.826,0.069-1.244,0.206c-1.438,0.472-2.738,1.726-3.236,3.122c-1.051,2.955-0.07,6.686,2.387,9.072
	c1.201,1.167,3.305,2.557,6.512,2.557c1.496,0,3.104-0.31,4.775-0.922c0.063-0.023,0.121-0.056,0.172-0.098
	c4.561-3.677,9.438-7.463,14.506-9.797c0.211-0.098,0.348-0.307,0.352-0.538s-0.127-0.446-0.334-0.55
	c-5.988-2.989-13.143-8.549-18.004-12.471c-4.498-3.568-18.178-14.417-28.057-14.9c-5.762,0.014-9.717,2.161-11.172,6.046
	c-1.195,3.196-0.352,7.006,2.006,9.058c1.006,0.875,2.396,1.418,3.631,1.418c0.26,0,0.512-0.023,0.746-0.07
	c1.039-0.207,1.813-0.847,2.365-1.957c0.395-0.79,0.037-2.174-0.797-3.083c-0.283-0.308-0.717-0.673-1.182-0.673
	c-0.105,0-0.209,0.02-0.309,0.059c-0.275,0.108-0.564,0.164-0.857,0.164c-0.967,0-1.82-0.58-2.176-1.478
	c-0.229-0.581-0.219-1.216,0.029-1.788s0.705-1.015,1.285-1.244c0.646-0.256,1.324-0.385,2.012-0.385
	c1.699,0,3.348,0.775,4.641,2.186c2.17,2.365,2.803,5.789,1.537,8.327c-1.189,2.387-3.191,3.97-5.639,4.455
	c-0.535,0.106-1.096,0.161-1.662,0.161c-2.379,0-4.818-0.936-6.693-2.566c-0.49-0.426-0.951-0.906-1.371-1.426
	c-0.115-0.143-0.287-0.225-0.469-0.225c-0.184,0-0.355,0.082-0.471,0.225c-0.418,0.52-0.879,1-1.371,1.426
	c-1.873,1.631-4.313,2.566-6.692,2.566c-0.568,0-1.127-0.055-1.663-0.161c-2.446-0.486-4.448-2.068-5.638-4.455
	c-1.266-2.538-0.634-5.962,1.537-8.327c1.293-1.41,2.94-2.186,4.639-2.186c0.689,0,1.367,0.129,2.014,0.385
	c0.58,0.229,1.037,0.672,1.285,1.244c0.247,0.572,0.258,1.207,0.027,1.788c-0.355,0.897-1.209,1.478-2.174,1.478
	c-0.294,0-0.583-0.056-0.858-0.164c-0.098-0.039-0.202-0.059-0.309-0.059c-0.466,0-0.899,0.365-1.182,0.673
	c-0.834,0.909-1.192,2.292-0.798,3.083c0.553,1.11,1.328,1.75,2.367,1.957c0.234,0.047,0.485,0.07,0.744,0.07
	c1.236,0,2.627-0.543,3.633-1.418c2.358-2.052,3.202-5.861,2.004-9.058c-1.454-3.885-5.421-6.032-11.172-6.046
	c-9.877,0.483-23.56,11.334-28.056,14.9c-4.863,3.924-12.016,9.482-18.004,12.472c-0.208,0.104-0.337,0.317-0.333,0.549
	c0.003,0.231,0.14,0.441,0.35,0.538c5.07,2.334,9.946,6.12,14.507,9.797c0.052,0.042,0.109,0.074,0.171,0.098
	c1.674,0.612,3.281,0.922,4.777,0.922c3.205,0,5.31-1.39,6.51-2.557c2.457-2.387,3.439-6.117,2.388-9.072
	c-0.497-1.396-1.798-2.65-3.235-3.122c-0.418-0.137-0.838-0.206-1.246-0.206c-0.775,0-1.535,0.248-2.26,0.738
	c-0.73,0.496-1.098,1.877-0.816,3.078c0.102,0.436,0.367,1.181,0.996,1.268c0.619,0.085,1.168,0.405,1.545,0.902
	s0.538,1.111,0.453,1.729c-0.158,1.151-1.15,2.021-2.311,2.021c-0.107,0-0.215-0.008-0.32-0.022
	c-2.412-0.33-4.295-2.183-4.914-4.833c-0.73-3.126,0.398-6.42,2.746-8.01C397.266,287.009,398.955,286.476,400.662,286.476z
	 M534.75,281.677c-0.25,0-0.473,0.153-0.563,0.385c-0.813,2.1-2.043,4.097-3.654,5.938c-2.361,2.653-5.025,4.769-7.914,6.28
	c-0.197,0.104-0.322,0.31-0.322,0.534c0,0.224,0.125,0.431,0.322,0.534c2.889,1.513,5.551,3.626,7.914,6.281
	c1.611,1.839,2.84,3.838,3.654,5.938c0.09,0.232,0.313,0.385,0.563,0.385c0.248,0,0.471-0.152,0.561-0.385
	c0.814-2.1,2.043-4.098,3.654-5.938c2.361-2.654,5.025-4.769,7.914-6.281c0.199-0.104,0.322-0.31,0.322-0.534
	s-0.125-0.431-0.322-0.534c-2.891-1.513-5.553-3.626-7.914-6.28c-1.609-1.841-2.84-3.839-3.654-5.938
	C535.221,281.829,534.998,281.677,534.75,281.677z M339.062,281.677c-0.249,0-0.473,0.152-0.563,0.385
	c-0.813,2.099-2.041,4.097-3.653,5.938c-2.362,2.653-5.024,4.769-7.913,6.28c-0.199,0.104-0.324,0.31-0.324,0.534
	c0,0.224,0.125,0.431,0.324,0.534c2.889,1.513,5.551,3.626,7.913,6.281c1.61,1.84,2.841,3.838,3.653,5.938
	c0.09,0.232,0.313,0.385,0.563,0.385s0.473-0.152,0.563-0.385c0.813-2.099,2.041-4.097,3.654-5.938
	c2.359-2.654,5.023-4.769,7.912-6.281c0.199-0.104,0.324-0.311,0.324-0.534c0-0.225-0.125-0.431-0.324-0.534
	c-2.889-1.512-5.551-3.625-7.912-6.28c-1.611-1.841-2.842-3.839-3.654-5.938C339.535,281.829,339.311,281.677,339.062,281.677z"/>
</svg>
