<?xml version="1.0" encoding="utf-8"?>
<!-- Generator: Adobe Illustrator 16.0.0, SVG Export Plug-In . SVG Version: 6.00 Build 0)  -->
<!DOCTYPE svg PUBLIC "-//W3C//DTD SVG 1.1//EN" "http://www.w3.org/Graphics/SVG/1.1/DTD/svg11.dtd">
<svg version="1.1" id="Layer_1" xmlns="http://www.w3.org/2000/svg" xmlns:xlink="http://www.w3.org/1999/xlink" x="0px" y="0px"
	 width="864px" height="864px" viewBox="0 0 864 864" enable-background="new 0 0 864 864" xml:space="preserve">
<path fill="#4EC3C7" d="M510.159,305.778c-5.973,0-11.631-2.557-14.766-6.672c-1.174-1.541-2.09-3.246-2.721-5.07
	c-0.09-0.26-0.336-0.434-0.611-0.434s-0.52,0.174-0.609,0.434c-0.631,1.824-1.547,3.529-2.721,5.07
	c-3.135,4.115-8.793,6.672-14.766,6.672c-0.771,0-1.551-0.041-2.316-0.125c-6.037-0.658-10.764-3.762-12.967-8.516
	c-1.926-4.154-1.365-9.404,1.391-13.064c2.211-2.934,5.564-4.549,9.441-4.549c0.748,0,1.516,0.061,2.283,0.18
	c3.141,0.488,5.512,2.922,6.043,6.199c0.459,2.854-0.689,5.443-2.932,6.596c-0.33,0.17-0.701,0.26-1.07,0.26
	c-0.883,0-1.684-0.488-2.088-1.275c-0.287-0.557-0.34-1.191-0.146-1.789c0.191-0.596,0.604-1.082,1.16-1.367
	c0.061-0.031,0.117-0.072,0.166-0.121c0.268-0.271,0.383-0.912,0.279-1.555c-0.16-0.982-0.805-2.105-2.133-2.313
	c-0.559-0.086-1.104-0.131-1.619-0.131c-2.984,0-4.713,1.461-5.637,2.688c-1.719,2.281-2.082,5.682-0.883,8.271
	c1.496,3.225,4.855,5.348,9.219,5.822c0.584,0.063,1.182,0.096,1.773,0.096c4.563,0,8.803-1.848,11.07-4.82
	c2.75-3.611,3.525-8.418,2.072-12.861c-1.457-4.447-4.893-7.768-9.426-9.107c-2.215-0.654-4.322-0.984-6.266-0.984
	c-7.98,0-12.674,5.414-17.641,11.148c-4.098,4.729-8.333,9.615-14.456,10.832c-1.42,0.281-2.818,0.426-4.156,0.426
	c-3.074,0-5.821-0.732-8.166-2.176c-3.189-1.967-5.453-5.223-6.375-9.17c-0.014-0.063-0.025-0.127-0.038-0.193
	c-0.013-0.072-0.038-0.143-0.075-0.207c-2.824-4.895-5.823-8.174-8.912-9.744c-1.696-0.863-3.543-1.318-5.341-1.318
	c-1.509,0-2.948,0.309-4.28,0.918c-2.556,1.168-4.385,3.305-5.018,5.861c-0.763,3.076,0.141,6.66,2.248,8.92
	c0.957,1.027,2.613,2.252,5.066,2.252c0.455,0,0.927-0.043,1.402-0.127c1.771-0.309,3.446-1.879,3.981-3.734
	c0.468-1.621-0.031-3.15-1.44-4.426c-0.242-0.219-0.643-0.344-1.098-0.344c-0.14,0-0.281,0.012-0.418,0.035
	c-0.207,0.035-0.398,0.092-0.567,0.17c-0.212,0.1-0.354,0.305-0.371,0.537c-0.089,1.164-1.034,2.094-2.198,2.164
	c-0.047,0.002-0.096,0.004-0.143,0.004c-1.237,0-2.265-0.969-2.339-2.205c-0.12-1.992,1-3.756,2.995-4.717
	c0.926-0.443,1.969-0.68,3.016-0.68c1.642,0,3.156,0.553,4.268,1.555c2.752,2.486,3.773,5.844,2.803,9.207
	c-1.038,3.598-4.125,6.434-7.682,7.055c-0.746,0.131-1.494,0.197-2.223,0.197c-3.268,0-6.2-1.295-8.484-3.744
	c-0.373-0.4-0.729-0.834-1.057-1.291c-0.121-0.168-0.316-0.268-0.523-0.268c-0.209,0-0.404,0.1-0.525,0.268
	c-0.326,0.455-0.682,0.891-1.056,1.291c-2.283,2.449-5.217,3.744-8.483,3.744c-0.729,0-1.477-0.066-2.223-0.197
	c-3.557-0.621-6.645-3.457-7.682-7.055c-0.971-3.363,0.051-6.721,2.803-9.207c1.11-1.002,2.625-1.555,4.267-1.555
	c1.048,0,2.091,0.234,3.017,0.68c1.995,0.961,3.115,2.723,2.995,4.717c-0.074,1.236-1.102,2.205-2.339,2.205
	c-0.048,0-0.096-0.002-0.145-0.004c-1.163-0.07-2.108-1-2.196-2.166c-0.019-0.234-0.163-0.443-0.379-0.539
	c-0.169-0.076-0.357-0.133-0.562-0.166c-0.137-0.023-0.277-0.035-0.416-0.035c-0.455,0-0.855,0.125-1.098,0.344
	c-1.41,1.275-1.908,2.805-1.441,4.426c0.535,1.855,2.21,3.426,3.982,3.734c0.476,0.084,0.947,0.127,1.402,0.127
	c2.452,0,4.109-1.225,5.066-2.252c2.107-2.26,3.01-5.844,2.249-8.92c-0.635-2.557-2.464-4.693-5.018-5.861
	c-1.333-0.609-2.773-0.918-4.282-0.918c-1.797,0-3.644,0.455-5.34,1.318c-3.094,1.572-6.092,4.852-8.912,9.746
	c-0.037,0.064-0.063,0.135-0.076,0.207c-0.012,0.064-0.023,0.129-0.038,0.193c-0.921,3.945-3.185,7.201-6.375,9.168
	c-2.345,1.443-5.091,2.176-8.165,2.176c-1.338,0-2.736-0.145-4.156-0.426c-6.123-1.217-10.357-6.104-14.454-10.83
	c-4.968-5.734-9.661-11.15-17.642-11.15c-1.943,0-4.051,0.33-6.266,0.984c-4.535,1.34-7.971,4.66-9.426,9.107
	c-1.453,4.443-0.679,9.25,2.072,12.861c2.266,2.973,6.508,4.82,11.07,4.82c0.593,0,1.189-0.033,1.772-0.096
	c4.364-0.475,7.724-2.598,9.218-5.822c1.2-2.59,0.838-5.99-0.881-8.271c-0.924-1.227-2.65-2.688-5.639-2.688
	c-0.514,0-1.059,0.045-1.617,0.131c-1.329,0.207-1.973,1.33-2.133,2.311c-0.109,0.68,0.021,1.318,0.324,1.594
	c0.041,0.037,0.089,0.07,0.139,0.096c0.545,0.277,0.951,0.76,1.143,1.357c0.191,0.596,0.139,1.23-0.146,1.789
	c-0.404,0.785-1.205,1.273-2.09,1.273c-0.368,0-0.738-0.09-1.069-0.26c-2.241-1.152-3.392-3.742-2.931-6.596
	c0.53-3.277,2.902-5.711,6.043-6.199c0.768-0.119,1.535-0.18,2.281-0.18c3.879,0,7.232,1.615,9.441,4.549
	c2.758,3.66,3.317,8.91,1.392,13.064c-2.202,4.754-6.929,7.857-12.966,8.516c-0.767,0.084-1.546,0.125-2.316,0.125
	c-5.973,0-11.631-2.557-14.767-6.672c-1.174-1.541-2.089-3.246-2.72-5.07c-0.09-0.26-0.336-0.434-0.611-0.434
	s-0.52,0.174-0.609,0.434c-0.632,1.824-1.547,3.529-2.721,5.07c-3.136,4.115-8.794,6.672-14.767,6.672
	c-0.771,0-1.55-0.041-2.315-0.125c-6.038-0.658-10.764-3.762-12.967-8.516c-1.926-4.154-1.367-9.404,1.391-13.064
	c2.211-2.934,5.563-4.549,9.441-4.549c0.746,0,1.515,0.061,2.282,0.18c3.142,0.488,5.513,2.922,6.042,6.199
	c0.461,2.854-0.689,5.443-2.93,6.596c-0.331,0.17-0.701,0.26-1.07,0.26c-0.885,0-1.685-0.488-2.088-1.275
	c-0.287-0.557-0.34-1.191-0.147-1.787c0.191-0.598,0.604-1.082,1.161-1.369c0.061-0.031,0.116-0.072,0.164-0.121
	c0.27-0.271,0.384-0.912,0.28-1.555c-0.16-0.982-0.804-2.105-2.133-2.313c-0.559-0.086-1.103-0.131-1.618-0.131
	c-2.986,0-4.715,1.461-5.639,2.688c-1.718,2.281-2.08,5.682-0.881,8.271c1.494,3.225,4.854,5.348,9.219,5.822
	c0.584,0.063,1.18,0.096,1.771,0.096c4.563,0,8.806-1.848,11.071-4.82c2.751-3.611,3.525-8.418,2.072-12.861
	c-1.456-4.447-4.892-7.768-9.426-9.107c-2.214-0.654-4.322-0.984-6.265-0.984c-7.98,0-12.674,5.414-17.643,11.148
	c-4.096,4.729-8.332,9.615-14.453,10.832c-1.421,0.281-2.82,0.426-4.158,0.426c-3.072,0-5.82-0.732-8.164-2.176
	c-3.189-1.967-5.454-5.223-6.375-9.17c-0.016-0.064-0.027-0.129-0.039-0.193c-0.013-0.072-0.039-0.143-0.075-0.207
	c-2.822-4.895-5.821-8.174-8.911-9.744c-1.697-0.863-3.544-1.318-5.342-1.318c-1.508,0-2.948,0.309-4.281,0.918
	c-2.555,1.168-4.383,3.305-5.017,5.861c-0.763,3.076,0.141,6.66,2.248,8.92c0.958,1.027,2.614,2.252,5.066,2.252
	c0.455,0,0.927-0.043,1.402-0.127c1.772-0.309,3.446-1.879,3.981-3.734c0.468-1.621-0.031-3.15-1.441-4.426
	c-0.24-0.219-0.641-0.344-1.098-0.344c-0.139,0-0.279,0.012-0.417,0.035c-0.206,0.035-0.398,0.092-0.567,0.17
	c-0.211,0.1-0.354,0.305-0.371,0.537c-0.09,1.164-1.034,2.094-2.197,2.164c-0.047,0.002-0.096,0.004-0.144,0.004
	c-1.237,0-2.265-0.969-2.339-2.205c-0.12-1.992,1-3.756,2.995-4.717c0.926-0.443,1.97-0.68,3.017-0.68
	c1.641,0,3.156,0.553,4.266,1.555c2.753,2.486,3.774,5.844,2.805,9.207c-1.039,3.598-4.125,6.434-7.682,7.055
	c-0.746,0.131-1.494,0.197-2.224,0.197c-3.267,0-6.2-1.295-8.483-3.744c-3.193-3.424-4.517-8.623-3.371-13.246
	c0.734-2.961,2.526-5.617,5.047-7.48c0.164-0.121,0.262-0.314,0.262-0.52s-0.098-0.396-0.262-0.52
	c-2.521-1.863-4.313-4.52-5.047-7.48c-1.146-4.623,0.178-9.822,3.371-13.246c2.283-2.451,5.217-3.744,8.484-3.744
	c0.729,0,1.477,0.064,2.223,0.195c3.557,0.623,6.643,3.457,7.682,7.055c0.97,3.365-0.052,6.721-2.805,9.209
	c-1.109,1.002-2.625,1.555-4.266,1.555c-1.047,0-2.091-0.236-3.017-0.682c-1.995-0.959-3.115-2.721-2.995-4.717
	c0.074-1.234,1.102-2.203,2.338-2.203c0.048,0,0.096,0,0.145,0.004c1.164,0.07,2.109,1,2.197,2.166
	c0.018,0.234,0.163,0.441,0.379,0.539c0.168,0.076,0.357,0.133,0.561,0.166c0.139,0.023,0.279,0.035,0.416,0.035
	c0.449,0,0.859-0.129,1.098-0.344c1.41-1.275,1.909-2.807,1.441-4.428c-0.535-1.854-2.209-3.424-3.981-3.734
	c-0.477-0.082-0.948-0.125-1.401-0.125c-2.454,0-4.11,1.225-5.067,2.252c-2.107,2.26-3.011,5.844-2.248,8.918
	c0.634,2.559,2.462,4.695,5.017,5.863c1.333,0.609,2.773,0.918,4.281,0.918c1.798,0,3.645-0.457,5.342-1.318
	c3.092-1.572,6.09-4.852,8.911-9.746c0.037-0.064,0.063-0.135,0.076-0.207c0.011-0.064,0.022-0.129,0.038-0.193
	c0.921-3.947,3.185-7.201,6.375-9.168c2.344-1.443,5.09-2.176,8.164-2.176c1.338,0,2.736,0.143,4.158,0.426
	c6.123,1.215,10.357,6.104,14.453,10.83c4.969,5.734,9.66,11.15,17.642,11.15c1.943,0,4.052-0.332,6.266-0.986
	c4.534-1.338,7.97-4.658,9.426-9.105c1.453-4.443,0.679-9.252-2.071-12.861c-2.268-2.975-6.51-4.822-11.072-4.822
	c-0.592,0-1.188,0.033-1.771,0.096c-4.364,0.477-7.725,2.6-9.219,5.824c-1.199,2.588-0.837,5.99,0.881,8.271
	c0.924,1.225,2.652,2.688,5.639,2.688c0.516,0,1.061-0.045,1.617-0.131c1.33-0.207,1.975-1.33,2.134-2.313
	c0.108-0.678-0.021-1.316-0.323-1.592c-0.042-0.037-0.089-0.07-0.139-0.096c-0.549-0.281-0.954-0.764-1.145-1.357
	c-0.189-0.598-0.138-1.232,0.148-1.789c0.403-0.785,1.203-1.273,2.088-1.273c0.369,0,0.738,0.09,1.07,0.26
	c2.241,1.152,3.391,3.74,2.93,6.596c-0.529,3.277-2.9,5.711-6.041,6.199c-0.77,0.119-1.537,0.18-2.283,0.18
	c-3.879,0-7.231-1.615-9.441-4.549c-2.758-3.66-3.316-8.91-1.391-13.066c2.203-4.752,6.929-7.855,12.966-8.514
	c0.767-0.084,1.546-0.127,2.317-0.127c5.972,0,11.63,2.557,14.766,6.672c1.174,1.541,2.09,3.248,2.721,5.072
	c0.09,0.26,0.334,0.434,0.609,0.434s0.521-0.174,0.611-0.434c0.631-1.824,1.545-3.531,2.72-5.072
	c3.136-4.115,8.794-6.672,14.767-6.672c0.771,0,1.551,0.043,2.316,0.127c6.037,0.658,10.764,3.762,12.966,8.514
	c1.926,4.156,1.366,9.406-1.392,13.066c-2.209,2.934-5.562,4.549-9.439,4.549c-0.747,0-1.516-0.061-2.283-0.18
	c-3.141-0.488-5.513-2.922-6.043-6.199c-0.461-2.855,0.689-5.443,2.932-6.596c0.33-0.17,0.701-0.26,1.07-0.26
	c0.884,0,1.684,0.488,2.088,1.273c0.59,1.15,0.136,2.566-1.015,3.158c-0.06,0.031-0.114,0.07-0.162,0.119
	c-0.274,0.275-0.388,0.9-0.282,1.557c0.159,0.982,0.803,2.105,2.133,2.311c0.557,0.088,1.101,0.133,1.618,0.133
	c2.987,0,4.714-1.463,5.638-2.688c1.719-2.281,2.081-5.682,0.881-8.271c-1.494-3.225-4.854-5.348-9.217-5.824
	c-0.586-0.063-1.182-0.096-1.772-0.096c-4.563,0-8.806,1.848-11.071,4.822c-2.751,3.611-3.525,8.418-2.072,12.861
	c1.455,4.447,4.891,7.768,9.426,9.105c2.213,0.654,4.32,0.986,6.262,0.986c7.985,0,12.678-5.416,17.645-11.15
	c4.097-4.727,8.332-9.615,14.455-10.83c1.42-0.283,2.819-0.426,4.158-0.426c3.072,0,5.819,0.732,8.163,2.176
	c3.19,1.967,5.454,5.223,6.375,9.17c0.015,0.063,0.026,0.127,0.038,0.191c0.014,0.074,0.039,0.143,0.076,0.207
	c2.821,4.896,5.82,8.174,8.912,9.746c1.696,0.861,3.543,1.318,5.34,1.318c1.508,0,2.949-0.309,4.282-0.918
	c2.554-1.168,4.383-3.305,5.018-5.863c0.762-3.074-0.142-6.658-2.249-8.918c-0.957-1.027-2.613-2.252-5.066-2.252
	c-0.454,0-0.926,0.043-1.402,0.125c-1.772,0.311-3.447,1.881-3.982,3.734c-0.467,1.621,0.031,3.152,1.441,4.428
	c0.242,0.219,0.642,0.344,1.098,0.344c0.138,0,0.277-0.012,0.416-0.035c0.209-0.035,0.4-0.092,0.568-0.17
	c0.212-0.1,0.354-0.305,0.372-0.537c0.089-1.164,1.034-2.094,2.198-2.164c0.049-0.004,0.096-0.004,0.145-0.004
	c1.236,0,2.263,0.969,2.337,2.203c0.12,1.996-1,3.758-2.995,4.717c-0.926,0.445-1.969,0.682-3.018,0.682
	c-1.641,0-3.155-0.553-4.266-1.555c-2.752-2.488-3.773-5.844-2.803-9.209c1.038-3.598,4.125-6.432,7.682-7.055
	c0.746-0.131,1.493-0.195,2.223-0.195c3.267,0,6.2,1.293,8.483,3.744c0.373,0.4,0.729,0.834,1.056,1.291
	c0.121,0.168,0.316,0.268,0.525,0.268c0.207,0,0.402-0.1,0.523-0.268c0.328-0.457,0.684-0.891,1.057-1.291
	c2.284-2.451,5.218-3.744,8.484-3.744c0.729,0,1.477,0.064,2.223,0.195c3.557,0.623,6.644,3.457,7.682,7.055
	c0.971,3.365-0.051,6.721-2.803,9.209c-1.11,1.002-2.625,1.555-4.267,1.555c-1.048,0-2.091-0.236-3.017-0.682
	c-1.995-0.959-3.115-2.723-2.995-4.717c0.074-1.234,1.101-2.203,2.337-2.203c0.049,0,0.096,0,0.145,0.004
	c1.165,0.07,2.109,1,2.198,2.164c0.018,0.236,0.163,0.443,0.378,0.541c0.169,0.076,0.357,0.133,0.563,0.166
	c0.137,0.023,0.277,0.035,0.416,0.035c0.448,0,0.859-0.129,1.097-0.344c1.41-1.275,1.908-2.805,1.441-4.428
	c-0.534-1.854-2.209-3.424-3.981-3.734c-0.477-0.082-0.948-0.125-1.402-0.125c-2.453,0-4.109,1.225-5.066,2.252
	c-2.107,2.26-3.011,5.844-2.248,8.918c0.633,2.559,2.462,4.695,5.018,5.863c1.332,0.609,2.771,0.918,4.28,0.918
	c1.798,0,3.645-0.457,5.341-1.318c3.093-1.572,6.092-4.852,8.912-9.746c0.037-0.064,0.063-0.137,0.076-0.211
	c0.012-0.063,0.023-0.125,0.037-0.188c0.922-3.949,3.186-7.203,6.375-9.17c2.344-1.443,5.091-2.176,8.164-2.176
	c1.338,0,2.738,0.143,4.158,0.426c6.123,1.215,10.358,6.104,14.454,10.83c4.969,5.734,9.66,11.15,17.643,11.15
	c1.943,0,4.051-0.332,6.266-0.986c4.535-1.338,7.971-4.658,9.426-9.105c1.453-4.443,0.678-9.25-2.072-12.861
	c-2.266-2.975-6.508-4.822-11.072-4.822c-0.59,0-1.186,0.033-1.771,0.096c-4.363,0.477-7.723,2.6-9.219,5.824
	c-1.199,2.588-0.836,5.99,0.883,8.271c0.922,1.225,2.65,2.688,5.637,2.688c0.516,0,1.061-0.045,1.619-0.131
	c1.328-0.207,1.973-1.33,2.133-2.311c0.109-0.68-0.021-1.318-0.324-1.594c-0.041-0.037-0.088-0.07-0.139-0.096
	c-0.545-0.279-0.951-0.76-1.143-1.357c-0.193-0.596-0.141-1.232,0.146-1.789c0.404-0.785,1.203-1.273,2.088-1.273
	c0.369,0,0.74,0.09,1.07,0.26c2.24,1.152,3.391,3.74,2.932,6.596c-0.531,3.277-2.902,5.711-6.043,6.199
	c-0.768,0.119-1.537,0.18-2.283,0.18c-3.879,0-7.23-1.615-9.441-4.549c-2.756-3.66-3.316-8.91-1.391-13.066
	c2.203-4.752,6.93-7.855,12.967-8.514c0.766-0.084,1.545-0.127,2.316-0.127c5.973,0,11.631,2.557,14.766,6.672
	c1.174,1.541,2.09,3.248,2.721,5.07c0.09,0.262,0.334,0.436,0.609,0.436s0.521-0.174,0.611-0.436
	c0.631-1.822,1.547-3.527,2.721-5.07c3.135-4.115,8.793-6.672,14.766-6.672c0.771,0,1.551,0.043,2.316,0.127
	c6.037,0.658,10.764,3.762,12.967,8.514c1.926,4.156,1.367,9.406-1.391,13.066c-2.211,2.934-5.563,4.549-9.441,4.549
	c-0.746,0-1.516-0.061-2.283-0.18c-3.141-0.488-5.512-2.922-6.043-6.199c-0.459-2.855,0.691-5.443,2.932-6.596
	c0.332-0.17,0.701-0.26,1.07-0.26c0.885,0,1.684,0.488,2.088,1.273c0.592,1.15,0.137,2.566-1.014,3.158
	c-0.061,0.031-0.115,0.07-0.162,0.119c-0.271,0.271-0.387,0.912-0.283,1.557c0.16,0.982,0.805,2.105,2.135,2.311
	c0.555,0.088,1.1,0.133,1.617,0.133c2.986,0,4.715-1.463,5.637-2.688c1.719-2.281,2.082-5.684,0.883-8.271
	c-1.494-3.225-4.855-5.348-9.219-5.824c-0.586-0.063-1.182-0.096-1.771-0.096c-4.563,0-8.807,1.848-11.072,4.822
	c-2.75,3.611-3.525,8.418-2.072,12.861c1.455,4.447,4.891,7.768,9.426,9.105c2.215,0.654,4.32,0.986,6.264,0.986
	c7.984,0,12.676-5.416,17.645-11.15c4.096-4.727,8.332-9.615,14.453-10.83c1.422-0.283,2.82-0.426,4.158-0.426
	c3.074,0,5.82,0.732,8.164,2.176c3.189,1.967,5.453,5.223,6.375,9.17c0.016,0.063,0.025,0.127,0.037,0.191
	c0.014,0.072,0.039,0.143,0.076,0.207c2.824,4.896,5.822,8.176,8.912,9.746c1.697,0.861,3.543,1.318,5.34,1.318
	c1.508,0,2.949-0.309,4.281-0.918c2.555-1.168,4.385-3.305,5.02-5.863c0.762-3.074-0.143-6.658-2.248-8.918
	c-0.959-1.027-2.615-2.252-5.068-2.252c-0.453,0-0.926,0.043-1.402,0.125c-1.771,0.311-3.445,1.881-3.98,3.734
	c-0.469,1.623,0.031,3.152,1.441,4.428c0.24,0.219,0.641,0.344,1.096,0.344c0.139,0,0.279-0.012,0.416-0.035
	c0.209-0.035,0.4-0.092,0.57-0.17c0.211-0.1,0.354-0.305,0.371-0.537c0.088-1.164,1.033-2.094,2.197-2.164
	c0.049-0.004,0.098-0.004,0.145-0.004c1.236,0,2.264,0.969,2.338,2.203c0.119,1.994-1,3.758-2.996,4.717
	c-0.926,0.445-1.969,0.682-3.016,0.682c-1.643,0-3.156-0.553-4.268-1.555c-2.752-2.488-3.773-5.844-2.803-9.209
	c1.039-3.598,4.125-6.432,7.682-7.055c0.746-0.131,1.494-0.195,2.223-0.195c3.268,0,6.201,1.293,8.484,3.744
	c3.193,3.424,4.516,8.623,3.371,13.246c-0.734,2.961-2.527,5.617-5.047,7.48c-0.164,0.123-0.262,0.314-0.262,0.52
	s0.098,0.398,0.262,0.52c2.52,1.863,4.313,4.52,5.047,7.48c1.145,4.623-0.178,9.822-3.371,13.246
	c-2.283,2.449-5.217,3.744-8.484,3.744c-0.729,0-1.477-0.066-2.223-0.197c-3.557-0.621-6.643-3.457-7.682-7.055
	c-0.971-3.363,0.051-6.721,2.803-9.207c1.111-1.002,2.627-1.555,4.268-1.555c1.047,0,2.09,0.234,3.016,0.68
	c1.996,0.961,3.115,2.725,2.996,4.717c-0.074,1.236-1.102,2.205-2.338,2.205c-0.049,0-0.098-0.002-0.146-0.004
	c-1.162-0.07-2.107-1-2.195-2.166c-0.018-0.236-0.164-0.443-0.381-0.539c-0.168-0.076-0.355-0.133-0.561-0.166
	c-0.137-0.023-0.275-0.035-0.416-0.035c-0.455,0-0.855,0.125-1.096,0.344c-1.41,1.273-1.91,2.805-1.441,4.426
	c0.535,1.855,2.209,3.426,3.98,3.734c0.477,0.084,0.947,0.127,1.402,0.127c2.453,0,4.109-1.225,5.068-2.252
	c2.105-2.26,3.01-5.844,2.248-8.92c-0.635-2.557-2.465-4.693-5.018-5.861c-1.334-0.609-2.773-0.918-4.281-0.918
	c-1.799,0-3.645,0.455-5.342,1.318c-3.092,1.572-6.092,4.852-8.912,9.746c-0.037,0.063-0.063,0.133-0.074,0.205
	c-0.014,0.064-0.023,0.129-0.039,0.193c-0.922,3.947-3.186,7.203-6.375,9.17c-2.344,1.443-5.092,2.176-8.164,2.176
	c-1.34,0-2.738-0.145-4.158-0.426c-6.121-1.217-10.357-6.104-14.453-10.83c-4.969-5.734-9.662-11.15-17.643-11.15
	c-1.943,0-4.051,0.33-6.266,0.984c-4.533,1.34-7.969,4.66-9.426,9.107c-1.453,4.443-0.678,9.25,2.072,12.861
	c2.268,2.973,6.508,4.82,11.07,4.82c0.594,0,1.189-0.033,1.773-0.096c4.363-0.475,7.725-2.598,9.217-5.822
	c1.201-2.588,0.838-5.99-0.881-8.271c-0.924-1.227-2.652-2.688-5.637-2.688c-0.516,0-1.061,0.045-1.619,0.131
	c-1.328,0.207-1.973,1.33-2.133,2.311c-0.109,0.68,0.021,1.318,0.324,1.594c0.043,0.037,0.09,0.07,0.141,0.096
	c0.545,0.279,0.949,0.76,1.141,1.357c0.191,0.596,0.141,1.23-0.146,1.787c-0.404,0.787-1.205,1.275-2.088,1.275
	c-0.369,0-0.74-0.09-1.07-0.26c-2.24-1.152-3.391-3.742-2.932-6.596c0.531-3.277,2.902-5.711,6.043-6.199
	c0.768-0.119,1.535-0.18,2.283-0.18c3.877,0,7.23,1.615,9.441,4.549c2.758,3.66,3.316,8.91,1.391,13.064
	c-2.203,4.754-6.93,7.857-12.967,8.516C511.71,305.737,510.931,305.778,510.159,305.778z M548.95,250.102
	c-1.021,0-2.096,0.111-3.197,0.328c-4.545,0.904-8.08,4.982-11.822,9.301c-3.246,3.748-6.605,7.623-11.082,10.141
	c-0.072,0.041-0.145,0.08-0.219,0.121c-0.209,0.111-0.34,0.33-0.34,0.566c0,0.238,0.129,0.455,0.338,0.57l0.221,0.121
	c4.479,2.518,7.836,6.393,11.082,10.139c3.74,4.318,7.275,8.398,11.822,9.301c1.1,0.219,2.176,0.33,3.197,0.33
	c5.223,0,8.873-2.813,10.018-7.715c0.592-2.539-0.51-5.564-2.807-7.707c-1.594-1.482-3.496-2.301-5.355-2.301
	c-0.613,0-1.213,0.09-1.785,0.266c-1.957,0.607-3.658,2.445-3.953,4.277c-0.215,1.34,0.385,2.523,1.781,3.521
	c0.174,0.123,0.389,0.186,0.641,0.186c0.223,0,0.418-0.049,0.514-0.078c0.158-0.049,0.309-0.115,0.441-0.199
	c0.201-0.127,0.318-0.354,0.301-0.59c-0.078-1.156,0.689-2.182,1.826-2.438c0.17-0.039,0.344-0.059,0.516-0.059
	c1.105,0,2.045,0.754,2.289,1.832c0.436,1.938-0.443,3.906-2.295,5.135c-1.07,0.711-2.305,1.088-3.568,1.088
	c-1.244,0-2.416-0.367-3.387-1.059c-2.846-2.029-4.191-4.975-3.689-8.084c0.359-2.229,1.674-4.43,3.607-6.039
	c0.148-0.123,0.232-0.305,0.232-0.496s-0.084-0.373-0.232-0.496c-1.934-1.609-3.248-3.811-3.607-6.039
	c-0.502-3.109,0.844-6.055,3.689-8.084c0.971-0.693,2.143-1.059,3.387-1.059c1.264,0,2.498,0.375,3.568,1.088
	c1.852,1.229,2.73,3.195,2.295,5.135c-0.244,1.078-1.184,1.83-2.287,1.83c-0.174,0-0.348-0.018-0.518-0.057
	c-1.137-0.256-1.904-1.281-1.826-2.438c0.018-0.24-0.102-0.469-0.305-0.594c-0.133-0.082-0.279-0.148-0.439-0.195
	c-0.121-0.037-0.307-0.078-0.512-0.078c-0.252,0-0.467,0.063-0.641,0.186c-1.396,0.996-1.996,2.182-1.781,3.52
	c0.295,1.834,1.996,3.672,3.955,4.277c0.57,0.178,1.17,0.266,1.783,0.266c1.859,0,3.762-0.816,5.355-2.301
	c2.297-2.141,3.398-5.166,2.807-7.707C557.823,252.913,554.173,250.102,548.95,250.102z M433.318,273.297
	c-1.859,0-3.761,0.818-5.354,2.301c-2.298,2.143-3.399,5.168-2.808,7.707c1.145,4.902,4.795,7.715,10.017,7.715
	c1.021,0,2.098-0.111,3.199-0.33c4.545-0.902,8.08-4.982,11.821-9.301c3.246-3.746,6.604-7.621,11.082-10.139l0.221-0.121
	c0.209-0.113,0.338-0.33,0.338-0.568c0-0.236-0.129-0.453-0.338-0.566l-0.221-0.123c-4.477-2.516-7.832-6.387-11.076-10.131
	c-3.745-4.324-7.282-8.406-11.827-9.311c-1.102-0.217-2.178-0.328-3.199-0.328c-5.222,0-8.873,2.811-10.017,7.713
	c-0.592,2.541,0.51,5.566,2.808,7.707c1.594,1.484,3.495,2.303,5.354,2.301c0.613,0,1.215-0.088,1.785-0.266
	c1.959-0.605,3.658-2.443,3.955-4.277c0.215-1.338-0.385-2.523-1.783-3.52c-0.172-0.123-0.389-0.186-0.641-0.186
	c-0.209,0-0.393,0.043-0.512,0.078c-0.16,0.049-0.311,0.115-0.441,0.197c-0.203,0.127-0.318,0.354-0.303,0.592
	c0.078,1.156-0.689,2.182-1.826,2.438c-0.17,0.039-0.344,0.057-0.516,0.057c-1.105,0-2.044-0.752-2.288-1.83
	c-0.436-1.938,0.442-3.906,2.293-5.135c1.07-0.713,2.305-1.088,3.568-1.088c1.246,0,2.416,0.365,3.387,1.059
	c2.848,2.029,4.191,4.975,3.689,8.084c-0.357,2.229-1.674,4.43-3.607,6.039c-0.146,0.123-0.232,0.305-0.232,0.496
	s0.086,0.373,0.232,0.496c1.934,1.609,3.25,3.811,3.607,6.039c0.502,3.109-0.842,6.055-3.689,8.084
	c-0.971,0.691-2.141,1.059-3.387,1.059c-1.264,0-2.498-0.377-3.568-1.088c-1.851-1.229-2.729-3.197-2.293-5.135
	c0.243-1.078,1.184-1.832,2.288-1.832c0.172,0,0.346,0.02,0.516,0.059c1.137,0.256,1.904,1.281,1.826,2.438
	c-0.016,0.238,0.102,0.467,0.305,0.594c0.133,0.082,0.281,0.146,0.439,0.195c0.096,0.029,0.291,0.078,0.512,0.078
	c0.252,0,0.469-0.063,0.643-0.188c1.396-0.996,1.996-2.18,1.781-3.52c-0.297-1.832-1.996-3.67-3.957-4.277
	C434.533,273.387,433.932,273.297,433.318,273.297z M353.147,250.102c-1.021,0-2.098,0.111-3.198,0.328
	c-4.545,0.902-8.079,4.982-11.822,9.303c-3.247,3.748-6.604,7.621-11.081,10.139l-0.223,0.123c-0.207,0.113-0.337,0.332-0.336,0.568
	c0,0.236,0.13,0.453,0.338,0.566l0.221,0.121c4.479,2.518,7.836,6.393,11.081,10.139c3.742,4.318,7.276,8.398,11.822,9.301
	c1.101,0.219,2.177,0.33,3.198,0.33c5.223,0,8.873-2.813,10.018-7.715c0.592-2.539-0.51-5.563-2.809-7.707
	c-1.593-1.482-3.494-2.301-5.354-2.301c-0.613,0-1.214,0.09-1.785,0.266c-1.958,0.607-3.658,2.445-3.953,4.277
	c-0.217,1.34,0.383,2.523,1.781,3.521c0.175,0.123,0.39,0.186,0.641,0.186c0.222,0,0.417-0.049,0.514-0.078
	c0.157-0.049,0.307-0.115,0.44-0.199c0.202-0.127,0.317-0.354,0.302-0.59c-0.078-1.156,0.689-2.182,1.826-2.438
	c0.17-0.039,0.344-0.059,0.516-0.059c1.104,0,2.045,0.754,2.287,1.832c0.437,1.938-0.442,3.906-2.293,5.135
	c-1.071,0.711-2.306,1.088-3.568,1.088c-1.245,0-2.416-0.367-3.388-1.059c-2.846-2.029-4.19-4.975-3.689-8.084
	c0.359-2.229,1.675-4.43,3.608-6.039c0.146-0.123,0.232-0.305,0.232-0.496s-0.085-0.373-0.232-0.496
	c-1.934-1.609-3.249-3.811-3.608-6.039c-0.501-3.109,0.845-6.055,3.689-8.084c0.972-0.693,2.143-1.059,3.388-1.059
	c1.264,0,2.497,0.375,3.568,1.088c1.851,1.229,2.729,3.195,2.293,5.135c-0.242,1.078-1.183,1.83-2.287,1.83
	c-0.172,0-0.346-0.018-0.516-0.057c-1.137-0.256-1.905-1.281-1.826-2.438c0.016-0.24-0.102-0.469-0.305-0.594
	c-0.133-0.082-0.281-0.148-0.439-0.195c-0.119-0.037-0.304-0.078-0.512-0.078c-0.252,0-0.468,0.063-0.641,0.186
	c-1.398,0.996-1.998,2.182-1.782,3.52c0.296,1.834,1.995,3.672,3.955,4.277c0.57,0.178,1.171,0.266,1.784,0.266
	c1.859,0,3.761-0.816,5.354-2.301c2.299-2.141,3.401-5.166,2.809-7.707C362.02,252.913,358.37,250.102,353.147,250.102z
	 M237.516,273.297c-1.86,0-3.762,0.818-5.355,2.301c-2.298,2.145-3.4,5.168-2.808,7.707c1.145,4.902,4.796,7.715,10.018,7.715
	c1.021,0,2.097-0.111,3.198-0.33c4.546-0.902,8.08-4.982,11.822-9.301c3.246-3.746,6.602-7.621,11.082-10.139l0.22-0.121
	c0.208-0.113,0.337-0.33,0.338-0.566s-0.128-0.455-0.336-0.568l-0.224-0.123c-4.476-2.518-7.831-6.389-11.076-10.135
	c-3.745-4.322-7.281-8.402-11.826-9.307c-1.102-0.217-2.178-0.328-3.197-0.328c-5.223,0-8.875,2.811-10.019,7.713
	c-0.593,2.539,0.51,5.564,2.808,7.707c1.594,1.484,3.496,2.303,5.355,2.301c0.613,0,1.213-0.088,1.783-0.266
	c1.959-0.605,3.66-2.443,3.955-4.277c0.215-1.338-0.385-2.523-1.782-3.52c-0.173-0.123-0.388-0.186-0.641-0.186
	c-0.208,0-0.394,0.041-0.511,0.078c-0.162,0.049-0.311,0.115-0.441,0.197c-0.203,0.127-0.319,0.354-0.304,0.592
	c0.079,1.156-0.689,2.182-1.827,2.438c-0.169,0.039-0.343,0.057-0.516,0.057c-1.086,0-2.048-0.77-2.287-1.83
	c-0.436-1.939,0.443-3.906,2.293-5.135c1.072-0.713,2.307-1.088,3.57-1.088c1.244,0,2.416,0.365,3.387,1.059
	c2.846,2.029,4.19,4.975,3.689,8.084c-0.359,2.229-1.674,4.43-3.608,6.039c-0.147,0.123-0.232,0.305-0.232,0.496
	s0.085,0.373,0.232,0.496c1.935,1.609,3.249,3.811,3.608,6.039c0.501,3.109-0.844,6.055-3.689,8.084
	c-0.971,0.691-2.143,1.059-3.387,1.059c-1.264,0-2.498-0.377-3.57-1.088c-1.85-1.229-2.729-3.197-2.293-5.135
	c0.243-1.078,1.184-1.832,2.288-1.832c0.173,0,0.346,0.02,0.515,0.059c1.137,0.256,1.906,1.281,1.827,2.438
	c-0.017,0.238,0.101,0.467,0.305,0.594c0.132,0.08,0.28,0.146,0.44,0.195c0.097,0.029,0.291,0.078,0.511,0.078
	c0.251,0,0.467-0.063,0.641-0.186c1.398-0.998,1.997-2.182,1.782-3.521c-0.296-1.832-1.996-3.67-3.955-4.277
	C238.729,273.387,238.129,273.297,237.516,273.297z M492.063,258.979c-0.277,0-0.523,0.176-0.611,0.438
	c-1.578,4.619-4.816,8.373-9.119,10.568c-0.217,0.111-0.354,0.334-0.354,0.576s0.137,0.465,0.354,0.576
	c4.303,2.193,7.541,5.947,9.119,10.568c0.088,0.262,0.334,0.438,0.611,0.438c0.275,0,0.521-0.176,0.611-0.438
	c1.576-4.621,4.814-8.375,9.117-10.568c0.217-0.111,0.354-0.334,0.354-0.576s-0.137-0.465-0.354-0.576
	c-4.303-2.195-7.541-5.949-9.117-10.568C492.585,259.155,492.339,258.979,492.063,258.979z M296.258,258.979
	c-0.275,0-0.521,0.176-0.611,0.438c-1.576,4.619-4.814,8.373-9.118,10.568c-0.216,0.111-0.353,0.334-0.353,0.576
	s0.137,0.465,0.353,0.576c4.304,2.193,7.542,5.947,9.118,10.568c0.09,0.262,0.336,0.438,0.611,0.438
	c0.277,0,0.522-0.176,0.611-0.438c1.577-4.621,4.816-8.375,9.119-10.568c0.217-0.111,0.353-0.334,0.353-0.576
	s-0.136-0.465-0.353-0.576c-4.304-2.195-7.542-5.949-9.119-10.568C296.781,259.155,296.536,258.979,296.258,258.979z
	 M562.796,264.815c-0.215,0.02-0.406,0.148-0.508,0.34c-0.746,1.404-1.73,2.682-2.93,3.799c-0.412,0.385-0.854,0.75-1.313,1.086
	c-0.168,0.123-0.266,0.316-0.266,0.521c0,0.207,0.1,0.4,0.266,0.521c0.455,0.332,0.896,0.697,1.313,1.086
	c1.199,1.115,2.184,2.395,2.93,3.799c0.102,0.191,0.293,0.318,0.508,0.34c0.021,0.002,0.043,0.004,0.063,0.004
	c0.193,0,0.379-0.088,0.502-0.238c1.686-2.074,3.467-3.748,5.293-4.975c0.18-0.121,0.285-0.322,0.285-0.537
	s-0.105-0.416-0.285-0.535c-1.826-1.229-3.607-2.902-5.293-4.977c-0.123-0.152-0.309-0.238-0.502-0.238
	C562.839,264.811,562.817,264.813,562.796,264.815z M366.993,264.815c-0.217,0.021-0.406,0.148-0.508,0.34
	c-0.744,1.402-1.73,2.682-2.931,3.799c-0.414,0.387-0.855,0.752-1.313,1.086c-0.166,0.123-0.265,0.316-0.265,0.521
	c0,0.207,0.099,0.4,0.266,0.521c0.453,0.332,0.895,0.697,1.312,1.086c1.2,1.117,2.186,2.396,2.931,3.799
	c0.102,0.191,0.291,0.318,0.508,0.34c0.021,0.002,0.041,0.004,0.063,0.004c0.193,0,0.377-0.088,0.501-0.238
	c1.687-2.076,3.468-3.748,5.294-4.975c0.178-0.121,0.285-0.322,0.285-0.537s-0.107-0.416-0.285-0.535
	c-1.826-1.229-3.607-2.902-5.294-4.977c-0.124-0.152-0.308-0.238-0.501-0.238C367.034,264.811,367.013,264.813,366.993,264.815z
	 M225.462,264.811c-0.193,0-0.378,0.088-0.501,0.238c-1.686,2.074-3.467,3.748-5.294,4.977c-0.179,0.119-0.286,0.32-0.285,0.535
	c0,0.215,0.106,0.416,0.286,0.537c1.826,1.227,3.607,2.9,5.293,4.975c0.123,0.15,0.308,0.238,0.501,0.238
	c0.021,0,0.042-0.002,0.063-0.004c0.215-0.021,0.406-0.148,0.508-0.34c0.744-1.402,1.73-2.682,2.93-3.801
	c0.416-0.387,0.857-0.752,1.313-1.084c0.166-0.121,0.264-0.314,0.264-0.521c0.001-0.205-0.098-0.398-0.264-0.521
	c-0.457-0.334-0.898-0.699-1.313-1.086c-1.2-1.117-2.186-2.396-2.93-3.799c-0.102-0.191-0.293-0.318-0.508-0.34
	C225.504,264.813,225.483,264.811,225.462,264.811z M421.266,264.811c-0.193,0-0.378,0.088-0.501,0.238
	c-1.685,2.072-3.466,3.746-5.294,4.977c-0.179,0.119-0.285,0.32-0.285,0.535s0.106,0.416,0.285,0.537
	c1.826,1.227,3.607,2.9,5.294,4.975c0.123,0.15,0.308,0.238,0.501,0.238c0.021,0,0.041-0.002,0.063-0.004
	c0.216-0.021,0.406-0.148,0.508-0.34c0.746-1.404,1.731-2.684,2.931-3.799c0.417-0.389,0.858-0.754,1.313-1.086
	c0.166-0.121,0.265-0.314,0.265-0.521c0-0.205-0.098-0.398-0.264-0.521c-0.459-0.334-0.9-0.699-1.313-1.086
	c-1.199-1.117-2.185-2.395-2.931-3.799c-0.102-0.191-0.292-0.318-0.508-0.34C421.307,264.813,421.287,264.811,421.266,264.811z
	 M394.161,267.092c-0.202,0-0.393,0.094-0.514,0.256c-0.775,1.016-1.697,1.922-2.742,2.693c-0.165,0.121-0.262,0.314-0.262,0.52
	s0.097,0.398,0.262,0.52c1.046,0.773,1.969,1.68,2.742,2.693c0.121,0.16,0.312,0.256,0.514,0.256c0.201,0,0.391-0.096,0.514-0.256
	c0.773-1.014,1.695-1.92,2.742-2.693c0.164-0.121,0.262-0.314,0.262-0.52s-0.098-0.398-0.262-0.52
	c-1.045-0.771-1.968-1.678-2.742-2.695C394.551,267.186,394.362,267.092,394.161,267.092z"/>
</svg>
