<?xml version="1.0" encoding="utf-8"?>
<!-- Generator: Adobe Illustrator 16.0.0, SVG Export Plug-In . SVG Version: 6.00 Build 0)  -->
<!DOCTYPE svg PUBLIC "-//W3C//DTD SVG 1.1//EN" "http://www.w3.org/Graphics/SVG/1.1/DTD/svg11.dtd">
<svg version="1.1" id="Layer_1" xmlns="http://www.w3.org/2000/svg" xmlns:xlink="http://www.w3.org/1999/xlink" x="0px" y="0px"
	 width="864px" height="864px" viewBox="0 0 864 864" enable-background="new 0 0 864 864" xml:space="preserve">
<path fill="#97D7D9" d="M205.936,278.129l-0.414-15.992c2.938-13.769,15.091-21.047,35.144-21.047c5.154,0,9.794,1.235,17.076,3.669
	c1.619,0.295,3.073,0.436,4.387,0.436c5.107,0,7.368-2.067,9.363-3.891c1.325-1.212,2.47-2.259,4.211-2.419
	c1.741,0.161,2.885,1.207,4.209,2.418c1.995,1.824,4.255,3.892,9.349,3.892c1.337,0,2.817-0.146,4.404-0.437
	c7.297-2.438,11.913-3.668,17.07-3.668c11.519-0.001,21.47,4.725,28.02,13.306c0.089,0.116,0.226,0.184,0.372,0.184
	c0.001,0,0.002,0,0.004,0c0.147-0.001,0.286-0.071,0.373-0.19c6.542-8.877,16.615-13.767,28.365-13.767
	c5.158,0,9.796,1.236,17.074,3.669c1.625,0.295,3.083,0.436,4.397,0.436c5.097,0,7.357-2.067,9.353-3.892
	c1.326-1.213,2.47-2.259,4.212-2.42c1.743,0.161,2.886,1.208,4.21,2.42c1.996,1.824,4.257,3.892,9.355,3.892
	c1.326,0,2.805-0.146,4.396-0.435c7.296-2.439,11.911-3.67,17.07-3.67c11.753-0.001,21.828,4.889,28.367,13.767
	c0.088,0.119,0.227,0.189,0.373,0.19c0.002,0,0.004,0,0.004,0c0.146,0,0.283-0.067,0.373-0.184
	c6.551-8.58,16.502-13.306,28.018-13.306c5.154,0,9.793,1.235,17.074,3.669c1.619,0.295,3.072,0.436,4.387,0.436
	c5.107,0,7.367-2.066,9.361-3.889c1.326-1.214,2.471-2.26,4.215-2.421c1.74,0.161,2.885,1.207,4.209,2.418
	c1.996,1.825,4.256,3.892,9.348,3.892c1.338,0,2.818-0.146,4.404-0.437c7.299-2.438,11.914-3.668,17.072-3.668
	c20.055-0.001,32.207,7.277,35.146,21.047l-0.412,15.992H205.936z"/>
</svg>
