<?xml version="1.0" encoding="utf-8"?>
<!-- Generator: Adobe Illustrator 16.0.0, SVG Export Plug-In . SVG Version: 6.00 Build 0)  -->
<!DOCTYPE svg PUBLIC "-//W3C//DTD SVG 1.1//EN" "http://www.w3.org/Graphics/SVG/1.1/DTD/svg11.dtd">
<svg version="1.1" id="Layer_1" xmlns="http://www.w3.org/2000/svg" xmlns:xlink="http://www.w3.org/1999/xlink" x="0px" y="0px"
	 width="864px" height="864px" viewBox="0 0 864 864" enable-background="new 0 0 864 864" xml:space="preserve">
<path fill="#97D7D9" d="M208.906,278.917v-14.559c5.255-1.005,9.69-3.648,13.556-8.081c3.473-3.978,6.154-7.61,8.308-10.529
	c1.281-1.736,2.388-3.235,3.374-4.42c2.511-2.98,6.076-6.31,6.226-6.45c3.625-3.407,8.551-5.358,13.519-5.358
	c1.432,0,2.814,0.168,4.108,0.5c3.547,0.919,6.2,2.955,7.47,5.729c1.293,2.787,1.526,5.312,0.691,7.507
	c-1.155,3.038-3.895,4.308-4.204,4.442c-0.799,0.321-1.883,0.696-3.075,0.696c-1.835,0-3.264-0.902-4.245-2.68
	c-0.883-1.572-0.962-3.131-0.224-4.391c0.373-0.636,0.946-1.174,1.614-1.515c0.184-0.094,0.285-0.298,0.248-0.501
	c-0.038-0.204-0.204-0.358-0.41-0.381c-0.249-0.027-0.509-0.042-0.776-0.042c-2.875,0-4.889,1.749-5.823,5.06
	c-1.24,4.418-0.63,8.427,1.812,11.917c3.63,5.191,10.994,8.326,16.392,8.74c1.811,0.14,2.682,0.198,3.39,0.198
	c0.215,0,0.416-0.006,0.623-0.016c6.974-0.424,12.413-3.127,17.12-8.508c3.456-3.958,6.139-7.592,8.295-10.512
	c1.305-1.769,2.407-3.261,3.386-4.438c2.549-3.028,6.19-6.415,6.226-6.447c3.626-3.409,8.469-5.36,13.292-5.36
	c1.406,0,2.773,0.168,4.063,0.5c3.393,0.88,5.886,2.862,7.208,5.729c1.296,2.791,1.528,5.319,0.688,7.516
	c-1.17,3.057-3.909,4.3-4.217,4.432c-0.797,0.323-1.874,0.698-3.068,0.698c-1.834,0-3.265-0.901-4.254-2.68
	c-0.876-1.57-0.95-3.129-0.21-4.389c0.374-0.637,0.948-1.175,1.617-1.517c0.185-0.095,0.285-0.299,0.247-0.502
	c-0.038-0.204-0.205-0.358-0.411-0.381c-0.249-0.025-0.509-0.041-0.776-0.041c-2.873,0-4.885,1.749-5.819,5.06
	c-1.243,4.415-0.637,8.423,1.801,11.912c3.631,5.194,11.001,8.331,16.405,8.745c1.807,0.14,2.676,0.198,3.383,0.198
	c0.215,0,0.416-0.006,0.624-0.016c6.973-0.424,12.41-3.127,17.116-8.509c3.47-3.971,6.159-7.613,8.32-10.54
	c1.286-1.742,2.387-3.232,3.365-4.409c2.496-2.965,6.077-6.308,6.228-6.448c3.624-3.409,8.549-5.359,13.518-5.359
	c1.432,0,2.813,0.168,4.105,0.5c3.538,0.916,6.192,2.952,7.473,5.729c1.295,2.79,1.525,5.317,0.687,7.513
	c-1.166,3.052-3.906,4.303-4.214,4.436c-0.799,0.322-1.88,0.697-3.069,0.697c-1.832,0-3.264-0.901-4.254-2.68
	c-0.875-1.572-0.95-3.131-0.209-4.391c0.374-0.636,0.948-1.174,1.617-1.515c0.184-0.094,0.285-0.298,0.248-0.501
	c-0.038-0.204-0.204-0.358-0.41-0.381c-0.249-0.027-0.508-0.042-0.776-0.042c-2.873,0-4.885,1.749-5.819,5.06
	c-1.245,4.413-0.641,8.42,1.796,11.908c3.629,5.197,10.999,8.335,16.402,8.749c1.812,0.14,2.684,0.198,3.391,0.198
	c0.215,0,0.416-0.006,0.624-0.016c6.979-0.424,12.412-3.127,17.104-8.508c3.485-3.982,6.179-7.629,8.343-10.56
	c1.295-1.753,2.383-3.226,3.352-4.391c2.559-3.059,6.192-6.416,6.229-6.45c3.623-3.407,8.457-5.357,13.265-5.357
	c1.403,0,2.771,0.168,4.065,0.5c3.376,0.87,5.867,2.851,7.204,5.729c1.285,2.79,1.511,5.318,0.672,7.514
	c-1.161,3.039-3.892,4.301-4.199,4.436c-0.515,0.204-1.746,0.696-3.081,0.696c-1.833,0-3.262-0.901-4.245-2.68
	c-0.876-1.576-0.95-3.139-0.208-4.4c0.371-0.631,0.939-1.165,1.602-1.505c0.184-0.094,0.283-0.298,0.246-0.501
	s-0.204-0.358-0.41-0.38c-0.25-0.027-0.513-0.043-0.783-0.043c-2.869,0-4.881,1.75-5.817,5.061
	c-1.241,4.414-0.633,8.422,1.807,11.913c3.631,5.193,10.994,8.329,16.391,8.743c1.808,0.14,2.678,0.198,3.391,0.198
	c0.217,0,0.42-0.006,0.631-0.016c6.978-0.423,12.416-3.126,17.125-8.509c3.404-3.901,6.063-7.496,8.199-10.385
	c1.336-1.81,2.475-3.352,3.492-4.563c2.426-2.893,5.816-6.091,6.195-6.446c3.627-3.411,8.557-5.362,13.537-5.362
	c1.436,0,2.818,0.168,4.111,0.5c3.541,0.923,6.197,2.959,7.475,5.729c1.289,2.79,1.518,5.318,0.68,7.514
	c-1.16,3.039-3.889,4.301-4.197,4.436c-0.514,0.204-1.746,0.696-3.082,0.696c-1.834,0-3.264-0.901-4.246-2.68
	c-0.877-1.575-0.951-3.137-0.211-4.397c0.371-0.632,0.939-1.167,1.602-1.508c0.184-0.095,0.285-0.298,0.246-0.501
	c-0.037-0.204-0.203-0.358-0.408-0.38c-0.252-0.027-0.516-0.043-0.785-0.043c-2.871,0-4.887,1.749-5.828,5.06
	c-1.238,4.413-0.629,8.42,1.813,11.91c3.635,5.195,11.002,8.333,16.4,8.747c1.807,0.14,2.678,0.198,3.391,0.198
	c0.217,0,0.42-0.006,0.631-0.016c6.975-0.424,12.412-3.127,17.119-8.509c3.412-3.917,6.072-7.518,8.211-10.41
	c1.336-1.809,2.469-3.338,3.475-4.538c2.545-3.031,6.172-6.417,6.207-6.45c3.623-3.407,8.475-5.358,13.314-5.358
	c1.41,0,2.779,0.168,4.072,0.5c3.365,0.878,5.852,2.86,7.189,5.729c1.291,2.78,1.525,5.301,0.691,7.491
	c-1.16,3.053-3.912,4.322-4.223,4.457c-0.725,0.297-1.84,0.697-3.063,0.697c-1.814,0-3.285-0.927-4.252-2.681
	c-0.881-1.573-0.957-3.133-0.219-4.394c0.373-0.634,0.947-1.171,1.615-1.512c0.184-0.095,0.285-0.299,0.246-0.503
	c-0.037-0.203-0.205-0.357-0.41-0.38c-0.248-0.025-0.508-0.04-0.773-0.04c-2.877,0-4.889,1.749-5.816,5.06
	c-1.244,4.417-0.639,8.426,1.801,11.914c3.629,5.193,11.002,8.329,16.408,8.743c1.811,0.14,2.68,0.198,3.381,0.198
	c0.213,0,0.41-0.006,0.615-0.016c1.477-0.08,2.957-0.285,4.404-0.609l-0.098,14.741H208.906z"/>
</svg>
