<?xml version="1.0" encoding="utf-8"?>
<!-- Generator: Adobe Illustrator 16.0.0, SVG Export Plug-In . SVG Version: 6.00 Build 0)  -->
<!DOCTYPE svg PUBLIC "-//W3C//DTD SVG 1.1//EN" "http://www.w3.org/Graphics/SVG/1.1/DTD/svg11.dtd">
<svg version="1.1" id="Layer_1" xmlns="http://www.w3.org/2000/svg" xmlns:xlink="http://www.w3.org/1999/xlink" x="0px" y="0px"
	 width="864px" height="864px" viewBox="0 0 864 864" enable-background="new 0 0 864 864" xml:space="preserve">
<path fill="#97D7D9" d="M212.911,214.491l0-18.297c0.501-7.392,5.437-14.906,13.897-14.906c2.04,0,3.875,0.575,6.752,1.709
	c0.659,0.141,1.231,0.203,1.731,0.203c2.024,0,2.918-0.963,3.707-1.813c0.502-0.542,0.977-1.054,1.666-1.128
	c0.689,0.074,1.163,0.586,1.665,1.128c0.789,0.85,1.683,1.813,3.697,1.813c0.529,0,1.115-0.068,1.742-0.204
	c2.897-1.14,4.706-1.708,6.751-1.708c3.922,0,7.483,1.692,10.028,4.765c0.089,0.107,0.221,0.169,0.36,0.169
	c0.14,0,0.271-0.062,0.36-0.169c2.544-3.072,6.106-4.765,10.028-4.765c2.038,0,3.873,0.575,6.75,1.709
	c0.659,0.141,1.231,0.203,1.731,0.203c2.025,0,2.919-0.964,3.708-1.813c0.503-0.542,0.977-1.053,1.665-1.127
	c0.689,0.074,1.163,0.586,1.665,1.128c0.789,0.85,1.683,1.813,3.697,1.813c0.529,0,1.115-0.068,1.742-0.204
	c2.897-1.14,4.705-1.708,6.75-1.708c4.032,0,7.663,1.778,10.225,5.008c0.088,0.111,0.223,0.177,0.365,0.177c0,0,0.001,0,0.002,0
	c0.142,0,0.275-0.063,0.364-0.174c2.556-3.168,6.16-4.913,10.148-4.913c2.036,0,3.871,0.576,6.75,1.711
	c0.664,0.141,1.238,0.203,1.74,0.203c2.015,0,2.909-0.963,3.698-1.813c0.504-0.543,0.978-1.054,1.666-1.129
	c0.688,0.075,1.162,0.586,1.665,1.127c0.789,0.852,1.683,1.815,3.699,1.815c0.524,0,1.109-0.068,1.739-0.203
	c2.9-1.143,4.708-1.711,6.751-1.711c3.922,0,7.483,1.692,10.028,4.765c0.089,0.107,0.221,0.169,0.36,0.169s0.271-0.062,0.36-0.169
	c2.545-3.072,6.106-4.765,10.029-4.765c2.035,0,3.87,0.576,6.75,1.711c0.664,0.141,1.238,0.203,1.739,0.203
	c2.016,0,2.91-0.964,3.699-1.814c0.502-0.541,0.976-1.053,1.665-1.128c0.688,0.075,1.163,0.586,1.665,1.127
	c0.789,0.852,1.683,1.815,3.7,1.815c0.524,0,1.109-0.068,1.739-0.203c2.899-1.143,4.708-1.711,6.751-1.711
	c4.031,0,7.663,1.779,10.224,5.009c0.088,0.111,0.223,0.177,0.365,0.177c0,0,0.001,0,0.002,0c0.142,0,0.275-0.063,0.364-0.174
	c2.555-3.169,6.16-4.914,10.149-4.914c2.034,0,3.869,0.576,6.75,1.71c0.659,0.141,1.233,0.203,1.741,0.203
	c2.016,0,2.91-0.963,3.698-1.813c0.502-0.541,0.975-1.053,1.664-1.128c0.689,0.075,1.164,0.587,1.665,1.128
	c0.788,0.85,1.682,1.813,3.698,1.813c0.529,0,1.115-0.068,1.741-0.204c2.899-1.141,4.708-1.709,6.75-1.709
	c3.921,0,7.481,1.692,10.028,4.765c0.09,0.107,0.221,0.169,0.361,0.169c0.139,0,0.271-0.062,0.359-0.169
	c2.545-3.072,6.107-4.765,10.029-4.765c2.033,0,3.869,0.576,6.75,1.71c0.658,0.141,1.232,0.203,1.74,0.203
	c2.016,0,2.91-0.964,3.697-1.813c0.506-0.543,0.979-1.053,1.666-1.128c0.689,0.075,1.162,0.587,1.664,1.128
	c0.789,0.85,1.682,1.813,3.697,1.813c0.529,0,1.115-0.068,1.74-0.204c2.902-1.141,4.711-1.709,6.752-1.709
	c4.033,0,7.664,1.779,10.225,5.009c0.088,0.111,0.223,0.177,0.365,0.177c0,0,0,0,0.002,0c0.141,0,0.275-0.063,0.363-0.174
	c2.557-3.168,6.16-4.913,10.146-4.913c2.039,0,3.875,0.576,6.754,1.71c0.658,0.141,1.232,0.203,1.74,0.203
	c2.014,0,2.906-0.963,3.695-1.812c0.506-0.545,0.979-1.056,1.668-1.131c0.688,0.075,1.162,0.586,1.664,1.127
	c0.787,0.852,1.682,1.815,3.699,1.815c0.527,0,1.113-0.068,1.74-0.204c2.898-1.141,4.707-1.709,6.75-1.709
	c3.922,0,7.482,1.692,10.027,4.766c0.09,0.107,0.221,0.169,0.361,0.169c0.139,0,0.271-0.062,0.359-0.169
	c2.547-3.073,6.107-4.766,10.027-4.766c2.037,0,3.873,0.576,6.752,1.71c0.658,0.141,1.234,0.203,1.74,0.203
	c2.016,0,2.91-0.964,3.699-1.814c0.502-0.541,0.977-1.053,1.664-1.128c0.689,0.075,1.162,0.586,1.664,1.127
	c0.789,0.852,1.682,1.815,3.699,1.815c0.529,0,1.115-0.068,1.74-0.204c2.898-1.141,4.707-1.709,6.752-1.709
	c8.529-0.001,13.154,7.411,13.844,14.298c0.014,0.123,0.074,0.236,0.17,0.314v18.297H212.911z"/>
</svg>
