<svg width="396" height="59" viewBox="0 0 396 59" fill="none" xmlns="http://www.w3.org/2000/svg">
<path fill="#00426b" d="M363.276 33.603C363.192 33.54 363.092 33.509 362.995 33.509C362.895 33.509 362.798 33.54 362.714 33.603L329.995 58.142L297.276 33.603C297.192 33.54 297.092 33.509 296.995 33.509C296.895 33.509 296.798 33.54 296.714 33.603L263.994 58.142L231.275 33.603C231.192 33.54 231.093 33.509 230.994 33.509C230.895 33.509 230.796 33.54 230.713 33.603L197.994 58.142L165.275 33.603C165.192 33.54 165.093 33.509 164.994 33.509C164.895 33.509 164.796 33.54 164.713 33.603L131.994 58.142L99.275 33.603C99.192 33.54 99.093 33.509 98.994 33.509C98.895 33.509 98.796 33.54 98.713 33.603L65.994 58.142L33.275 33.603C33.192 33.54 33.093 33.509 32.994 33.509C32.895 33.509 32.796 33.54 32.713 33.603L-0.00598145 58.142V25.142L32.994 0.391968L65.713 24.931C65.796 24.994 65.895 25.025 65.994 25.025C66.093 25.025 66.192 24.994 66.275 24.931L98.994 0.391968L131.713 24.931C131.796 24.994 131.895 25.025 131.994 25.025C132.093 25.025 132.192 24.994 132.275 24.931L164.994 0.391968L197.713 24.931C197.796 24.994 197.895 25.025 197.994 25.025C198.093 25.025 198.192 24.994 198.275 24.931L230.994 0.391968L263.712 24.931C263.796 24.994 263.896 25.025 263.993 25.025C264.093 25.025 264.19 24.994 264.274 24.931L296.994 0.391968L329.713 24.931C329.797 24.994 329.895 25.025 329.994 25.025C330.092 25.025 330.191 24.994 330.275 24.931L362.994 0.391968L395.994 25.142V58.142L363.276 33.603ZM329.714 46.473C329.798 46.536 329.896 46.567 329.995 46.567C330.093 46.567 330.192 46.536 330.276 46.473L362.995 21.934L386.079 39.247C386.161 39.31 386.261 39.341 386.36 39.341C386.43 39.341 386.503 39.325 386.569 39.292C386.727 39.212 386.827 39.05 386.827 38.873V29.961C386.827 29.814 386.759 29.675 386.641 29.587L363.276 12.063C363.192 12 363.092 11.969 362.995 11.969C362.895 11.969 362.798 12 362.714 12.063L329.995 36.602L297.276 12.063C297.192 12 297.092 11.969 296.995 11.969C296.895 11.969 296.798 12 296.714 12.063L263.994 36.602L231.275 12.063C231.192 12 231.093 11.969 230.994 11.969C230.895 11.969 230.796 12 230.713 12.063L197.994 36.602L165.275 12.063C165.192 12 165.093 11.969 164.994 11.969C164.895 11.969 164.796 12 164.713 12.063L131.994 36.602L99.275 12.063C99.192 12 99.093 11.969 98.994 11.969C98.895 11.969 98.796 12 98.713 12.063L65.994 36.602L33.275 12.063C33.192 12 33.093 11.969 32.994 11.969C32.895 11.969 32.796 12 32.713 12.063L9.34702 29.587C9.22902 29.675 9.16002 29.814 9.16002 29.961V38.873C9.16002 39.05 9.26001 39.212 9.41801 39.292C9.48401 39.325 9.55601 39.341 9.62701 39.341C9.72701 39.341 9.82502 39.31 9.90802 39.247L32.993 21.934L65.712 46.473C65.795 46.536 65.894 46.567 65.993 46.567C66.092 46.567 66.191 46.536 66.274 46.473L98.993 21.934L131.712 46.473C131.795 46.536 131.894 46.567 131.993 46.567C132.092 46.567 132.191 46.536 132.274 46.473L164.993 21.934L197.712 46.473C197.795 46.536 197.894 46.567 197.993 46.567C198.092 46.567 198.191 46.536 198.274 46.473L230.993 21.934L263.711 46.473C263.795 46.536 263.895 46.567 263.992 46.567C264.092 46.567 264.189 46.536 264.273 46.473L296.993 21.934L329.714 46.473Z"/>
</svg>
