<svg id="visual" viewBox="0 0 900 600" width="900" height="600" xmlns="http://www.w3.org/2000/svg" xmlns:xlink="http://www.w3.org/1999/xlink" version="1.1"><rect x="0" y="0" width="900" height="600" fill="#ffffff"></rect><path d="M0 490L18.8 490.7C37.7 491.3 75.3 492.7 112.8 491.5C150.3 490.3 187.7 486.7 225.2 494.7C262.7 502.7 300.3 522.3 337.8 521.7C375.3 521 412.7 500 450.2 488.3C487.7 476.7 525.3 474.3 562.8 483.5C600.3 492.7 637.7 513.3 675.2 514C712.7 514.7 750.3 495.3 787.8 489.7C825.3 484 862.7 492 881.3 496L900 500L900 601L881.3 601C862.7 601 825.3 601 787.8 601C750.3 601 712.7 601 675.2 601C637.7 601 600.3 601 562.8 601C525.3 601 487.7 601 450.2 601C412.7 601 375.3 601 337.8 601C300.3 601 262.7 601 225.2 601C187.7 601 150.3 601 112.8 601C75.3 601 37.7 601 18.8 601L0 601Z" fill="#0066FF" stroke-linecap="round" stroke-linejoin="miter"></path></svg>